Panchanan-Regular.ufo
<glyph name="exclam" format="2">
  <advance height="1000" width="681"/>
  <unicode hex="0021"/>
  <outline>
    <contour>
      <point x="387.0" y="360.0" type="line"/>
      <point x="360.0" y="360.0" type="line"/>
      <point x="342.0" y="582.0" type="line" smooth="yes"/>
      <point x="338.0" y="633.0"/>
      <point x="326.0" y="741.0"/>
      <point x="307.0" y="864.0" type="curve" smooth="yes"/>
      <point x="285.0" y="1012.0"/>
      <point x="266.0" y="1180.0"/>
      <point x="266.0" y="1227.0" type="curve" smooth="yes"/>
      <point x="266.0" y="1323.0"/>
      <point x="307.0" y="1384.0"/>
      <point x="375.0" y="1384.0" type="curve" smooth="yes"/>
      <point x="444.0" y="1384.0"/>
      <point x="483.0" y="1327.0"/>
      <point x="483.0" y="1221.0" type="curve" smooth="yes"/>
      <point x="483.0" y="1192.0"/>
      <point x="481.0" y="1169.0"/>
      <point x="479.0" y="1145.0" type="curve"/>
    </contour>
    <contour>
      <point x="375.0" y="201.0" type="curve" smooth="yes"/>
      <point x="436.0" y="201.0"/>
      <point x="485.0" y="150.0"/>
      <point x="485.0" y="88.0" type="curve" smooth="yes"/>
      <point x="485.0" y="27.0"/>
      <point x="438.0" y="-18.0"/>
      <point x="373.0" y="-18.0" type="curve" smooth="yes"/>
      <point x="311.0" y="-18.0"/>
      <point x="266.0" y="27.0"/>
      <point x="266.0" y="88.0" type="curve" smooth="yes"/>
      <point x="266.0" y="152.0"/>
      <point x="313.0" y="201.0"/>
    </contour>
  </outline>
</glyph>
<glyph name="quotedbl" format="2">
  <advance height="1000" width="835"/>
  <unicode hex="0022"/>
  <outline>
    <contour>
      <point x="612.0" y="883.0" type="line"/>
      <point x="569.0" y="883.0" type="line"/>
      <point x="535.0" y="1067.0"/>
      <point x="504.0" y="1268.0"/>
      <point x="504.0" y="1300.0" type="curve" smooth="yes"/>
      <point x="504.0" y="1348.0"/>
      <point x="543.0" y="1384.0"/>
      <point x="592.0" y="1384.0" type="curve" smooth="yes"/>
      <point x="639.0" y="1384.0"/>
      <point x="678.0" y="1348.0"/>
      <point x="678.0" y="1303.0" type="curve" smooth="yes"/>
      <point x="678.0" y="1243.0"/>
      <point x="659.0" y="1120.0"/>
      <point x="627.0" y="965.0" type="curve"/>
    </contour>
    <contour>
      <point x="266.0" y="883.0" type="line"/>
      <point x="223.0" y="883.0" type="line"/>
      <point x="188.0" y="1067.0"/>
      <point x="158.0" y="1268.0"/>
      <point x="158.0" y="1300.0" type="curve" smooth="yes"/>
      <point x="158.0" y="1348.0"/>
      <point x="197.0" y="1384.0"/>
      <point x="246.0" y="1384.0" type="curve" smooth="yes"/>
      <point x="293.0" y="1384.0"/>
      <point x="332.0" y="1348.0"/>
      <point x="332.0" y="1303.0" type="curve" smooth="yes"/>
      <point x="332.0" y="1243.0"/>
      <point x="313.0" y="1120.0"/>
      <point x="281.0" y="965.0" type="curve"/>
    </contour>
  </outline>
</glyph>
<glyph name="quotesingle" format="2">
  <advance height="1000" width="368"/>
  <unicode hex="0027"/>
  <outline>
    <contour>
      <point x="207.0" y="883.0" type="line"/>
      <point x="164.0" y="883.0" type="line"/>
      <point x="129.0" y="1067.0"/>
      <point x="98.0" y="1268.0"/>
      <point x="98.0" y="1300.0" type="curve" smooth="yes"/>
      <point x="98.0" y="1348.0"/>
      <point x="137.0" y="1384.0"/>
      <point x="186.0" y="1384.0" type="curve" smooth="yes"/>
      <point x="233.0" y="1384.0"/>
      <point x="272.0" y="1348.0"/>
      <point x="272.0" y="1303.0" type="curve" smooth="yes"/>
      <point x="272.0" y="1243.0"/>
      <point x="254.0" y="1120.0"/>
      <point x="221.0" y="965.0" type="curve"/>
    </contour>
  </outline>
</glyph>
<glyph name="parenleft" format="2">
  <advance height="1000" width="681"/>
  <unicode hex="0028"/>
  <outline>
    <contour>
      <point x="604.0" y="1384.0" type="curve"/>
      <point x="623.0" y="1352.0" type="line"/>
      <point x="475.0" y="1233.0"/>
      <point x="414.0" y="1159.0"/>
      <point x="356.0" y="1032.0" type="curve" smooth="yes"/>
      <point x="301.0" y="905.0"/>
      <point x="274.0" y="737.0"/>
      <point x="274.0" y="522.0" type="curve" smooth="yes"/>
      <point x="274.0" y="317.0"/>
      <point x="297.0" y="162.0"/>
      <point x="346.0" y="25.0" type="curve" smooth="yes"/>
      <point x="401.0" y="-129.0"/>
      <point x="459.0" y="-201.0"/>
      <point x="623.0" y="-330.0" type="curve"/>
      <point x="598.0" y="-362.0" type="line"/>
      <point x="492.0" y="-297.0"/>
      <point x="438.0" y="-252.0"/>
      <point x="354.0" y="-154.0" type="curve" smooth="yes"/>
      <point x="174.0" y="55.0"/>
      <point x="98.0" y="256.0"/>
      <point x="98.0" y="516.0" type="curve" smooth="yes"/>
      <point x="98.0" y="756.0"/>
      <point x="170.0" y="961.0"/>
      <point x="315.0" y="1139.0" type="curve" smooth="yes"/>
      <point x="391.0" y="1233.0"/>
      <point x="453.0" y="1286.0"/>
    </contour>
  </outline>
</glyph>
<glyph name="parenright" format="2">
  <advance height="1000" width="681"/>
  <unicode hex="0029"/>
  <outline>
    <contour>
      <point x="78.0" y="-362.0" type="curve"/>
      <point x="59.0" y="-330.0" type="line"/>
      <point x="207.0" y="-211.0"/>
      <point x="268.0" y="-137.0"/>
      <point x="326.0" y="-8.0" type="curve" smooth="yes"/>
      <point x="381.0" y="117.0"/>
      <point x="408.0" y="287.0"/>
      <point x="408.0" y="500.0" type="curve" smooth="yes"/>
      <point x="408.0" y="705.0"/>
      <point x="385.0" y="860.0"/>
      <point x="336.0" y="997.0" type="curve" smooth="yes"/>
      <point x="279.0" y="1151.0"/>
      <point x="223.0" y="1223.0"/>
      <point x="59.0" y="1352.0" type="curve"/>
      <point x="84.0" y="1384.0" type="line"/>
      <point x="190.0" y="1319.0"/>
      <point x="244.0" y="1274.0"/>
      <point x="328.0" y="1176.0" type="curve" smooth="yes"/>
      <point x="508.0" y="967.0"/>
      <point x="584.0" y="768.0"/>
      <point x="584.0" y="506.0" type="curve" smooth="yes"/>
      <point x="584.0" y="266.0"/>
      <point x="512.0" y="61.0"/>
      <point x="367.0" y="-117.0" type="curve" smooth="yes"/>
      <point x="291.0" y="-211.0"/>
      <point x="229.0" y="-264.0"/>
    </contour>
  </outline>
</glyph>
<glyph name="asterisk" format="2">
  <advance height="1000" width="1024"/>
  <unicode hex="002A"/>
  <outline>
    <contour>
      <point x="494.0" y="920.0" type="line"/>
      <point x="494.0" y="934.0" type="line"/>
      <point x="422.0" y="889.0"/>
      <point x="408.0" y="879.0"/>
      <point x="387.0" y="860.0" type="curve" smooth="yes"/>
      <point x="371.0" y="846.0"/>
      <point x="360.0" y="836.0"/>
      <point x="301.0" y="768.0" type="curve" smooth="yes"/>
      <point x="266.0" y="729.0"/>
      <point x="248.0" y="719.0"/>
      <point x="215.0" y="719.0" type="curve" smooth="yes"/>
      <point x="170.0" y="719.0"/>
      <point x="141.0" y="745.0"/>
      <point x="141.0" y="791.0" type="curve" smooth="yes"/>
      <point x="141.0" y="842.0"/>
      <point x="176.0" y="866.0"/>
      <point x="268.0" y="883.0" type="curve" smooth="yes"/>
      <point x="362.0" y="901.0"/>
      <point x="395.0" y="913.0"/>
      <point x="479.0" y="965.0" type="curve"/>
      <point x="457.0" y="979.0" type="line" smooth="yes"/>
      <point x="418.0" y="1006.0"/>
      <point x="356.0" y="1026.0"/>
      <point x="281.0" y="1040.0" type="curve" smooth="yes"/>
      <point x="182.0" y="1059.0"/>
      <point x="141.0" y="1087.0"/>
      <point x="141.0" y="1137.0" type="curve" smooth="yes"/>
      <point x="141.0" y="1178.0"/>
      <point x="172.0" y="1210.0"/>
      <point x="211.0" y="1210.0" type="curve" smooth="yes"/>
      <point x="244.0" y="1210.0"/>
      <point x="268.0" y="1194.0"/>
      <point x="309.0" y="1145.0" type="curve"/>
      <point x="377.0" y="1071.0"/>
      <point x="416.0" y="1038.0"/>
      <point x="494.0" y="995.0" type="curve"/>
      <point x="494.0" y="1022.0" type="line" smooth="yes"/>
      <point x="494.0" y="1077.0"/>
      <point x="483.0" y="1141.0"/>
      <point x="463.0" y="1208.0" type="curve" smooth="yes"/>
      <point x="451.0" y="1251.0"/>
      <point x="442.0" y="1288.0"/>
      <point x="442.0" y="1313.0" type="curve" smooth="yes"/>
      <point x="442.0" y="1354.0"/>
      <point x="473.0" y="1384.0"/>
      <point x="514.0" y="1384.0" type="curve" smooth="yes"/>
      <point x="555.0" y="1384.0"/>
      <point x="588.0" y="1352.0"/>
      <point x="588.0" y="1309.0" type="curve" smooth="yes"/>
      <point x="588.0" y="1286.0"/>
      <point x="580.0" y="1253.0"/>
      <point x="567.0" y="1214.0" type="curve" smooth="yes"/>
      <point x="545.0" y="1151.0"/>
      <point x="532.0" y="1094.0"/>
      <point x="532.0" y="1044.0" type="curve" smooth="yes"/>
      <point x="532.0" y="991.0" type="line"/>
      <point x="547.0" y="999.0" type="line" smooth="yes"/>
      <point x="592.0" y="1024.0"/>
      <point x="643.0" y="1069.0"/>
      <point x="694.0" y="1130.0" type="curve" smooth="yes"/>
      <point x="743.0" y="1188.0"/>
      <point x="778.0" y="1214.0"/>
      <point x="809.0" y="1214.0" type="curve" smooth="yes"/>
      <point x="852.0" y="1214.0"/>
      <point x="883.0" y="1182.0"/>
      <point x="883.0" y="1135.0" type="curve" smooth="yes"/>
      <point x="883.0" y="1083.0"/>
      <point x="856.0" y="1061.0"/>
      <point x="778.0" y="1049.0" type="curve" smooth="yes"/>
      <point x="688.0" y="1034.0"/>
      <point x="649.0" y="1020.0"/>
      <point x="549.0" y="963.0" type="curve"/>
      <point x="565.0" y="952.0" type="line" smooth="yes"/>
      <point x="618.0" y="920.0"/>
      <point x="684.0" y="895.0"/>
      <point x="764.0" y="883.0" type="curve" smooth="yes"/>
      <point x="854.0" y="868.0"/>
      <point x="885.0" y="846.0"/>
      <point x="885.0" y="793.0" type="curve" smooth="yes"/>
      <point x="885.0" y="748.0"/>
      <point x="856.0" y="717.0"/>
      <point x="813.0" y="717.0" type="curve" smooth="yes"/>
      <point x="776.0" y="717.0"/>
      <point x="741.0" y="741.0"/>
      <point x="690.0" y="805.0" type="curve" smooth="yes"/>
      <point x="635.0" y="872.0"/>
      <point x="592.0" y="909.0"/>
      <point x="547.0" y="928.0" type="curve" smooth="yes"/>
      <point x="532.0" y="934.0" type="line"/>
      <point x="532.0" y="920.0" type="line" smooth="yes"/>
      <point x="532.0" y="840.0"/>
      <point x="547.0" y="762.0"/>
      <point x="573.0" y="690.0" type="curve" smooth="yes"/>
      <point x="584.0" y="664.0"/>
      <point x="590.0" y="637.0"/>
      <point x="590.0" y="625.0" type="curve" smooth="yes"/>
      <point x="590.0" y="582.0"/>
      <point x="553.0" y="543.0"/>
      <point x="510.0" y="543.0" type="curve" smooth="yes"/>
      <point x="471.0" y="543.0"/>
      <point x="438.0" y="578.0"/>
      <point x="438.0" y="618.0" type="curve" smooth="yes"/>
      <point x="438.0" y="641.0"/>
      <point x="446.0" y="676.0"/>
      <point x="461.0" y="713.0" type="curve" smooth="yes"/>
      <point x="487.0" y="782.0"/>
      <point x="500.0" y="842.0"/>
      <point x="496.0" y="885.0" type="curve"/>
    </contour>
  </outline>
</glyph>
<glyph name="plus" format="2">
  <advance height="1000" width="1155"/>
  <unicode hex="002B"/>
  <outline>
    <contour>
      <point x="510.0" y="586.0" type="line"/>
      <point x="510.0" y="1036.0" type="line"/>
      <point x="645.0" y="1036.0" type="line"/>
      <point x="645.0" y="586.0" type="line"/>
      <point x="1094.0" y="586.0" type="line"/>
      <point x="1094.0" y="451.0" type="line"/>
      <point x="645.0" y="451.0" type="line"/>
      <point x="645.0" y="0.0" type="line"/>
      <point x="510.0" y="0.0" type="line"/>
      <point x="510.0" y="451.0" type="line"/>
      <point x="61.0" y="451.0" type="line"/>
      <point x="61.0" y="586.0" type="line"/>
    </contour>
  </outline>
</glyph>
<glyph name="comma" format="2">
  <advance height="1000" width="512"/>
  <unicode hex="002C"/>
  <outline>
    <contour>
      <point x="170.0" y="-289.0" type="curve"/>
      <point x="152.0" y="-250.0" type="line"/>
      <point x="262.0" y="-174.0"/>
      <point x="319.0" y="-98.0"/>
      <point x="319.0" y="-33.0" type="curve" smooth="yes"/>
      <point x="319.0" y="-16.0"/>
      <point x="307.0" y="-4.0"/>
      <point x="291.0" y="-4.0" type="curve" smooth="yes"/>
      <point x="289.0" y="-4.0"/>
      <point x="289.0" y="-4.0"/>
      <point x="274.0" y="-8.0" type="curve" smooth="yes"/>
      <point x="262.0" y="-10.0"/>
      <point x="248.0" y="-12.0"/>
      <point x="236.0" y="-12.0" type="curve" smooth="yes"/>
      <point x="162.0" y="-12.0"/>
      <point x="115.0" y="27.0"/>
      <point x="115.0" y="92.0" type="curve" smooth="yes"/>
      <point x="115.0" y="162.0"/>
      <point x="164.0" y="209.0"/>
      <point x="236.0" y="209.0" type="curve" smooth="yes"/>
      <point x="328.0" y="209.0"/>
      <point x="399.0" y="129.0"/>
      <point x="399.0" y="27.0" type="curve" smooth="yes"/>
      <point x="399.0" y="-96.0"/>
      <point x="307.0" y="-221.0"/>
    </contour>
  </outline>
</glyph>
<glyph name="hyphen" format="2">
  <advance height="1000" width="681"/>
  <unicode hex="002D"/>
  <outline>
    <contour>
      <point x="80.0" y="526.0" type="line"/>
      <point x="584.0" y="526.0" type="line"/>
      <point x="584.0" y="397.0" type="line"/>
      <point x="80.0" y="397.0" type="line"/>
    </contour>
  </outline>
</glyph>
<glyph name="period" format="2">
  <advance height="1000" width="512"/>
  <unicode hex="002E"/>
  <outline>
    <contour>
      <point x="256.0" y="205.0" type="curve" smooth="yes"/>
      <point x="317.0" y="205.0"/>
      <point x="371.0" y="152.0"/>
      <point x="371.0" y="88.0" type="curve" smooth="yes"/>
      <point x="371.0" y="29.0"/>
      <point x="317.0" y="-23.0"/>
      <point x="254.0" y="-23.0" type="curve" smooth="yes"/>
      <point x="195.0" y="-23.0"/>
      <point x="143.0" y="29.0"/>
      <point x="143.0" y="88.0" type="curve" smooth="yes"/>
      <point x="143.0" y="152.0"/>
      <point x="195.0" y="205.0"/>
    </contour>
  </outline>
</glyph>
<glyph name="slash" format="2">
  <advance height="1000" width="569"/>
  <unicode hex="002F"/>
  <outline>
    <contour>
      <point x="588.0" y="1384.0" type="line"/>
      <point x="121.0" y="-29.0" type="line"/>
      <point x="-18.0" y="-29.0" type="line"/>
      <point x="451.0" y="1384.0" type="line"/>
    </contour>
  </outline>
</glyph>
<glyph name="colon" format="2">
  <advance height="1000" width="569"/>
  <unicode hex="003A"/>
  <outline>
    <contour>
      <point x="279.0" y="940.0" type="curve" smooth="yes"/>
      <point x="340.0" y="940.0"/>
      <point x="393.0" y="887.0"/>
      <point x="393.0" y="823.0" type="curve" smooth="yes"/>
      <point x="393.0" y="764.0"/>
      <point x="340.0" y="713.0"/>
      <point x="276.0" y="713.0" type="curve" smooth="yes"/>
      <point x="217.0" y="713.0"/>
      <point x="166.0" y="764.0"/>
      <point x="166.0" y="823.0" type="curve" smooth="yes"/>
      <point x="166.0" y="887.0"/>
      <point x="217.0" y="940.0"/>
    </contour>
    <contour>
      <point x="279.0" y="205.0" type="curve" smooth="yes"/>
      <point x="340.0" y="205.0"/>
      <point x="393.0" y="152.0"/>
      <point x="393.0" y="88.0" type="curve" smooth="yes"/>
      <point x="393.0" y="29.0"/>
      <point x="340.0" y="-23.0"/>
      <point x="276.0" y="-23.0" type="curve" smooth="yes"/>
      <point x="217.0" y="-23.0"/>
      <point x="166.0" y="29.0"/>
      <point x="166.0" y="88.0" type="curve" smooth="yes"/>
      <point x="166.0" y="152.0"/>
      <point x="217.0" y="205.0"/>
    </contour>
  </outline>
</glyph>
<glyph name="semicolon" format="2">
  <advance height="1000" width="569"/>
  <unicode hex="003B"/>
  <outline>
    <contour>
      <point x="219.0" y="-289.0" type="curve"/>
      <point x="201.0" y="-250.0" type="line"/>
      <point x="311.0" y="-174.0"/>
      <point x="369.0" y="-98.0"/>
      <point x="369.0" y="-33.0" type="curve" smooth="yes"/>
      <point x="369.0" y="-16.0"/>
      <point x="356.0" y="-4.0"/>
      <point x="340.0" y="-4.0" type="curve" smooth="yes"/>
      <point x="338.0" y="-4.0"/>
      <point x="338.0" y="-4.0"/>
      <point x="324.0" y="-8.0" type="curve" smooth="yes"/>
      <point x="311.0" y="-10.0"/>
      <point x="297.0" y="-12.0"/>
      <point x="285.0" y="-12.0" type="curve" smooth="yes"/>
      <point x="209.0" y="-12.0"/>
      <point x="164.0" y="27.0"/>
      <point x="164.0" y="94.0" type="curve" smooth="yes"/>
      <point x="164.0" y="164.0"/>
      <point x="213.0" y="209.0"/>
      <point x="285.0" y="209.0" type="curve" smooth="yes"/>
      <point x="377.0" y="209.0"/>
      <point x="449.0" y="129.0"/>
      <point x="449.0" y="27.0" type="curve" smooth="yes"/>
      <point x="449.0" y="-96.0"/>
      <point x="360.0" y="-219.0"/>
    </contour>
    <contour>
      <point x="279.0" y="940.0" type="curve" smooth="yes"/>
      <point x="340.0" y="940.0"/>
      <point x="393.0" y="887.0"/>
      <point x="393.0" y="823.0" type="curve" smooth="yes"/>
      <point x="393.0" y="764.0"/>
      <point x="340.0" y="713.0"/>
      <point x="276.0" y="713.0" type="curve" smooth="yes"/>
      <point x="217.0" y="713.0"/>
      <point x="166.0" y="764.0"/>
      <point x="166.0" y="823.0" type="curve" smooth="yes"/>
      <point x="166.0" y="887.0"/>
      <point x="217.0" y="940.0"/>
    </contour>
  </outline>
</glyph>
<glyph name="uni0964" format="2">
  <advance width="817"/>
  <unicode hex="0964"/>
  <outline>
    <contour>
      <point x="406" y="1126" type="curve" smooth="yes"/>
      <point x="424" y="1131"/>
      <point x="443" y="1134"/>
      <point x="461" y="1134" type="curve" smooth="yes"/>
      <point x="521" y="1134"/>
      <point x="579" y="1106"/>
      <point x="622" y="1056" type="curve" smooth="yes"/>
      <point x="651" y="1022"/>
      <point x="665" y="985"/>
      <point x="665" y="939" type="curve" smooth="yes"/>
      <point x="665" y="886"/>
      <point x="645" y="820"/>
      <point x="606" y="733" type="curve" smooth="yes"/>
      <point x="573" y="660"/>
      <point x="546" y="589"/>
      <point x="546" y="575" type="curve" smooth="yes"/>
      <point x="546" y="534"/>
      <point x="496" y="336"/>
      <point x="477" y="302" type="curve" smooth="yes"/>
      <point x="468" y="287"/>
      <point x="461" y="261"/>
      <point x="461" y="247" type="curve" smooth="yes"/>
      <point x="461" y="234"/>
      <point x="451" y="206"/>
      <point x="440" y="189" type="curve" smooth="yes"/>
      <point x="431" y="175"/>
      <point x="427" y="162"/>
      <point x="427" y="150" type="curve" smooth="yes"/>
      <point x="427" y="122"/>
      <point x="449" y="102"/>
      <point x="486" y="102" type="curve" smooth="yes"/>
      <point x="539" y="102"/>
      <point x="614" y="29"/>
      <point x="614" y="-23" type="curve" smooth="yes"/>
      <point x="614" y="-78"/>
      <point x="572" y="-124"/>
      <point x="500" y="-148" type="curve" smooth="yes"/>
      <point x="474" y="-157"/>
      <point x="451" y="-161"/>
      <point x="431" y="-161" type="curve" smooth="yes"/>
      <point x="385" y="-161"/>
      <point x="352" y="-137"/>
      <point x="314" y="-82" type="curve" smooth="yes"/>
      <point x="278" y="-30"/>
      <point x="270" y="-6"/>
      <point x="270" y="82" type="curve" smooth="yes"/>
      <point x="270" y="120" type="line" smooth="yes"/>
      <point x="271" y="219"/>
      <point x="281" y="278"/>
      <point x="307" y="337" type="curve" smooth="yes"/>
      <point x="352" y="438"/>
      <point x="358" y="549"/>
      <point x="411" y="639" type="curve" smooth="yes"/>
      <point x="435" y="679"/>
      <point x="450" y="737"/>
      <point x="453" y="795" type="curve" smooth="yes"/>
      <point x="454" y="814"/>
      <point x="454" y="830"/>
      <point x="454" y="842" type="curve" smooth="yes"/>
      <point x="454" y="886"/>
      <point x="446" y="887"/>
      <point x="410" y="887" type="curve" smooth="yes"/>
      <point x="384" y="887"/>
      <point x="343" y="903"/>
      <point x="318" y="922" type="curve" smooth="yes"/>
      <point x="291" y="943"/>
      <point x="280" y="957"/>
      <point x="280" y="977" type="curve" smooth="yes"/>
      <point x="280" y="984"/>
      <point x="282" y="992"/>
      <point x="284" y="1001" type="curve" smooth="yes"/>
      <point x="298" y="1057"/>
      <point x="348" y="1109"/>
    </contour>
  </outline>
</glyph>
<glyph name="uni0965" format="2">
  <advance width="1148"/>
  <unicode hex="0965"/>
  <outline>
    <contour>
      <point x="705" y="1184" type="curve" smooth="yes"/>
      <point x="732" y="1203"/>
      <point x="764" y="1212"/>
      <point x="797" y="1212" type="curve" smooth="yes"/>
      <point x="879" y="1212"/>
      <point x="967" y="1157"/>
      <point x="1001" y="1070" type="curve" smooth="yes"/>
      <point x="1030" y="997"/>
      <point x="1044" y="927"/>
      <point x="1044" y="863" type="curve" smooth="yes"/>
      <point x="1044" y="814"/>
      <point x="1035" y="768"/>
      <point x="1018" y="730" type="curve" smooth="yes"/>
      <point x="998" y="686"/>
      <point x="972" y="614"/>
      <point x="959" y="568" type="curve" smooth="yes"/>
      <point x="946" y="522"/>
      <point x="922" y="460"/>
      <point x="904" y="429" type="curve" smooth="yes"/>
      <point x="863" y="357"/>
      <point x="798" y="171"/>
      <point x="798" y="127" type="curve" smooth="yes"/>
      <point x="798" y="124"/>
      <point x="798" y="122"/>
      <point x="799" y="120" type="curve" smooth="yes"/>
      <point x="803" y="108"/>
      <point x="840" y="97"/>
      <point x="882" y="96" type="curve" smooth="yes"/>
      <point x="980" y="95"/>
      <point x="1031" y="52"/>
      <point x="1031" y="-23" type="curve" smooth="yes"/>
      <point x="1031" y="-52"/>
      <point x="1024" y="-85"/>
      <point x="1008" y="-122" type="curve" smooth="yes"/>
      <point x="984" y="-179"/>
      <point x="973" y="-185"/>
      <point x="892" y="-192" type="curve" smooth="yes"/>
      <point x="842" y="-196"/>
      <point x="789" y="-206"/>
      <point x="772" y="-214" type="curve" smooth="yes"/>
      <point x="769" y="-215"/>
      <point x="766" y="-216"/>
      <point x="762" y="-216" type="curve" smooth="yes"/>
      <point x="741" y="-216"/>
      <point x="715" y="-190"/>
      <point x="666" y="-122" type="curve" smooth="yes"/>
      <point x="614" y="-50"/>
      <point x="590" y="7"/>
      <point x="590" y="74" type="curve" smooth="yes"/>
      <point x="590" y="121"/>
      <point x="602" y="172"/>
      <point x="625" y="238" type="curve" smooth="yes"/>
      <point x="645" y="293"/>
      <point x="682" y="411"/>
      <point x="709" y="503" type="curve" smooth="yes"/>
      <point x="736" y="595"/>
      <point x="766" y="695"/>
      <point x="776" y="726" type="curve" smooth="yes"/>
      <point x="786" y="757"/>
      <point x="793" y="811"/>
      <point x="793" y="846" type="curve" smooth="yes"/>
      <point x="793" y="901"/>
      <point x="784" y="915"/>
      <point x="733" y="938" type="curve" smooth="yes"/>
      <point x="678" y="962"/>
      <point x="673" y="973"/>
      <point x="668" y="1060" type="curve" smooth="yes"/>
      <point x="667" y="1076"/>
      <point x="666" y="1089"/>
      <point x="666" y="1101" type="curve" smooth="yes"/>
      <point x="666" y="1149"/>
      <point x="676" y="1164"/>
    </contour>
    <contour>
      <point x="256" y="1211" type="curve" smooth="yes"/>
      <point x="278" y="1217"/>
      <point x="300" y="1220"/>
      <point x="321" y="1220" type="curve" smooth="yes"/>
      <point x="401" y="1220"/>
      <point x="467" y="1177"/>
      <point x="498" y="1103" type="curve" smooth="yes"/>
      <point x="508" y="1079"/>
      <point x="513" y="1041"/>
      <point x="513" y="999" type="curve" smooth="yes"/>
      <point x="513" y="938"/>
      <point x="503" y="868"/>
      <point x="484" y="817" type="curve" smooth="yes"/>
      <point x="394" y="570"/>
      <point x="314" y="263"/>
      <point x="314" y="164" type="curve" smooth="yes"/>
      <point x="314" y="119"/>
      <point x="323" y="109"/>
      <point x="371" y="98" type="curve" smooth="yes"/>
      <point x="437" y="83"/>
      <point x="472" y="26"/>
      <point x="472" y="-36" type="curve" smooth="yes"/>
      <point x="472" y="-87"/>
      <point x="448" y="-142"/>
      <point x="399" y="-179" type="curve" smooth="yes"/>
      <point x="349" y="-216" type="line"/>
      <point x="262" y="-170" type="line" smooth="yes"/>
      <point x="194" y="-134"/>
      <point x="166" y="-104"/>
      <point x="131" y="-32" type="curve" smooth="yes"/>
      <point x="106" y="19"/>
      <point x="96" y="46"/>
      <point x="96" y="79" type="curve" smooth="yes"/>
      <point x="96" y="101"/>
      <point x="100" y="126"/>
      <point x="108" y="163" type="curve" smooth="yes"/>
      <point x="120" y="220"/>
      <point x="129" y="281"/>
      <point x="129" y="301" type="curve" smooth="yes"/>
      <point x="129" y="321"/>
      <point x="145" y="370"/>
      <point x="164" y="411" type="curve" smooth="yes"/>
      <point x="184" y="452"/>
      <point x="213" y="525"/>
      <point x="231" y="577" type="curve" smooth="yes"/>
      <point x="260" y="663"/>
      <point x="269" y="701"/>
      <point x="306" y="887" type="curve" smooth="yes"/>
      <point x="319" y="955" type="line"/>
      <point x="247" y="955" type="line" smooth="yes"/>
      <point x="162" y="955"/>
      <point x="129" y="980"/>
      <point x="129" y="1044" type="curve" smooth="yes"/>
      <point x="129" y="1118"/>
      <point x="185" y="1192"/>
    </contour>
  </outline>
</glyph>
<glyph name="bn_aanji" format="2">
  <advance width="1293"/>
  <unicode hex="0980"/>
  <outline>
    <contour>
      <point x="456" y="1583" type="curve" smooth="yes"/>
      <point x="481" y="1588"/>
      <point x="503" y="1591"/>
      <point x="524" y="1591" type="curve" smooth="yes"/>
      <point x="573" y="1591"/>
      <point x="619" y="1576"/>
      <point x="694" y="1541" type="curve" smooth="yes"/>
      <point x="813" y="1485"/>
      <point x="876" y="1419"/>
      <point x="923" y="1303" type="curve" smooth="yes"/>
      <point x="939" y="1262"/>
      <point x="948" y="1156"/>
      <point x="948" y="1038" type="curve" smooth="yes"/>
      <point x="948" y="924"/>
      <point x="940" y="799"/>
      <point x="924" y="712" type="curve" smooth="yes"/>
      <point x="914" y="660"/>
      <point x="910" y="595"/>
      <point x="910" y="528" type="curve" smooth="yes"/>
      <point x="910" y="441"/>
      <point x="918" y="350"/>
      <point x="933" y="280" type="curve" smooth="yes"/>
      <point x="942" y="239"/>
      <point x="947" y="226"/>
      <point x="969" y="226" type="curve" smooth="yes"/>
      <point x="977" y="226"/>
      <point x="988" y="228"/>
      <point x="1003" y="231" type="curve" smooth="yes"/>
      <point x="1015" y="233"/>
      <point x="1025" y="234"/>
      <point x="1034" y="234" type="curve" smooth="yes"/>
      <point x="1061" y="234"/>
      <point x="1080" y="223"/>
      <point x="1112" y="194" type="curve" smooth="yes"/>
      <point x="1147" y="161"/>
      <point x="1158" y="145"/>
      <point x="1158" y="105" type="curve" smooth="yes"/>
      <point x="1158" y="92"/>
      <point x="1157" y="75"/>
      <point x="1155" y="55" type="curve" smooth="yes"/>
      <point x="1142" y="-79"/>
      <point x="1047" y="-154"/>
      <point x="941" y="-154" type="curve" smooth="yes"/>
      <point x="870" y="-154"/>
      <point x="795" y="-120"/>
      <point x="737" y="-47" type="curve" smooth="yes"/>
      <point x="676" y="30" type="line"/>
      <point x="676" y="325" type="line" smooth="yes"/>
      <point x="676" y="522"/>
      <point x="683" y="629"/>
      <point x="697" y="646" type="curve" smooth="yes"/>
      <point x="709" y="660"/>
      <point x="723" y="732"/>
      <point x="731" y="805" type="curve" smooth="yes"/>
      <point x="745" y="939" type="line"/>
      <point x="656" y="872" type="line" smooth="yes"/>
      <point x="551" y="795"/>
      <point x="401" y="740"/>
      <point x="297" y="740" type="curve" smooth="yes"/>
      <point x="287" y="740"/>
      <point x="277" y="741"/>
      <point x="268" y="742" type="curve" smooth="yes"/>
      <point x="169" y="753"/>
      <point x="138" y="780"/>
      <point x="124" y="866" type="curve" smooth="yes"/>
      <point x="118" y="904"/>
      <point x="107" y="937"/>
      <point x="100" y="937" type="curve" smooth="yes"/>
      <point x="71" y="937"/>
      <point x="55" y="1028"/>
      <point x="55" y="1128" type="curve" smooth="yes"/>
      <point x="55" y="1207"/>
      <point x="65" y="1291"/>
      <point x="86" y="1341" type="curve" smooth="yes"/>
      <point x="130" y="1445"/>
      <point x="286" y="1547"/>
    </contour>
    <contour>
      <point x="597" y="1351" type="curve" smooth="yes"/>
      <point x="578" y="1366"/>
      <point x="551" y="1372"/>
      <point x="522" y="1372" type="curve" smooth="yes"/>
      <point x="448" y="1372"/>
      <point x="358" y="1330"/>
      <point x="336" y="1271" type="curve" smooth="yes"/>
      <point x="329" y="1251"/>
      <point x="325" y="1222"/>
      <point x="325" y="1191" type="curve" smooth="yes"/>
      <point x="325" y="1120"/>
      <point x="342" y="1034"/>
      <point x="368" y="1006" type="curve" smooth="yes"/>
      <point x="385" y="987"/>
      <point x="414" y="973"/>
      <point x="436" y="973" type="curve" smooth="yes"/>
      <point x="501" y="973"/>
      <point x="593" y="1043"/>
      <point x="623" y="1114" type="curve" smooth="yes"/>
      <point x="636" y="1144"/>
      <point x="642" y="1181"/>
      <point x="642" y="1216" type="curve" smooth="yes"/>
      <point x="642" y="1274"/>
      <point x="626" y="1329"/>
    </contour>
  </outline>
</glyph>
<glyph name="bn_chandrabindu" format="2">
  <advance width="744"/>
  <unicode hex="0981"/>
  <outline>
    <contour>
      <point x="50" y="1462" type="curve" smooth="yes"/>
      <point x="57" y="1481"/>
      <point x="65" y="1489"/>
      <point x="74" y="1489" type="curve" smooth="yes"/>
      <point x="90" y="1489"/>
      <point x="108" y="1457"/>
      <point x="119" y="1400" type="curve" smooth="yes"/>
      <point x="135" y="1317"/>
      <point x="178" y="1246"/>
      <point x="212" y="1246" type="curve" smooth="yes"/>
      <point x="221" y="1246"/>
      <point x="246" y="1233"/>
      <point x="267" y="1216" type="curve" smooth="yes"/>
      <point x="294" y="1195"/>
      <point x="328" y="1186"/>
      <point x="381" y="1186" type="curve" smooth="yes"/>
      <point x="477" y="1186"/>
      <point x="554" y="1237"/>
      <point x="603" y="1331" type="curve" smooth="yes"/>
      <point x="631" y="1385"/>
      <point x="648" y="1409"/>
      <point x="662" y="1409" type="curve" smooth="yes"/>
      <point x="668" y="1409"/>
      <point x="673" y="1405"/>
      <point x="679" y="1396" type="curve" smooth="yes"/>
      <point x="685" y="1388"/>
      <point x="687" y="1378"/>
      <point x="687" y="1366" type="curve" smooth="yes"/>
      <point x="687" y="1332"/>
      <point x="666" y="1283"/>
      <point x="620" y="1213" type="curve" smooth="yes"/>
      <point x="575" y="1144"/>
      <point x="551" y="1123"/>
      <point x="498" y="1104" type="curve" smooth="yes"/>
      <point x="455" y="1089"/>
      <point x="412" y="1082"/>
      <point x="372" y="1082" type="curve" smooth="yes"/>
      <point x="220" y="1082"/>
      <point x="93" y="1183"/>
      <point x="59" y="1347" type="curve" smooth="yes"/>
      <point x="52" y="1382"/>
      <point x="48" y="1419"/>
      <point x="48" y="1442" type="curve" smooth="yes"/>
      <point x="48" y="1451"/>
      <point x="49" y="1458"/>
    </contour>
    <contour>
      <point x="297" y="1562" type="curve" smooth="yes"/>
      <point x="315" y="1572"/>
      <point x="339" y="1577"/>
      <point x="364" y="1577" type="curve" smooth="yes"/>
      <point x="391" y="1577"/>
      <point x="419" y="1572"/>
      <point x="443" y="1561" type="curve" smooth="yes"/>
      <point x="475" y="1547"/>
      <point x="494" y="1500"/>
      <point x="494" y="1456" type="curve" smooth="yes"/>
      <point x="494" y="1433"/>
      <point x="488" y="1410"/>
      <point x="477" y="1393" type="curve" smooth="yes"/>
      <point x="436" y="1331"/>
      <point x="392" y="1292"/>
      <point x="363" y="1292" type="curve" smooth="yes"/>
      <point x="321" y="1292"/>
      <point x="246" y="1361"/>
      <point x="237" y="1408" type="curve" smooth="yes"/>
      <point x="236" y="1414"/>
      <point x="235" y="1421"/>
      <point x="235" y="1428" type="curve" smooth="yes"/>
      <point x="235" y="1478"/>
      <point x="264" y="1542"/>
    </contour>
    <contour>
      <point x="414" y="1493" type="curve" smooth="yes"/>
      <point x="399" y="1499"/>
      <point x="386" y="1502"/>
      <point x="375" y="1502" type="curve" smooth="yes"/>
      <point x="359" y="1502"/>
      <point x="346" y="1496"/>
      <point x="334" y="1484" type="curve" smooth="yes"/>
      <point x="322" y="1472"/>
      <point x="316" y="1455"/>
      <point x="316" y="1438" type="curve" smooth="yes"/>
      <point x="316" y="1415"/>
      <point x="326" y="1393"/>
      <point x="345" y="1383" type="curve" smooth="yes"/>
      <point x="362" y="1374"/>
      <point x="372" y="1369"/>
      <point x="380" y="1369" type="curve" smooth="yes"/>
      <point x="390" y="1369"/>
      <point x="398" y="1376"/>
      <point x="413" y="1391" type="curve" smooth="yes"/>
      <point x="429" y="1407"/>
      <point x="437" y="1430"/>
      <point x="437" y="1450" type="curve" smooth="yes"/>
      <point x="437" y="1470"/>
      <point x="429" y="1487"/>
    </contour>
  </outline>
</glyph>
<glyph name="bn_anusvar" format="2">
  <advance width="580"/>
  <unicode hex="0982"/>
  <outline>
    <contour>
      <point x="-61" y="224" type="curve" smooth="yes"/>
      <point x="-63" y="261"/>
      <point x="-54" y="284"/>
      <point x="-43" y="272" type="curve" smooth="yes"/>
      <point x="-36" y="265"/>
      <point x="-33" y="252"/>
      <point x="-33" y="237" type="curve" smooth="yes"/>
      <point x="-33" y="225"/>
      <point x="-35" y="213"/>
      <point x="-39" y="201" type="curve" smooth="yes"/>
      <point x="-44" y="189"/>
      <point x="-48" y="183"/>
      <point x="-51" y="183" type="curve" smooth="yes"/>
      <point x="-56" y="183"/>
      <point x="-60" y="197"/>
    </contour>
    <contour>
      <point x="132" y="1515" type="curve" smooth="yes"/>
      <point x="181" y="1561"/>
      <point x="234" y="1584"/>
      <point x="289" y="1584" type="curve" smooth="yes"/>
      <point x="347" y="1584"/>
      <point x="408" y="1559"/>
      <point x="471" y="1508" type="curve" smooth="yes"/>
      <point x="534" y="1458"/>
      <point x="566" y="1389"/>
      <point x="566" y="1316" type="curve" smooth="yes"/>
      <point x="566" y="1260"/>
      <point x="548" y="1202"/>
      <point x="509" y="1147" type="curve" smooth="yes"/>
      <point x="471" y="1093"/>
      <point x="402" y="1067"/>
      <point x="327" y="1067" type="curve" smooth="yes"/>
      <point x="233" y="1067"/>
      <point x="131" y="1108"/>
      <point x="75" y="1184" type="curve" smooth="yes"/>
      <point x="41" y="1230"/>
      <point x="23" y="1275"/>
      <point x="23" y="1319" type="curve" smooth="yes"/>
      <point x="23" y="1383"/>
      <point x="59" y="1447"/>
    </contour>
    <contour>
      <point x="374" y="1296" type="curve" smooth="yes"/>
      <point x="362" y="1332"/>
      <point x="313" y="1356"/>
      <point x="271" y="1356" type="curve" smooth="yes"/>
      <point x="252" y="1356"/>
      <point x="234" y="1351"/>
      <point x="222" y="1339" type="curve" smooth="yes"/>
      <point x="212" y="1330"/>
      <point x="208" y="1320"/>
      <point x="208" y="1310" type="curve" smooth="yes"/>
      <point x="208" y="1280"/>
      <point x="253" y="1252"/>
      <point x="315" y="1252" type="curve" smooth="yes"/>
      <point x="353" y="1252"/>
      <point x="376" y="1264"/>
      <point x="376" y="1285" type="curve" smooth="yes"/>
      <point x="376" y="1288"/>
      <point x="375" y="1292"/>
    </contour>
  </outline>
</glyph>
<glyph name="bn_bisarga" format="2">
  <advance width="601"/>
  <unicode hex="0983"/>
  <outline>
    <contour>
      <point x="166.655" y="723.254" type="curve" smooth="yes"/>
      <point x="274.092" y="783.522"/>
      <point x="369.456" y="770.311"/>
      <point x="465.462" y="681.854" type="curve" smooth="yes"/>
      <point x="572.898" y="582.868"/>
      <point x="577.185" y="495.106"/>
      <point x="478.892" y="406.866" type="curve" smooth="yes"/>
      <point x="378.171" y="316.446"/>
      <point x="293.117" y="290.028"/>
      <point x="223.731" y="327.612" type="curve" smooth="yes"/>
      <point x="191.116" y="345.278"/>
      <point x="141.476" y="365.723"/>
      <point x="107.901" y="375.314" type="curve" smooth="yes"/>
      <point x="66.9521" y="387.015"/>
      <point x="49.1475" y="425.676"/>
      <point x="49.1475" y="502.896" type="curve" smooth="yes"/>
      <point x="49.1475" y="627.118"/>
      <point x="72.1387" y="670.231"/>
    </contour>
    <contour>
      <point x="380.517" y="590.187" type="curve" smooth="yes"/>
      <point x="345.139" y="684.193"/>
      <point x="264.998" y="687.49"/>
      <point x="217.27" y="596.901" type="curve" smooth="yes"/>
      <point x="171.123" y="509.318"/>
      <point x="200.229" y="462.606"/>
      <point x="300.951" y="462.606" type="curve" smooth="yes"/>
      <point x="398.314" y="462.606"/>
      <point x="417.159" y="492.823"/>
    </contour>
    <contour>
      <point x="135.389" y="1362.38" type="curve" smooth="yes"/>
      <point x="211.476" y="1470.47"/>
      <point x="431.945" y="1466.46"/>
      <point x="504.339" y="1355.67" type="curve" smooth="yes"/>
      <point x="601.48" y="1207"/>
      <point x="495.679" y="1037.4"/>
      <point x="304.309" y="1035.02" type="curve" smooth="yes"/>
      <point x="112.938" y="1032.64"/>
      <point x="24.2549" y="1204.5"/>
    </contour>
    <contour>
      <point x="407.151" y="1281.81" type="curve" smooth="yes"/>
      <point x="386.374" y="1335.52"/>
      <point x="281.743" y="1356.61"/>
      <point x="240.518" y="1315.38" type="curve" smooth="yes"/>
      <point x="197.032" y="1271.89"/>
      <point x="217.017" y="1175.48"/>
      <point x="274.092" y="1153.4" type="curve" smooth="yes"/>
      <point x="344.597" y="1126.13"/>
      <point x="433.996" y="1212.4"/>
    </contour>
  </outline>
</glyph>
<glyph name="bn_a" format="2">
  <advance height="1000" width="1701"/>
  <unicode hex="0985"/>
  <outline>
    <contour>
      <point x="186.81640625" y="1486.52148438" type="curve" smooth="yes"/>
      <point x="1668.83789062" y="1426.78808594" type="line" smooth="yes"/>
      <point x="1698.49707031" y="1404.51855469"/>
      <point x="1708.22529984" y="1309.13097947"/>
      <point x="1686.19140625" y="1256.63867188" type="curve" smooth="yes"/>
      <point x="1679.97460938" y="1241.828125"/>
      <point x="1645.01456683" y="1220.43679195"/>
      <point x="1609.27929688" y="1209.57617188" type="curve" smooth="yes"/>
      <point x="1543.76464844" y="1189.66503906"/>
      <point x="1543.76464844" y="1189.66503906"/>
      <point x="1529.43066406" y="1044.85644531" type="curve" smooth="yes"/>
      <point x="1510.59277344" y="355.208007812" type="line" smooth="yes"/>
      <point x="1498.796875" y="293.665039062"/>
      <point x="1501.30164136" y="289.39005515"/>
      <point x="1555.67675781" y="278.278320312" type="curve" smooth="yes"/>
      <point x="1587.44140625" y="271.787109375"/>
      <point x="1637.27843182" y="243.386796485"/>
      <point x="1666.85253906" y="214.924804688" type="curve" smooth="yes"/>
      <point x="1710.01367188" y="173.38671875"/>
      <point x="1719.29571906" y="149.76173408"/>
      <point x="1714.5" y="93.6484375" type="curve" smooth="yes"/>
      <point x="1709.24023438" y="32.10546875"/>
      <point x="1702.04689332" y="23.3250078132"/>
      <point x="1652.95605469" y="18.529296875" type="curve" smooth="yes"/>
      <point x="1613.25" y="14.650390625"/>
      <point x="1577.514156" y="28.8724270907"/>
      <point x="1527.8828125" y="68.306640625" type="curve" smooth="yes"/>
      <point x="1490.16210938" y="98.27734375"/>
      <point x="1446.59863281" y="123.515625"/>
      <point x="1432.58789062" y="123.515625" type="curve" smooth="yes"/>
      <point x="1418.39355469" y="123.515625"/>
      <point x="1390.69824219" y="139.805664062"/>
      <point x="1371.04394531" y="159.716796875" type="curve" smooth="yes"/>
      <point x="1351.38964844" y="179.627929688"/>
      <point x="1321.01464844" y="195.918945312"/>
      <point x="1303.54394531" y="195.918945312" type="curve" smooth="yes"/>
      <point x="1286.21777344" y="195.918945312"/>
      <point x="1232.07395225" y="220.60368129"/>
      <point x="1184.42675781" y="250.22265625" type="curve" smooth="yes"/>
      <point x="1136.77929688" y="279.841796875"/>
      <point x="1085.79296875" y="304.525390625"/>
      <point x="1072.2578125" y="304.525390625" type="curve" smooth="yes"/>
      <point x="1058.1953125" y="304.525390625"/>
      <point x="1021.63276004" y="324.13469658"/>
      <point x="987.8828125" y="349.77734375" type="curve" smooth="yes"/>
      <point x="935.602539062" y="389.499023437"/>
      <point x="906.485313392" y="395.914097164"/>
      <point x="749.647460938" y="402.270507812" type="curve" smooth="yes"/>
      <point x="648.397460938" y="406.374023438"/>
      <point x="546.022504068" y="420.884860235"/>
      <point x="513.397460938" y="435.7578125" type="curve" smooth="yes"/>
      <point x="376.412109375" y="498.206054687"/>
      <point x="156.156438002" y="591.595381524"/>
      <point x="124.279296875" y="600.745117188" type="curve" smooth="yes"/>
      <point x="105.529296875" y="606.126953125"/>
      <point x="71.5586385651" y="646.634789109"/>
      <point x="47.845703125" y="691.88671875" type="curve" smooth="yes"/>
      <point x="7.05859375" y="769.721679688"/>
      <point x="6.65875757262" y="775.432919402"/>
      <point x="38.8564453125" y="820.404296875" type="curve" smooth="yes"/>
      <point x="81.044921875" y="879.330078125"/>
      <point x="133.905403335" y="869.276501023"/>
      <point x="219.694335938" y="786.01171875" type="curve" smooth="yes"/>
      <point x="331.646484375" y="677.353515625"/>
      <point x="380.383035913" y="659.884457714"/>
      <point x="688.102539062" y="618.096679688" type="curve" smooth="yes"/>
      <point x="771.485351562" y="606.7734375"/>
      <point x="936.112438312" y="664.370061356"/>
      <point x="955.928710938" y="711.797851562" type="curve" smooth="yes"/>
      <point x="962.651367188" y="727.887695312"/>
      <point x="953.912597506" y="755.240710273"/>
      <point x="936.264648438" y="773.341796875" type="curve" smooth="yes"/>
      <point x="918.6171875" y="791.442382812"/>
      <point x="904.5" y="813.967773438"/>
      <point x="904.5" y="824.024414062" type="curve" smooth="yes"/>
      <point x="904.5" y="833.737304688"/>
      <point x="885.64012992" y="857.644139861"/>
      <point x="863.801757812" y="875.612304688" type="curve" smooth="yes"/>
      <point x="826.573242188" y="906.243164062"/>
      <point x="812.183836996" y="907.091449757"/>
      <point x="695.051757812" y="885.567382812" type="curve" smooth="yes"/>
      <point x="625.56640625" y="872.798828125"/>
      <point x="553.379704624" y="866.718231657"/>
      <point x="537.220703125" y="872.2734375" type="curve" smooth="yes"/>
      <point x="499.5" y="885.241210937"/>
      <point x="499.500526007" y="944.528606848"/>
      <point x="537.220703125" y="973.283203125" type="curve" smooth="yes"/>
      <point x="556.453125" y="987.944335938"/>
      <point x="567.0" y="1026.75585938"/>
      <point x="567.0" y="1082.86914062" type="curve" smooth="yes"/>
      <point x="567.0" y="1194.07421875"/>
      <point x="529.279390109" y="1217.92594367"/>
      <point x="380.3828125" y="1200.875" type="curve" smooth="yes"/>
      <point x="269.206054688" y="1188.14355469"/>
      <point x="96.9598192848" y="1214.6579911"/>
      <point x="38.912109375" y="1253.43945312" type="curve" smooth="yes"/>
      <point x="-9.5859375" y="1285.84082031"/>
      <point x="-9.66741882532" y="1394.20550968"/>
      <point x="38.7685546875" y="1443.07910156" type="curve" smooth="yes"/>
      <point x="64.1689453125" y="1468.70898438"/>
      <point x="107.404301253" y="1481.39543999"/>
    </contour>
    <contour>
      <point x="1220.16210938" y="1229.87304688" type="line" smooth="yes"/>
      <point x="1075.23531965" y="1242.7017879"/>
      <point x="875.545934069" y="1244.31424063"/>
      <point x="809.206054688" y="1233.19042969" type="curve" smooth="yes"/>
      <point x="771.909179688" y="1226.93652344"/>
      <point x="765.529296875" y="1214.10058594"/>
      <point x="765.529296875" y="1145.31738281" type="curve" smooth="yes"/>
      <point x="765.529296875" y="1065.67285156"/>
      <point x="766.33203125" y="1064.76757812"/>
      <point x="837.0" y="1064.76757812" type="curve" smooth="yes"/>
      <point x="920.508789062" y="1064.76757812"/>
      <point x="968.028434602" y="1043.09955885"/>
      <point x="1067.29394531" y="959.763671875" type="curve" smooth="yes"/>
      <point x="1135.48144531" y="902.518554688"/>
      <point x="1142.73535156" y="887.377929688"/>
      <point x="1142.73535156" y="802.302734375" type="curve" smooth="yes"/>
      <point x="1142.73535156" y="713.608398438"/>
      <point x="1104.28334471" y="608.378658393"/>
      <point x="1063.32324219" y="584.981445312" type="curve" smooth="yes"/>
      <point x="1021.93359375" y="561.338867188"/>
      <point x="1046.33926198" y="509.072901061"/>
      <point x="1108.98535156" y="479.713867188" type="curve" smooth="yes"/>
      <point x="1274.96728547" y="407.736067854"/>
      <point x="1301.41948532" y="403.377900842"/>
      <point x="1350.0" y="440.0" type="curve"/>
      <point x="1365.22070312" y="1218.62597656" type="line"/>
    </contour>
  </outline>
</glyph>
<glyph name="bn_aa" format="2">
  <advance height="1000" width="2169"/>
  <unicode hex="0986"/>
  <outline>
    <contour>
      <point x="1220.16210938" y="1229.87304688" type="line" smooth="yes"/>
      <point x="1075.23531965" y="1242.7017879"/>
      <point x="875.545934069" y="1244.31424063"/>
      <point x="809.206054688" y="1233.19042969" type="curve" smooth="yes"/>
      <point x="771.909179688" y="1226.93652344"/>
      <point x="765.529296875" y="1214.10058594"/>
      <point x="765.529296875" y="1145.31738281" type="curve" smooth="yes"/>
      <point x="765.529296875" y="1065.67285156"/>
      <point x="766.33203125" y="1064.76757812"/>
      <point x="837.0" y="1064.76757812" type="curve" smooth="yes"/>
      <point x="920.508789062" y="1064.76757812"/>
      <point x="968.028434602" y="1043.09955885"/>
      <point x="1067.29394531" y="959.763671875" type="curve" smooth="yes"/>
      <point x="1135.48144531" y="902.518554688"/>
      <point x="1142.73535156" y="887.377929688"/>
      <point x="1142.73535156" y="802.302734375" type="curve" smooth="yes"/>
      <point x="1142.73535156" y="713.608398438"/>
      <point x="1104.28334471" y="608.378658393"/>
      <point x="1063.32324219" y="584.981445312" type="curve" smooth="yes"/>
      <point x="1021.93359375" y="561.338867188"/>
      <point x="1046.33926198" y="509.072901061"/>
      <point x="1108.98535156" y="479.713867188" type="curve" smooth="yes"/>
      <point x="1274.96728547" y="407.736067854"/>
      <point x="1301.41948532" y="403.377900842"/>
      <point x="1350.0" y="440.0" type="curve"/>
      <point x="1365.22070312" y="1218.62597656" type="line"/>
    </contour>
    <contour>
      <point x="186.81640625" y="1486.52148438" type="curve"/>
      <point x="1668.83789062" y="1426.78808594" type="line"/>
      <point x="1677.79676889" y="1420.06133147"/>
      <point x="1684.93713167" y="1406.66322947"/>
      <point x="1689.93290861" y="1389.79113838" type="curve"/>
      <point x="1720.05489247" y="1385.46923531"/>
      <point x="1753.91558424" y="1376.73279926"/>
      <point x="1778.375" y="1366.36621094" type="curve" smooth="yes"/>
      <point x="1813.375" y="1351.53222656"/>
      <point x="1851.19726562" y="1340.03613281"/>
      <point x="1865.0" y="1340.03613281" type="curve" smooth="yes"/>
      <point x="1896.9921875" y="1340.03613281"/>
      <point x="1896.0625" y="1429.55859375"/>
      <point x="1863.25" y="1508.54980469" type="curve" smooth="yes"/>
      <point x="1848.66699219" y="1543.65722656"/>
      <point x="1841.66699219" y="1590.46679688"/>
      <point x="1847.5" y="1613.87109375" type="curve" smooth="yes"/>
      <point x="1855.46582031" y="1645.83105469"/>
      <point x="1870.25" y="1656.0"/>
      <point x="1908.75" y="1656.0" type="curve" smooth="yes"/>
      <point x="1970.29882812" y="1656.0"/>
      <point x="1987.30175781" y="1620.89257812"/>
      <point x="2013.31738281" y="1440.09082031" type="curve" smooth="yes"/>
      <point x="2023.16796875" y="1371.63183594"/>
      <point x="2040.71484375" y="1309.13183594"/>
      <point x="2052.25" y="1301.41796875" type="curve" smooth="yes"/>
      <point x="2068.0" y="1290.88574219"/>
      <point x="2068.0" y="1287.375"/>
      <point x="2052.25" y="1287.375" type="curve" smooth="yes"/>
      <point x="2024.80957031" y="1287.375"/>
      <point x="2023.02539062" y="1166.25488281"/>
      <point x="2049.01660156" y="1067.95507812" type="curve" smooth="yes"/>
      <point x="2068.53515625" y="994.134765625"/>
      <point x="2090.98339844" y="476.400390625"/>
      <point x="2086.46289062" y="204.319335938" type="curve" smooth="yes"/>
      <point x="2083.34179688" y="16.49609375"/>
      <point x="2053.0625" y="-64.25"/>
      <point x="1985.75" y="-64.25" type="curve" smooth="yes"/>
      <point x="1934.23046875" y="-64.25"/>
      <point x="1927.83203125" y="-46.6962890625"/>
      <point x="1905.77734375" y="155.169921875" type="curve" smooth="yes"/>
      <point x="1893.50390625" y="267.512695312"/>
      <point x="1893.33496094" y="363.870117188"/>
      <point x="1905.25" y="457.090820312" type="curve" smooth="yes"/>
      <point x="1914.87792969" y="532.420898438"/>
      <point x="1923.14355469" y="700.208007812"/>
      <point x="1923.625" y="830.104492188" type="curve" smooth="yes"/>
      <point x="1924.34082031" y="1023.19335938"/>
      <point x="1919.24023438" y="1071.95507812"/>
      <point x="1895.625" y="1097.796875" type="curve" smooth="yes"/>
      <point x="1879.58300781" y="1115.34960938"/>
      <point x="1861.30566406" y="1125.4921875"/>
      <point x="1854.5" y="1120.61621094" type="curve" smooth="yes"/>
      <point x="1847.76269531" y="1115.7890625"/>
      <point x="1828.07519531" y="1127.63769531"/>
      <point x="1810.75" y="1146.94628906" type="curve" smooth="yes"/>
      <point x="1793.95019531" y="1165.66992188"/>
      <point x="1760.875" y="1182.05371094"/>
      <point x="1739.875" y="1182.05371094" type="curve" smooth="yes"/>
      <point x="1718.28222656" y="1182.05371094"/>
      <point x="1676.0" y="1187.20605469"/>
      <point x="1646.25" y="1193.46386719" type="curve" smooth="yes"/>
      <point x="1625.81039912" y="1197.7627172"/>
      <point x="1613.06535007" y="1200.83876798"/>
      <point x="1605.12077192" y="1208.3108983" type="curve"/>
      <point x="1543.75794737" y="1189.59734176"/>
      <point x="1543.45472428" y="1186.53404072"/>
      <point x="1529.43066406" y="1044.85644531" type="curve"/>
      <point x="1510.59277344" y="355.208007812" type="line"/>
      <point x="1498.796875" y="293.665039062"/>
      <point x="1501.30164136" y="289.39005515"/>
      <point x="1555.67675781" y="278.278320312" type="curve" smooth="yes"/>
      <point x="1587.44140625" y="271.787109375"/>
      <point x="1637.27843182" y="243.386796485"/>
      <point x="1666.85253906" y="214.924804688" type="curve" smooth="yes"/>
      <point x="1710.01367188" y="173.38671875"/>
      <point x="1719.29571906" y="149.76173408"/>
      <point x="1714.5" y="93.6484375" type="curve" smooth="yes"/>
      <point x="1709.24023438" y="32.10546875"/>
      <point x="1702.04689332" y="23.3250078132"/>
      <point x="1652.95605469" y="18.529296875" type="curve" smooth="yes"/>
      <point x="1613.25" y="14.650390625"/>
      <point x="1577.514156" y="28.8724270907"/>
      <point x="1527.8828125" y="68.306640625" type="curve" smooth="yes"/>
      <point x="1490.16210938" y="98.27734375"/>
      <point x="1446.59863281" y="123.515625"/>
      <point x="1432.58789062" y="123.515625" type="curve" smooth="yes"/>
      <point x="1418.39355469" y="123.515625"/>
      <point x="1390.69824219" y="139.805664062"/>
      <point x="1371.04394531" y="159.716796875" type="curve" smooth="yes"/>
      <point x="1351.38964844" y="179.627929688"/>
      <point x="1321.01464844" y="195.918945312"/>
      <point x="1303.54394531" y="195.918945312" type="curve" smooth="yes"/>
      <point x="1286.21777344" y="195.918945312"/>
      <point x="1232.07395225" y="220.60368129"/>
      <point x="1184.42675781" y="250.22265625" type="curve" smooth="yes"/>
      <point x="1136.77929688" y="279.841796875"/>
      <point x="1085.79296875" y="304.525390625"/>
      <point x="1072.2578125" y="304.525390625" type="curve" smooth="yes"/>
      <point x="1058.1953125" y="304.525390625"/>
      <point x="1021.63276004" y="324.13469658"/>
      <point x="987.8828125" y="349.77734375" type="curve" smooth="yes"/>
      <point x="935.602539062" y="389.499023437"/>
      <point x="906.485313392" y="395.914097164"/>
      <point x="749.647460938" y="402.270507812" type="curve" smooth="yes"/>
      <point x="648.397460938" y="406.374023438"/>
      <point x="546.022504068" y="420.884860235"/>
      <point x="513.397460938" y="435.7578125" type="curve" smooth="yes"/>
      <point x="376.412109375" y="498.206054687"/>
      <point x="156.156438002" y="591.595381524"/>
      <point x="124.279296875" y="600.745117188" type="curve" smooth="yes"/>
      <point x="105.529296875" y="606.126953125"/>
      <point x="71.5586385651" y="646.634789109"/>
      <point x="47.845703125" y="691.88671875" type="curve" smooth="yes"/>
      <point x="7.05859375" y="769.721679688"/>
      <point x="6.65875757262" y="775.432919402"/>
      <point x="38.8564453125" y="820.404296875" type="curve" smooth="yes"/>
      <point x="81.044921875" y="879.330078125"/>
      <point x="133.905403335" y="869.276501023"/>
      <point x="219.694335938" y="786.01171875" type="curve" smooth="yes"/>
      <point x="331.646484375" y="677.353515625"/>
      <point x="380.383035913" y="659.884457714"/>
      <point x="688.102539062" y="618.096679688" type="curve" smooth="yes"/>
      <point x="771.485351562" y="606.7734375"/>
      <point x="936.112438312" y="664.370061356"/>
      <point x="955.928710938" y="711.797851562" type="curve" smooth="yes"/>
      <point x="962.651367188" y="727.887695312"/>
      <point x="953.912597506" y="755.240710273"/>
      <point x="936.264648438" y="773.341796875" type="curve" smooth="yes"/>
      <point x="918.6171875" y="791.442382812"/>
      <point x="904.5" y="813.967773438"/>
      <point x="904.5" y="824.024414062" type="curve" smooth="yes"/>
      <point x="904.5" y="833.737304688"/>
      <point x="885.64012992" y="857.644139861"/>
      <point x="863.801757812" y="875.612304688" type="curve" smooth="yes"/>
      <point x="826.573242188" y="906.243164062"/>
      <point x="812.183836996" y="907.091449757"/>
      <point x="695.051757812" y="885.567382812" type="curve" smooth="yes"/>
      <point x="625.56640625" y="872.798828125"/>
      <point x="553.379704624" y="866.718231657"/>
      <point x="537.220703125" y="872.2734375" type="curve" smooth="yes"/>
      <point x="499.5" y="885.241210937"/>
      <point x="499.500526007" y="944.528606848"/>
      <point x="537.220703125" y="973.283203125" type="curve" smooth="yes"/>
      <point x="556.453125" y="987.944335938"/>
      <point x="567.0" y="1026.75585938"/>
      <point x="567.0" y="1082.86914062" type="curve" smooth="yes"/>
      <point x="567.0" y="1194.07421875"/>
      <point x="529.279390109" y="1217.92594367"/>
      <point x="380.3828125" y="1200.875" type="curve" smooth="yes"/>
      <point x="269.206054688" y="1188.14355469"/>
      <point x="96.9598192848" y="1214.6579911"/>
      <point x="38.912109375" y="1253.43945312" type="curve" smooth="yes"/>
      <point x="-9.5859375" y="1285.84082031"/>
      <point x="-9.66741882532" y="1394.20550968"/>
      <point x="38.7685546875" y="1443.07910156" type="curve" smooth="yes"/>
      <point x="64.1689453125" y="1468.70898438"/>
      <point x="107.404301253" y="1481.39543999"/>
    </contour>
  </outline>
</glyph>
<glyph name="bn_i" format="2">
  <advance height="1000" width="1245"/>
  <unicode hex="0987"/>
  <outline>
    <contour>
      <point x="152.362304688" y="1924.59277344" type="curve" smooth="yes"/>
      <point x="172.477806367" y="1966.51505859"/>
      <point x="192.889499075" y="1981.75976562"/>
      <point x="228.905273438" y="1981.75976562" type="curve" smooth="yes"/>
      <point x="294.963867188" y="1981.75976562"/>
      <point x="318.360351562" y="1949.36486028"/>
      <point x="318.360351562" y="1857.89746094" type="curve" smooth="yes"/>
      <point x="318.360351562" y="1779.76953125" type="line"/>
      <point x="420.969726562" y="1754.99707031" type="line" smooth="yes"/>
      <point x="477.452524315" y="1741.36035435"/>
      <point x="609.527506115" y="1727.7117739"/>
      <point x="714.768554688" y="1724.63574219" type="curve" smooth="yes"/>
      <point x="895.433067331" y="1719.35529503"/>
      <point x="924.035533466" y="1714.74681417"/>
      <point x="1011.19824219" y="1676.86914062" type="curve" smooth="yes"/>
      <point x="1030.49302029" y="1668.48450721"/>
      <point x="1058.90804116" y="1657.33681428"/>
      <point x="1074.34375" y="1652.09667969" type="curve" smooth="yes"/>
      <point x="1089.76307754" y="1646.86191937"/>
      <point x="1113.07687299" y="1603.50582262"/>
      <point x="1126.08691406" y="1555.86621094" type="curve" smooth="yes"/>
      <point x="1141.69897341" y="1498.69919705"/>
      <point x="1163.50937989" y="1462.43590038"/>
      <point x="1190.10839844" y="1449.41601562" type="curve" smooth="yes"/>
      <point x="1239.22080078" y="1425.37620205"/>
      <point x="1246.44318811" y="1333.84753099"/>
      <point x="1202.38671875" y="1293.81640625" type="curve" smooth="yes"/>
      <point x="1161.87883938" y="1257.01000255"/>
      <point x="890.171274649" y="1239.42451431"/>
      <point x="688.458984375" y="1260.55371094" type="curve" smooth="yes"/>
      <point x="511.302246094" y="1279.11101561"/>
      <point x="483.486474155" y="1268.58275199"/>
      <point x="504.556640625" y="1190.95019531" type="curve" smooth="yes"/>
      <point x="519.817980915" y="1134.72024155"/>
      <point x="521.826292998" y="1133.65249748"/>
      <point x="627.068359375" y="1125.8125" type="curve" smooth="yes"/>
      <point x="663.902405428" y="1123.06855217"/>
      <point x="827.202810516" y="949.244040668"/>
      <point x="827.026367188" y="912.737304688" type="curve" smooth="yes"/>
      <point x="827.01127869" y="909.615435269"/>
      <point x="878.132697162" y="783.615660522"/>
      <point x="859.8515625" y="748.859375" type="curve" smooth="yes"/>
      <point x="838.803515625" y="708.842717252"/>
      <point x="808.031173201" y="646.611233786"/>
      <point x="791.068359375" y="609.752929688" type="curve" smooth="yes"/>
      <point x="773.849756194" y="572.338923953"/>
      <point x="728.801125541" y="510.012863295"/>
      <point x="688.458984375" y="467.7890625" type="curve" smooth="yes"/>
      <point x="648.116144244" y="425.564401134"/>
      <point x="616.543945312" y="381.64344077"/>
      <point x="616.543945312" y="367.74609375" type="curve" smooth="yes"/>
      <point x="616.543945312" y="333.446877663"/>
      <point x="686.704293996" y="266.668015889"/>
      <point x="756.865234375" y="234.19140625" type="curve" smooth="yes"/>
      <point x="790.531583692" y="218.607555905"/>
      <point x="867.36873087" y="180.817312079"/>
      <point x="927.004882812" y="150.512695312" type="curve" smooth="yes"/>
      <point x="986.641495652" y="120.207740044"/>
      <point x="1042.88376191" y="95.2509765625"/>
      <point x="1051.54101562" y="95.2509765625" type="curve" smooth="yes"/>
      <point x="1060.22378418" y="95.2509765625"/>
      <point x="1081.53423466" y="78.1003592343"/>
      <point x="1098.89941406" y="57.1396484375" type="curve" smooth="yes"/>
      <point x="1116.26484375" y="36.1790429669"/>
      <point x="1138.36494141" y="19.029296875"/>
      <point x="1148.01269531" y="19.029296875" type="curve" smooth="yes"/>
      <point x="1184.50211642" y="19.029296875"/>
      <point x="1230.45117188" y="-45.7604284071"/>
      <point x="1230.45117188" y="-97.2109375" type="curve" smooth="yes"/>
      <point x="1230.45117188" y="-173.385616398"/>
      <point x="1190.10914321" y="-178.830556381"/>
      <point x="1095.39160156" y="-115.443359375" type="curve" smooth="yes"/>
      <point x="1048.24336719" y="-83.8911964103"/>
      <point x="972.609890278" y="-48.6177684932"/>
      <point x="923.497070312" y="-35.279296875" type="curve" smooth="yes"/>
      <point x="874.384667969" y="-21.9411535012"/>
      <point x="824.219324236" y="-1.15700649317"/>
      <point x="809.485351562" y="11.95703125" type="curve" smooth="yes"/>
      <point x="774.4046875" y="43.1810417528"/>
      <point x="397.0234375" y="247.696289062"/>
      <point x="374.48828125" y="247.696289062" type="curve" smooth="yes"/>
      <point x="364.743884816" y="247.696289062"/>
      <point x="307.835621629" y="277.620376101"/>
      <point x="246.4453125" y="315.026367188" type="curve" smooth="yes"/>
      <point x="128.925693728" y="386.631535912"/>
      <point x="41.8667078446" y="467.53006833"/>
      <point x="60.5185546875" y="487.796875" type="curve" smooth="yes"/>
      <point x="66.344831084" y="494.127636719"/>
      <point x="140.32685641" y="505.609618461"/>
      <point x="226.2734375" y="513.522460938" type="curve" smooth="yes"/>
      <point x="359.579059278" y="525.795598748"/>
      <point x="395.625894844" y="536.96449474"/>
      <point x="481.484375" y="592.603515625" type="curve" smooth="yes"/>
      <point x="576.200909745" y="653.982725726"/>
      <point x="577.974638906" y="661.607031018"/>
      <point x="581.462890625" y="730.756835938" type="curve" smooth="yes"/>
      <point x="586.354492188" y="827.715820312" type="line"/>
      <point x="516.563476562" y="792.047851562" type="line" smooth="yes"/>
      <point x="356.978857426" y="710.51419881"/>
      <point x="322.221383872" y="758.73506124"/>
      <point x="276.262695312" y="791.416992188" type="curve" smooth="yes"/>
      <point x="235.92009975" y="820.114086315"/>
      <point x="178.038085938" y="909.573328781"/>
      <point x="178.038085938" y="943.2265625" type="curve" smooth="yes"/>
      <point x="178.038085938" y="964.138494319"/>
      <point x="290.295345475" y="1067.08886719"/>
      <point x="313.09765625" y="1067.08886719" type="curve" smooth="yes"/>
      <point x="351.95301496" y="1067.08886719"/>
      <point x="337.354295722" y="1149.02763206"/>
      <point x="288.653320312" y="1204.2890625" type="curve" smooth="yes"/>
      <point x="239.951200895" y="1259.55123698"/>
      <point x="140.471743777" y="1279.43551277"/>
      <point x="117.049804688" y="1238.58984375" type="curve" smooth="yes"/>
      <point x="111.123386018" y="1228.25473219"/>
      <point x="82.4440196247" y="1219.53417969"/>
      <point x="54.3798828125" y="1219.53417969" type="curve" smooth="yes"/>
      <point x="4.26963815716" y="1219.53417969"/>
      <point x="2.6357421875" y="1222.39236739"/>
      <point x="2.6357421875" y="1310.04785156" type="curve" smooth="yes"/>
      <point x="2.6357421875" y="1359.5926345"/>
      <point x="9.77159401555" y="1412.63713376"/>
      <point x="18.400390625" y="1427.24023438" type="curve" smooth="yes"/>
      <point x="33.9552734375" y="1453.56454367"/>
      <point x="228.903322981" y="1464.40579701"/>
      <point x="263.984375" y="1440.89941406" type="curve" smooth="yes"/>
      <point x="273.669934343" y="1434.40986562"/>
      <point x="409.568352661" y="1427.68224839"/>
      <point x="567.430664062" y="1425.87695312" type="curve" smooth="yes"/>
      <point x="865.614330192" y="1422.46682961"/>
      <point x="951.387648058" y="1440.09694913"/>
      <point x="963.454101562" y="1507.2734375" type="curve" smooth="yes"/>
      <point x="970.712972815" y="1547.68587386"/>
      <point x="853.336159081" y="1583.74742056"/>
      <point x="688.458984375" y="1591.76074219" type="curve" smooth="yes"/>
      <point x="432.370842438" y="1604.2068671"/>
      <point x="269.799202799" y="1645.67066106"/>
      <point x="186.807617188" y="1719.70507812" type="curve" smooth="yes"/>
      <point x="118.539243699" y="1780.60730307"/>
      <point x="109.389105912" y="1835.03153837"/>
    </contour>
  </outline>
</glyph>
<glyph name="bn_ii" format="2">
  <advance height="1000" width="1443"/>
  <unicode hex="0988"/>
  <outline>
    <contour>
      <point x="275.171875" y="1855.76953125" type="curve" smooth="yes"/>
      <point x="305.640625" y="1887.58886719"/>
      <point x="407.327148438" y="1882.72753906"/>
      <point x="441.258789062" y="1847.83007812" type="curve" smooth="yes"/>
      <point x="459.345703125" y="1829.22753906"/>
      <point x="468.370117188" y="1798.88769531"/>
      <point x="463.58203125" y="1772.77734375" type="curve" smooth="yes"/>
      <point x="458.110351562" y="1742.9375"/>
      <point x="464.665039062" y="1726.16015625"/>
      <point x="484.120117188" y="1720.20898438" type="curve" smooth="yes"/>
      <point x="560.237304688" y="1696.92382812"/>
      <point x="760.931640625" y="1673.984375"/>
      <point x="896.659179688" y="1673.0546875" type="curve" smooth="yes"/>
      <point x="1110.96484375" y="1671.58789062"/>
      <point x="1193.12792969" y="1651.35644531"/>
      <point x="1245.296875" y="1587.20996094" type="curve" smooth="yes"/>
      <point x="1268.04882812" y="1559.23535156"/>
      <point x="1290.25488281" y="1517.671875"/>
      <point x="1293.125" y="1497.69042969" type="curve" smooth="yes"/>
      <point x="1296.58691406" y="1473.58886719"/>
      <point x="1319.01953125" y="1454.78027344"/>
      <point x="1356.5234375" y="1444.53710938" type="curve" smooth="yes"/>
      <point x="1412.9375" y="1429.12988281"/>
      <point x="1414.56445312" y="1425.88769531"/>
      <point x="1414.56445312" y="1328.90722656" type="curve" smooth="yes"/>
      <point x="1414.56445312" y="1256.17285156"/>
      <point x="1406.8203125" y="1226.11425781"/>
      <point x="1385.99023438" y="1218.00292969" type="curve" smooth="yes"/>
      <point x="730.571289062" y="1222.77832031" type="line" smooth="yes"/>
      <point x="625.205078125" y="1222.16699219"/>
      <point x="539.482421875" y="1214.9765625"/>
      <point x="539.482421875" y="1206.75" type="curve" smooth="yes"/>
      <point x="539.482421875" y="1179.34570312"/>
      <point x="594.844726562" y="1132.15039062"/>
      <point x="626.990234375" y="1132.15039062" type="curve" smooth="yes"/>
      <point x="644.849609375" y="1132.15039062"/>
      <point x="687.7109375" y="1109.04785156"/>
      <point x="723.428710938" y="1080.17089844" type="curve" smooth="yes"/>
      <point x="786.900390625" y="1028.85351562"/>
      <point x="819.228515625" y="938.190429688"/>
      <point x="809.30078125" y="839.344726562" type="curve" smooth="yes"/>
      <point x="802.556640625" y="772.205078125"/>
      <point x="837.724609375" y="772.205078125"/>
      <point x="902.016601562" y="839.344726562" type="curve" smooth="yes"/>
      <point x="1005.59765625" y="947.514648438"/>
      <point x="1047.61523438" y="968.701171875"/>
      <point x="1118.10839844" y="948.301757812" type="curve" smooth="yes"/>
      <point x="1267.60936977" y="905.038295348"/>
      <point x="1325.05714471" y="776.555242579"/>
      <point x="1229.015625" y="598.759765625" type="curve" smooth="yes"/>
      <point x="1102.10351562" y="248.139648438" type="line" smooth="yes"/>
      <point x="1143.87890625" y="84.01953125"/>
      <point x="1178.59765625" y="6.158203125"/>
      <point x="1221.68945312" y="-20.05078125" type="curve" smooth="yes"/>
      <point x="1284.1953125" y="-58.068359375"/>
      <point x="1299.359375" y="-100.760742188"/>
      <point x="1260.97851562" y="-130.662109375" type="curve" smooth="yes"/>
      <point x="1222.37890625" y="-160.735351562"/>
      <point x="1187.7578125" y="-161.419921875"/>
      <point x="1109.17871094" y="-133.6640625" type="curve" smooth="yes"/>
      <point x="991.840820312" y="-92.2177734375"/>
      <point x="968.09375" y="-52.125"/>
      <point x="968.09375" y="104.53515625" type="curve" smooth="yes"/>
      <point x="968.09375" y="248.90625"/>
      <point x="989.049804688" y="345.120117188"/>
      <point x="1055.02246094" y="503.64453125" type="curve" smooth="yes"/>
      <point x="1100.03808594" y="611.815429688"/>
      <point x="1106.09277344" y="755.104492188"/>
      <point x="1066.31738281" y="770.9765625" type="curve" smooth="yes"/>
      <point x="1035.95800781" y="783.091796875"/>
      <point x="932.376953125" y="745.100585938"/>
      <point x="932.376953125" y="721.849609375" type="curve" smooth="yes"/>
      <point x="932.376953125" y="713.473632812"/>
      <point x="913.969726562" y="683.6171875"/>
      <point x="890.408203125" y="653.77734375" type="curve" smooth="yes"/>
      <point x="867.393554688" y="624.62890625"/>
      <point x="839.90625" y="574.514648438"/>
      <point x="829.543945312" y="542.809570312" type="curve" smooth="yes"/>
      <point x="803.333007812" y="462.615234375"/>
      <point x="678.255859375" y="259.58203125"/>
      <point x="646.635742188" y="245.90234375" type="curve" smooth="yes"/>
      <point x="633.0625" y="240.030273438"/>
      <point x="593.05859375" y="249.427734375"/>
      <point x="559.126953125" y="266.459960938" type="curve" smooth="yes"/>
      <point x="328.748046875" y="382.100585938"/>
      <point x="295.143554688" y="406.243164062"/>
      <point x="270.520507812" y="473.8046875" type="curve" smooth="yes"/>
      <point x="175.585444973" y="734.297770271"/>
      <point x="323.798558209" y="554.0"/>
      <point x="460.903320312" y="554.0" type="curve" smooth="yes"/>
      <point x="562.475585938" y="554.0"/>
      <point x="619.37890625" y="611.815429688"/>
      <point x="637.12109375" y="733.040039062" type="curve" smooth="yes"/>
      <point x="657.592773438" y="872.915039062"/>
      <point x="586.9765625" y="912.75"/>
      <point x="475.190429688" y="824.385742188" type="curve" smooth="yes"/>
      <point x="443.044921875" y="798.975585938"/>
      <point x="398.397460938" y="777.799804688"/>
      <point x="376.966796875" y="777.799804688" type="curve" smooth="yes"/>
      <point x="261.721679688" y="846.8046875" type="line" smooth="yes"/>
      <point x="253.415039062" y="984.815429688"/>
      <point x="263.163085938" y="1015.09472656"/>
      <point x="326.961914062" y="1049.44921875" type="curve" smooth="yes"/>
      <point x="384.110351562" y="1080.22167969"/>
      <point x="397.567382812" y="1132.15039062"/>
      <point x="348.392578125" y="1132.15039062" type="curve" smooth="yes"/>
      <point x="330.391601562" y="1132.15039062"/>
      <point x="286.780273438" y="1148.56152344"/>
      <point x="249.276367188" y="1169.45019531" type="curve" smooth="yes"/>
      <point x="211.772460938" y="1190.33789062"/>
      <point x="156.375" y="1206.75"/>
      <point x="123.372070312" y="1206.75" type="curve" smooth="yes"/>
      <point x="9.0751953125" y="1206.75"/>
      <point x="-59.0908203125" y="1313.1328125"/>
      <point x="14.4326171875" y="1376.76367188" type="curve" smooth="yes"/>
      <point x="49.6005859375" y="1407.19921875"/>
      <point x="648.420898438" y="1415.95605469"/>
      <point x="843.08203125" y="1388.88085938" type="curve" smooth="yes"/>
      <point x="907.374023438" y="1379.93847656"/>
      <point x="993.02734375" y="1377.72753906"/>
      <point x="1035.06445312" y="1383.92480469" type="curve" smooth="yes"/>
      <point x="1101.14257812" y="1393.66699219"/>
      <point x="1110.96484375" y="1401.1484375"/>
      <point x="1110.96484375" y="1441.74023438" type="curve" smooth="yes"/>
      <point x="1110.96484375" y="1509.62597656"/>
      <point x="1030.59960938" y="1537.24804688"/>
      <point x="798.435546875" y="1549.15722656" type="curve" smooth="yes"/>
      <point x="678.78125" y="1555.29589844"/>
      <point x="560.1015625" y="1573.45117188"/>
      <point x="494.834960938" y="1595.60253906" type="curve" smooth="yes"/>
      <point x="435.901367188" y="1615.60449219"/>
      <point x="366.787109375" y="1636.94921875"/>
      <point x="341.249023438" y="1643.03515625" type="curve" smooth="yes"/>
      <point x="268.028320312" y="1660.48339844"/>
      <point x="223.9765625" y="1802.30664062"/>
    </contour>
  </outline>
</glyph>
<glyph name="bn_u" format="2">
  <advance width="1510"/>
  <unicode hex="0989"/>
  <outline>
    <contour>
      <point x="1352" y="212" type="curve" smooth="yes"/>
      <point x="1213" y="124"/>
      <point x="1158" y="91"/>
      <point x="1039" y="91" type="curve" smooth="yes"/>
      <point x="990" y="91"/>
      <point x="931" y="97"/>
      <point x="851" y="106" type="curve" smooth="yes"/>
      <point x="757" y="117"/>
      <point x="629" y="195"/>
      <point x="558" y="239" type="curve" smooth="yes"/>
      <point x="486" y="283"/>
      <point x="408" y="330"/>
      <point x="382" y="344" type="curve" smooth="yes"/>
      <point x="253" y="413"/>
      <point x="-40" y="756"/>
      <point x="-40" y="839" type="curve" smooth="yes"/>
      <point x="-40" y="905"/>
      <point x="-3" y="944"/>
      <point x="38" y="944" type="curve" smooth="yes"/>
      <point x="63" y="944"/>
      <point x="90" y="930"/>
      <point x="112" y="898" type="curve" smooth="yes"/>
      <point x="130" y="872"/>
      <point x="181" y="795"/>
      <point x="226" y="725" type="curve" smooth="yes"/>
      <point x="282" y="639"/>
      <point x="343" y="578"/>
      <point x="416" y="532" type="curve" smooth="yes"/>
      <point x="475" y="495"/>
      <point x="530" y="452"/>
      <point x="539" y="437" type="curve" smooth="yes"/>
      <point x="574" y="380"/>
      <point x="705" y="342"/>
      <point x="871" y="341" type="curve" smooth="yes"/>
      <point x="882" y="341" type="line" smooth="yes"/>
      <point x="1101" y="341"/>
      <point x="1186" y="391"/>
      <point x="1186" y="533" type="curve" smooth="yes"/>
      <point x="1186" y="555"/>
      <point x="1184" y="580"/>
      <point x="1180" y="607" type="curve" smooth="yes"/>
      <point x="1168" y="689"/>
      <point x="1136" y="730"/>
      <point x="1086" y="730" type="curve" smooth="yes"/>
      <point x="1061" y="730"/>
      <point x="1032" y="720"/>
      <point x="998" y="699" type="curve" smooth="yes"/>
      <point x="956" y="673"/>
      <point x="922" y="659"/>
      <point x="890" y="659" type="curve" smooth="yes"/>
      <point x="848" y="659"/>
      <point x="809" y="683"/>
      <point x="757" y="732" type="curve" smooth="yes"/>
      <point x="675" y="810"/>
      <point x="636" y="902"/>
      <point x="636" y="1019" type="curve" smooth="yes"/>
      <point x="636" y="1068"/>
      <point x="621" y="1096"/>
      <point x="576" y="1127" type="curve" smooth="yes"/>
      <point x="543" y="1150"/>
      <point x="509" y="1169"/>
      <point x="499" y="1169" type="curve" smooth="yes"/>
      <point x="462" y="1169"/>
      <point x="332" y="1302"/>
      <point x="309" y="1363" type="curve" smooth="yes"/>
      <point x="300" y="1388"/>
      <point x="295" y="1416"/>
      <point x="295" y="1444" type="curve" smooth="yes"/>
      <point x="295" y="1581"/>
      <point x="397" y="1744"/>
      <point x="525" y="1782" type="curve" smooth="yes"/>
      <point x="562" y="1793"/>
      <point x="583" y="1800"/>
      <point x="599" y="1800" type="curve" smooth="yes"/>
      <point x="620" y="1800"/>
      <point x="630" y="1789"/>
      <point x="656" y="1763" type="curve" smooth="yes"/>
      <point x="681" y="1738"/>
      <point x="694" y="1713"/>
      <point x="694" y="1688" type="curve" smooth="yes"/>
      <point x="694" y="1656"/>
      <point x="673" y="1624"/>
      <point x="630" y="1590" type="curve" smooth="yes"/>
      <point x="593" y="1560"/>
      <point x="553" y="1527"/>
      <point x="538" y="1515" type="curve" smooth="yes"/>
      <point x="519" y="1499"/>
      <point x="510" y="1482"/>
      <point x="510" y="1465" type="curve" smooth="yes"/>
      <point x="510" y="1433"/>
      <point x="541" y="1400"/>
      <point x="599" y="1373" type="curve" smooth="yes"/>
      <point x="660" y="1345"/>
      <point x="726" y="1333"/>
      <point x="787" y="1333" type="curve" smooth="yes"/>
      <point x="916" y="1333"/>
      <point x="1025" y="1389"/>
      <point x="1025" y="1480" type="curve" smooth="yes"/>
      <point x="1025" y="1511"/>
      <point x="1017" y="1537"/>
      <point x="1008" y="1537" type="curve" smooth="yes"/>
      <point x="998" y="1537"/>
      <point x="968" y="1559"/>
      <point x="939" y="1588" type="curve" smooth="yes"/>
      <point x="911" y="1616"/>
      <point x="896" y="1652"/>
      <point x="896" y="1688" type="curve" smooth="yes"/>
      <point x="896" y="1719"/>
      <point x="907" y="1752"/>
      <point x="929" y="1779" type="curve" smooth="yes"/>
      <point x="942" y="1796"/>
      <point x="968" y="1804"/>
      <point x="996" y="1804" type="curve" smooth="yes"/>
      <point x="1032" y="1804"/>
      <point x="1073" y="1790"/>
      <point x="1096" y="1765" type="curve" smooth="yes"/>
      <point x="1117" y="1742"/>
      <point x="1150" y="1718"/>
      <point x="1170" y="1712" type="curve" smooth="yes"/>
      <point x="1230" y="1693"/>
      <point x="1269" y="1582"/>
      <point x="1269" y="1470" type="curve" smooth="yes"/>
      <point x="1269" y="1419"/>
      <point x="1261" y="1367"/>
      <point x="1243" y="1324" type="curve" smooth="yes"/>
      <point x="1207" y="1237"/>
      <point x="1136" y="1189"/>
      <point x="1009" y="1166" type="curve" smooth="yes"/>
      <point x="902" y="1147"/>
      <point x="866" y="1126"/>
      <point x="866" y="1059" type="curve" smooth="yes"/>
      <point x="866" y="1040"/>
      <point x="869" y="1017"/>
      <point x="874" y="990" type="curve" smooth="yes"/>
      <point x="887" y="919"/>
      <point x="890" y="894"/>
      <point x="955" y="894" type="curve" smooth="yes"/>
      <point x="991" y="894"/>
      <point x="1045" y="902"/>
      <point x="1131" y="913" type="curve" smooth="yes"/>
      <point x="1167" y="918"/>
      <point x="1193" y="921"/>
      <point x="1212" y="921" type="curve" smooth="yes"/>
      <point x="1255" y="921"/>
      <point x="1271" y="904"/>
      <point x="1321" y="849" type="curve" smooth="yes"/>
      <point x="1360" y="806"/>
      <point x="1394" y="753"/>
      <point x="1394" y="734" type="curve" smooth="yes"/>
      <point x="1394" y="715"/>
      <point x="1410" y="667"/>
      <point x="1428" y="628" type="curve" smooth="yes"/>
      <point x="1446" y="590"/>
      <point x="1456" y="535"/>
      <point x="1456" y="476" type="curve" smooth="yes"/>
      <point x="1456" y="372"/>
      <point x="1425" y="258"/>
    </contour>
  </outline>
</glyph>
<glyph name="bn_uu" format="2">
  <advance width="1269"/>
  <unicode hex="098A"/>
  <outline>
    <contour>
      <point x="478" y="1729" type="curve" smooth="yes"/>
      <point x="509" y="1739"/>
      <point x="526" y="1744"/>
      <point x="539" y="1744" type="curve" smooth="yes"/>
      <point x="556" y="1744"/>
      <point x="565" y="1735"/>
      <point x="587" y="1713" type="curve" smooth="yes"/>
      <point x="608" y="1692"/>
      <point x="618" y="1671"/>
      <point x="618" y="1651" type="curve" smooth="yes"/>
      <point x="618" y="1624"/>
      <point x="601" y="1598"/>
      <point x="565" y="1569" type="curve" smooth="yes"/>
      <point x="534" y="1544"/>
      <point x="500" y="1517"/>
      <point x="488" y="1507" type="curve" smooth="yes"/>
      <point x="472" y="1494"/>
      <point x="464" y="1480"/>
      <point x="464" y="1465" type="curve" smooth="yes"/>
      <point x="464" y="1438"/>
      <point x="490" y="1410"/>
      <point x="539" y="1388" type="curve" smooth="yes"/>
      <point x="590" y="1365"/>
      <point x="645" y="1355"/>
      <point x="696" y="1355" type="curve" smooth="yes"/>
      <point x="804" y="1355"/>
      <point x="894" y="1402"/>
      <point x="894" y="1477" type="curve" smooth="yes"/>
      <point x="894" y="1503"/>
      <point x="888" y="1525"/>
      <point x="880" y="1525" type="curve" smooth="yes"/>
      <point x="872" y="1525"/>
      <point x="846" y="1544"/>
      <point x="822" y="1568" type="curve" smooth="yes"/>
      <point x="799" y="1591"/>
      <point x="787" y="1621"/>
      <point x="787" y="1651" type="curve" smooth="yes"/>
      <point x="787" y="1677"/>
      <point x="796" y="1703"/>
      <point x="814" y="1726" type="curve" smooth="yes"/>
      <point x="825" y="1740"/>
      <point x="847" y="1747"/>
      <point x="870" y="1747" type="curve" smooth="yes"/>
      <point x="900" y="1747"/>
      <point x="934" y="1735"/>
      <point x="953" y="1714" type="curve" smooth="yes"/>
      <point x="970" y="1695"/>
      <point x="998" y="1675"/>
      <point x="1015" y="1670" type="curve" smooth="yes"/>
      <point x="1066" y="1654"/>
      <point x="1098" y="1562"/>
      <point x="1098" y="1469" type="curve" smooth="yes"/>
      <point x="1098" y="1426"/>
      <point x="1091" y="1383"/>
      <point x="1076" y="1347" type="curve" smooth="yes"/>
      <point x="1046" y="1274"/>
      <point x="986" y="1235"/>
      <point x="880" y="1215" type="curve" smooth="yes"/>
      <point x="791" y="1199"/>
      <point x="761" y="1182"/>
      <point x="761" y="1127" type="curve" smooth="yes"/>
      <point x="761" y="1111"/>
      <point x="764" y="1092"/>
      <point x="768" y="1069" type="curve" smooth="yes"/>
      <point x="779" y="1010"/>
      <point x="782" y="989"/>
      <point x="836" y="989" type="curve" smooth="yes"/>
      <point x="866" y="989"/>
      <point x="911" y="995"/>
      <point x="983" y="1005" type="curve" smooth="yes"/>
      <point x="1013" y="1009"/>
      <point x="1033" y="1012"/>
      <point x="1049" y="1012" type="curve" smooth="yes"/>
      <point x="1085" y="1012"/>
      <point x="1099" y="998"/>
      <point x="1141" y="951" type="curve" smooth="yes"/>
      <point x="1174" y="915"/>
      <point x="1201" y="872"/>
      <point x="1201" y="856" type="curve" smooth="yes"/>
      <point x="1201" y="840"/>
      <point x="1215" y="799"/>
      <point x="1230" y="767" type="curve" smooth="yes"/>
      <point x="1243" y="740"/>
      <point x="1249" y="706"/>
      <point x="1249" y="668" type="curve" smooth="yes"/>
      <point x="1249" y="582"/>
      <point x="1218" y="479"/>
      <point x="1166" y="421" type="curve" smooth="yes"/>
      <point x="1130" y="380"/>
      <point x="1119" y="363"/>
      <point x="1119" y="327" type="curve" smooth="yes"/>
      <point x="1119" y="313"/>
      <point x="1120" y="297"/>
      <point x="1123" y="276" type="curve" smooth="yes"/>
      <point x="1125" y="261"/>
      <point x="1126" y="247"/>
      <point x="1126" y="233" type="curve" smooth="yes"/>
      <point x="1126" y="152"/>
      <point x="1091" y="93"/>
      <point x="1010" y="27" type="curve" smooth="yes"/>
      <point x="949" y="-22"/>
      <point x="930" y="-28"/>
      <point x="829" y="-30" type="curve" smooth="yes"/>
      <point x="801" y="-31"/>
      <point x="777" y="-31"/>
      <point x="756" y="-31" type="curve" smooth="yes"/>
      <point x="654" y="-31"/>
      <point x="627" y="-24"/>
      <point x="587" y="3" type="curve" smooth="yes"/>
      <point x="563" y="19"/>
      <point x="515" y="45"/>
      <point x="479" y="61" type="curve" smooth="yes"/>
      <point x="386" y="103"/>
      <point x="269" y="186"/>
      <point x="138" y="303" type="curve" smooth="yes"/>
      <point x="42" y="388"/>
      <point x="24" y="414"/>
      <point x="24" y="460" type="curve" smooth="yes"/>
      <point x="24" y="508"/>
      <point x="42" y="531"/>
      <point x="68" y="531" type="curve" smooth="yes"/>
      <point x="95" y="531"/>
      <point x="131" y="506"/>
      <point x="162" y="455" type="curve" smooth="yes"/>
      <point x="182" y="423"/>
      <point x="218" y="385"/>
      <point x="243" y="369" type="curve" smooth="yes"/>
      <point x="268" y="354"/>
      <point x="319" y="317"/>
      <point x="357" y="288" type="curve" smooth="yes"/>
      <point x="468" y="203"/>
      <point x="590" y="154"/>
      <point x="696" y="154" type="curve" smooth="yes"/>
      <point x="705" y="154" type="line"/>
      <point x="839" y="158"/>
      <point x="892" y="179"/>
      <point x="892" y="230" type="curve" smooth="yes"/>
      <point x="892" y="233"/>
      <point x="891" y="237"/>
      <point x="891" y="240" type="curve" smooth="yes"/>
      <point x="886" y="283"/>
      <point x="872" y="292"/>
      <point x="749" y="332" type="curve" smooth="yes"/>
      <point x="674" y="356"/>
      <point x="564" y="406"/>
      <point x="505" y="443" type="curve" smooth="yes"/>
      <point x="445" y="480"/>
      <point x="380" y="518"/>
      <point x="358" y="530" type="curve" smooth="yes"/>
      <point x="250" y="587"/>
      <point x="7" y="874"/>
      <point x="7" y="943" type="curve" smooth="yes"/>
      <point x="7" y="998"/>
      <point x="37" y="1031"/>
      <point x="71" y="1031" type="curve" smooth="yes"/>
      <point x="92" y="1031"/>
      <point x="115" y="1019"/>
      <point x="133" y="992" type="curve" smooth="yes"/>
      <point x="148" y="970"/>
      <point x="191" y="906"/>
      <point x="229" y="848" type="curve" smooth="yes"/>
      <point x="276" y="776"/>
      <point x="325" y="725"/>
      <point x="386" y="687" type="curve" smooth="yes"/>
      <point x="435" y="656"/>
      <point x="483" y="620"/>
      <point x="490" y="608" type="curve" smooth="yes"/>
      <point x="519" y="561"/>
      <point x="628" y="529"/>
      <point x="766" y="528" type="curve" smooth="yes"/>
      <point x="772" y="528" type="line" smooth="yes"/>
      <point x="957" y="528"/>
      <point x="1028" y="569"/>
      <point x="1028" y="688" type="curve" smooth="yes"/>
      <point x="1028" y="707"/>
      <point x="1026" y="728"/>
      <point x="1023" y="750" type="curve" smooth="yes"/>
      <point x="1013" y="818"/>
      <point x="986" y="852"/>
      <point x="945" y="852" type="curve" smooth="yes"/>
      <point x="924" y="852"/>
      <point x="900" y="843"/>
      <point x="872" y="826" type="curve" smooth="yes"/>
      <point x="837" y="804"/>
      <point x="808" y="793"/>
      <point x="782" y="793" type="curve" smooth="yes"/>
      <point x="747" y="793"/>
      <point x="715" y="812"/>
      <point x="671" y="854" type="curve" smooth="yes"/>
      <point x="603" y="919"/>
      <point x="570" y="996"/>
      <point x="570" y="1093" type="curve" smooth="yes"/>
      <point x="570" y="1134"/>
      <point x="557" y="1157"/>
      <point x="520" y="1183" type="curve" smooth="yes"/>
      <point x="493" y="1202"/>
      <point x="464" y="1218"/>
      <point x="456" y="1218" type="curve" smooth="yes"/>
      <point x="425" y="1218"/>
      <point x="316" y="1329"/>
      <point x="297" y="1380" type="curve" smooth="yes"/>
      <point x="289" y="1400"/>
      <point x="286" y="1423"/>
      <point x="286" y="1446" type="curve" smooth="yes"/>
      <point x="286" y="1561"/>
      <point x="372" y="1697"/>
    </contour>
  </outline>
</glyph>
<glyph name="bn_ri" format="2">
  <advance height="1000" width="1414"/>
  <unicode hex="098B"/>
  <outline>
    <contour>
      <point x="1141.234375" y="1607.28710938" type="line"/>
      <point x="1141.234375" y="1576.43359375"/>
      <point x="1230.74414062" y="1578.90625"/>
      <point x="1249.35449219" y="1610.27441406" type="curve" smooth="yes"/>
      <point x="1286.68554688" y="1673.19335938"/>
      <point x="1325.19433594" y="1575.91894531"/>
      <point x="1318.54101562" y="1435.51074219" type="curve" smooth="yes"/>
      <point x="1317.17578125" y="1406.69628906"/>
      <point x="1316.77734375" y="1222.65722656"/>
      <point x="1317.65332031" y="1025.48828125" type="curve" smooth="yes"/>
      <point x="1318.90722656" y="743.177734375"/>
      <point x="1324.10058594" y="658.926757812"/>
      <point x="1342.28222656" y="625.921875" type="curve" smooth="yes"/>
      <point x="1375.19726562" y="566.173828125"/>
      <point x="1366.47363281" y="444.962890625"/>
      <point x="1328.77832031" y="438.294921875" type="curve" smooth="yes"/>
      <point x="1313.07226562" y="435.515625"/>
      <point x="1245.33691406" y="457.484375"/>
      <point x="1178.58398438" y="487.006835938" type="curve" smooth="yes"/>
      <point x="1111.83105469" y="516.529296875"/>
      <point x="1037.64550781" y="544.485351562"/>
      <point x="1014.08496094" y="548.99609375" type="curve" smooth="yes"/>
      <point x="971.171875" y="557.2109375" type="line"/>
      <point x="960.12890625" y="394.397460938" type="line" smooth="yes"/>
      <point x="947.768554688" y="212.165039062"/>
      <point x="957.159179688" y="174.024414062"/>
      <point x="1026.79980469" y="123.595703125" type="curve" smooth="yes"/>
      <point x="1107.85742188" y="64.900390625"/>
      <point x="1109.80761719" y="-28.3212890625"/>
      <point x="1029.97851562" y="-28.3212890625" type="curve" smooth="yes"/>
      <point x="983.887695312" y="-28.3212890625"/>
      <point x="818.572265625" y="74.0322265625"/>
      <point x="803.200195312" y="112.086914062" type="curve" smooth="yes"/>
      <point x="798.578125" y="123.529296875"/>
      <point x="756.608398438" y="153.438476562"/>
      <point x="710.516601562" y="178.137695312" type="curve" smooth="yes"/>
      <point x="616.909179688" y="228.297851562"/>
      <point x="607.208984375" y="234.98046875"/>
      <point x="429.200195312" y="371.9375" type="curve" smooth="yes"/>
      <point x="362.447265625" y="423.295898438"/>
      <point x="304.291015625" y="472.544921875"/>
      <point x="301.256835938" y="480.28515625" type="curve" smooth="yes"/>
      <point x="298.260742188" y="487.92578125"/>
      <point x="286.157226562" y="494.475585938"/>
      <point x="275.032226562" y="494.475585938" type="curve" smooth="yes"/>
      <point x="263.76171875" y="494.475585938"/>
      <point x="218.609375" y="524.689453125"/>
      <point x="175.697265625" y="560.9453125" type="curve" smooth="yes"/>
      <point x="132.784179688" y="597.202148438"/>
      <point x="78.240234375" y="634.1953125"/>
      <point x="55.7001953125" y="642.331054688" type="curve" smooth="yes"/>
      <point x="-20.58984375" y="669.8671875"/>
      <point x="4.8408203125" y="735.401367188"/>
      <point x="100.202148438" y="757.016601562" type="curve" smooth="yes"/>
      <point x="126.69140625" y="763.020507812"/>
      <point x="186.02734375" y="786.744140625"/>
      <point x="233.708984375" y="810.39453125" type="curve" smooth="yes"/>
      <point x="281.389648438" y="834.044921875"/>
      <point x="332.249023438" y="852.96484375"/>
      <point x="348.142578125" y="852.96484375" type="curve" smooth="yes"/>
      <point x="391.055664062" y="852.96484375"/>
      <point x="553.66796875" y="932.22265625"/>
      <point x="547.342773438" y="950.055664062" type="curve" smooth="yes"/>
      <point x="544.34375" y="958.510742188"/>
      <point x="487.211914062" y="965.641601562"/>
      <point x="415.690429688" y="966.486328125" type="curve" smooth="yes"/>
      <point x="345.758789062" y="967.313476562"/>
      <point x="281.529296875" y="972.31640625"/>
      <point x="271.853515625" y="977.689453125" type="curve" smooth="yes"/>
      <point x="262.34765625" y="982.967773438"/>
      <point x="242.403320312" y="1022.50097656"/>
      <point x="228.145507812" y="1064.32421875" type="curve" smooth="yes"/>
      <point x="206.25" y="1128.55371094"/>
      <point x="205.146484375" y="1148.89257812"/>
      <point x="221.458984375" y="1187.55566406" type="curve" smooth="yes"/>
      <point x="257.002929688" y="1271.79199219"/>
      <point x="330.659179688" y="1359.546875"/>
      <point x="440.325195312" y="1448.31445312" type="curve" smooth="yes"/>
      <point x="549.991210938" y="1537.08203125" type="line"/>
      <point x="658.862304688" y="1528.8671875" type="line" smooth="yes"/>
      <point x="719.258789062" y="1524.30957031"/>
      <point x="785.42578125" y="1509.67773438"/>
      <point x="807.467773438" y="1496.00585938" type="curve" smooth="yes"/>
      <point x="829.71875" y="1482.20410156"/>
      <point x="861.188476562" y="1464.45898438"/>
      <point x="878.989257812" y="1455.67578125" type="curve" smooth="yes"/>
      <point x="905.05078125" y="1442.81640625"/>
      <point x="912.780273438" y="1418.33300781"/>
      <point x="921.90234375" y="1319.74804688" type="curve" smooth="yes"/>
      <point x="927.983398438" y="1254.02539062"/>
      <point x="940.594726562" y="1173.4296875"/>
      <point x="949.715820312" y="1141.99707031" type="curve" smooth="yes"/>
      <point x="958.987304688" y="1110.04882812"/>
      <point x="966.404296875" y="1036.69042969"/>
      <point x="966.404296875" y="976.942382812" type="curve" smooth="yes"/>
      <point x="966.404296875" y="838.028320312"/>
      <point x="987.383789062" y="796.69140625"/>
      <point x="1076.0703125" y="760.866210938" type="curve" smooth="yes"/>
      <point x="1144.41308594" y="733.258789062"/>
      <point x="1148.4921875" y="733.103515625"/>
      <point x="1167.85546875" y="757.368164062" type="curve" smooth="yes"/>
      <point x="1192.64648438" y="788.432617188"/>
      <point x="1193.75195312" y="823.090820312"/>
      <point x="1172.66503906" y="908.232421875" type="curve" smooth="yes"/>
      <point x="1164.15234375" y="942.603515625"/>
      <point x="1154.01757812" y="1097.93261719"/>
      <point x="1150.25" y="1251.78417969" type="curve" smooth="yes"/>
    </contour>
    <contour>
      <point x="739.125976562" y="1316.65429688" type="curve" smooth="yes"/>
      <point x="680.239257812" y="1350.25488281"/>
      <point x="619.923828125" y="1351.45703125"/>
      <point x="529.330078125" y="1320.8359375" type="curve" smooth="yes"/>
      <point x="418.07421875" y="1283.23144531"/>
      <point x="330.7421875" y="1177.56347656"/>
      <point x="363.623046875" y="1120.33886719" type="curve" smooth="yes"/>
      <point x="378.219726562" y="1094.93359375"/>
      <point x="400.591796875" y="1091.95800781"/>
      <point x="577.010742188" y="1091.95800781" type="curve" smooth="yes"/>
      <point x="761.376953125" y="1091.95800781"/>
      <point x="775.270507812" y="1093.98144531"/>
      <point x="792.369140625" y="1123.32617188" type="curve" smooth="yes"/>
      <point x="803.458984375" y="1142.35839844"/>
      <point x="806.583984375" y="1180.83398438"/>
      <point x="800.31640625" y="1221.1640625" type="curve" smooth="yes"/>
      <point x="791.958007812" y="1274.9375"/>
      <point x="780.270507812" y="1293.17675781"/>
    </contour>
    <contour>
      <point x="832.592773438" y="790.229492188" type="curve" smooth="yes"/>
      <point x="843.479492188" y="849.977539062"/>
      <point x="842.055664062" y="852.96484375"/>
      <point x="802.700195312" y="852.96484375" type="curve" smooth="yes"/>
      <point x="780.44921875" y="852.96484375"/>
      <point x="757.341796875" y="846.760742188"/>
      <point x="752.634765625" y="839.521484375" type="curve" smooth="yes"/>
      <point x="747.84765625" y="832.16015625"/>
      <point x="713.6953125" y="813.159179688"/>
      <point x="677.140625" y="797.51953125" type="curve" smooth="yes"/>
      <point x="540.455078125" y="739.041992188"/>
      <point x="529.260742188" y="733.90625"/>
      <point x="505.489257812" y="718.772460938" type="curve" smooth="yes"/>
      <point x="492.30078125" y="710.375976562"/>
      <point x="448.272460938" y="690.6640625"/>
      <point x="406.94921875" y="674.655273438" type="curve" smooth="yes"/>
      <point x="317.944335938" y="640.174804688"/>
      <point x="307.348632812" y="602.274414062"/>
      <point x="375.162109375" y="560.954101562" type="curve" smooth="yes"/>
      <point x="398.45703125" y="546.758789062"/>
      <point x="443.50390625" y="512.116210938"/>
      <point x="473.702148438" y="485.172851562" type="curve" smooth="yes"/>
      <point x="522.404296875" y="441.71875"/>
      <point x="597.671875" y="390.083984375"/>
      <point x="721.642578125" y="315.081054688" type="curve" smooth="yes"/>
      <point x="782.564453125" y="278.223632812"/>
      <point x="798.658203125" y="310.75"/>
      <point x="801.5390625" y="476.55078125" type="curve" smooth="yes"/>
      <point x="803.977539062" y="616.958984375"/>
      <point x="807.493164062" y="652.469726562"/>
    </contour>
  </outline>
</glyph>
<glyph name="bn_li" format="2">
  <advance width="1602"/>
  <unicode hex="098C"/>
  <outline>
    <contour>
      <point x="545" y="1432" type="curve" smooth="yes"/>
      <point x="600" y="1455"/>
      <point x="646" y="1467"/>
      <point x="682" y="1467" type="curve" smooth="yes"/>
      <point x="752" y="1467"/>
      <point x="786" y="1422"/>
      <point x="786" y="1333" type="curve" smooth="yes"/>
      <point x="786" y="1235"/>
      <point x="752" y="1186"/>
      <point x="686" y="1186" type="curve" smooth="yes"/>
      <point x="659" y="1186"/>
      <point x="643" y="1168"/>
      <point x="643" y="1137" type="curve" smooth="yes"/>
      <point x="643" y="1108"/>
      <point x="656" y="1091"/>
      <point x="674" y="1095" type="curve"/>
      <point x="676" y="1095" type="line" smooth="yes"/>
      <point x="693" y="1095"/>
      <point x="742" y="1065"/>
      <point x="783" y="1024" type="curve"/>
      <point x="1200" y="833" type="line"/>
      <point x="1228" y="808"/>
      <point x="1300" y="769"/>
      <point x="1362" y="747" type="curve" smooth="yes"/>
      <point x="1459" y="712"/>
      <point x="1483" y="690"/>
      <point x="1535" y="585" type="curve" smooth="yes"/>
      <point x="1581" y="491"/>
      <point x="1569" y="441"/>
      <point x="1581" y="371" type="curve" smooth="yes"/>
      <point x="1590" y="321"/>
      <point x="1595" y="275"/>
      <point x="1595" y="233" type="curve" smooth="yes"/>
      <point x="1595" y="137"/>
      <point x="1568" y="64"/>
      <point x="1500" y="31" type="curve" smooth="yes"/>
      <point x="1455" y="9"/>
      <point x="1488" y="-23"/>
      <point x="1307" y="-39" type="curve" smooth="yes"/>
      <point x="1266" y="-43"/>
      <point x="1230" y="-45"/>
      <point x="1198" y="-45" type="curve" smooth="yes"/>
      <point x="1061" y="-45"/>
      <point x="1007" y="-8"/>
      <point x="987" y="85" type="curve" smooth="yes"/>
      <point x="954" y="237"/>
      <point x="934" y="271"/>
      <point x="857" y="310" type="curve" smooth="yes"/>
      <point x="800" y="339"/>
      <point x="713" y="353"/>
      <point x="631" y="353" type="curve" smooth="yes"/>
      <point x="543" y="353"/>
      <point x="462" y="337"/>
      <point x="429" y="304" type="curve" smooth="yes"/>
      <point x="397" y="272"/>
      <point x="381" y="225"/>
      <point x="381" y="185" type="curve" smooth="yes"/>
      <point x="381" y="145"/>
      <point x="397" y="114"/>
      <point x="429" y="114" type="curve" smooth="yes"/>
      <point x="453" y="114"/>
      <point x="481" y="137"/>
      <point x="489" y="163" type="curve" smooth="yes"/>
      <point x="499" y="194"/>
      <point x="514" y="205"/>
      <point x="547" y="205" type="curve" smooth="yes"/>
      <point x="553" y="205"/>
      <point x="560" y="205"/>
      <point x="568" y="204" type="curve" smooth="yes"/>
      <point x="622" y="198"/>
      <point x="633" y="186"/>
      <point x="639" y="112" type="curve" smooth="yes"/>
      <point x="640" y="106"/>
      <point x="640" y="100"/>
      <point x="640" y="94" type="curve" smooth="yes"/>
      <point x="640" y="-14"/>
      <point x="556" y="-77"/>
      <point x="407" y="-77" type="curve" smooth="yes"/>
      <point x="312" y="-77"/>
      <point x="282" y="-64"/>
      <point x="207" y="9" type="curve" smooth="yes"/>
      <point x="136" y="79"/>
      <point x="119" y="112"/>
      <point x="119" y="183" type="curve" smooth="yes"/>
      <point x="119" y="296"/>
      <point x="224" y="447"/>
      <point x="341" y="503" type="curve" smooth="yes"/>
      <point x="403" y="533"/>
      <point x="550" y="556"/>
      <point x="637" y="556" type="curve" smooth="yes"/>
      <point x="673" y="556"/>
      <point x="698" y="552"/>
      <point x="704" y="543" type="curve" smooth="yes"/>
      <point x="710" y="534"/>
      <point x="748" y="519"/>
      <point x="791" y="510" type="curve" smooth="yes"/>
      <point x="910" y="486"/>
      <point x="1043" y="386"/>
      <point x="1091" y="285" type="curve" smooth="yes"/>
      <point x="1122" y="220"/>
      <point x="1160" y="188"/>
      <point x="1203" y="188" type="curve" smooth="yes"/>
      <point x="1233" y="188"/>
      <point x="1266" y="204"/>
      <point x="1300" y="236" type="curve" smooth="yes"/>
      <point x="1336" y="270"/>
      <point x="1354" y="302"/>
      <point x="1354" y="339" type="curve" smooth="yes"/>
      <point x="1354" y="374"/>
      <point x="1338" y="413"/>
      <point x="1308" y="462" type="curve" smooth="yes"/>
      <point x="1276" y="514"/>
      <point x="1235" y="546"/>
      <point x="1185" y="557" type="curve" smooth="yes"/>
      <point x="1145" y="566"/>
      <point x="1082" y="592"/>
      <point x="1050" y="614" type="curve" smooth="yes"/>
      <point x="909" y="710"/>
      <point x="754" y="805"/>
      <point x="736" y="805" type="curve" smooth="yes"/>
      <point x="697" y="805"/>
      <point x="496" y="1009"/>
      <point x="451" y="1095" type="curve" smooth="yes"/>
      <point x="423" y="1150"/>
      <point x="409" y="1201"/>
      <point x="409" y="1247" type="curve" smooth="yes"/>
      <point x="409" y="1330"/>
      <point x="455" y="1395"/>
    </contour>
  </outline>
</glyph>
<glyph name="bn_e" format="2">
  <advance width="1357"/>
  <unicode hex="098F"/>
  <outline>
    <contour>
      <point x="562" y="1402" type="curve" smooth="yes"/>
      <point x="612" y="1429"/>
      <point x="692" y="1442"/>
      <point x="776" y="1442" type="curve" smooth="yes"/>
      <point x="879" y="1442"/>
      <point x="990" y="1422"/>
      <point x="1063" y="1385" type="curve" smooth="yes"/>
      <point x="1190" y="1320"/>
      <point x="1279" y="1075"/>
      <point x="1279" y="781" type="curve" smooth="yes"/>
      <point x="1279" y="665"/>
      <point x="1265" y="540"/>
      <point x="1234" y="417" type="curve" smooth="yes"/>
      <point x="1221" y="363"/>
      <point x="1214" y="323"/>
      <point x="1214" y="289" type="curve" smooth="yes"/>
      <point x="1214" y="238"/>
      <point x="1229" y="203"/>
      <point x="1254" y="164" type="curve" smooth="yes"/>
      <point x="1292" y="105"/>
      <point x="1308" y="45"/>
      <point x="1308" y="-4" type="curve" smooth="yes"/>
      <point x="1308" y="-62"/>
      <point x="1286" y="-103"/>
      <point x="1250" y="-103" type="curve" smooth="yes"/>
      <point x="1227" y="-103"/>
      <point x="1199" y="-87"/>
      <point x="1168" y="-48" type="curve" smooth="yes"/>
      <point x="1069" y="77"/>
      <point x="951" y="116"/>
      <point x="668" y="116" type="curve" smooth="yes"/>
      <point x="635" y="116" type="line"/>
      <point x="573" y="116" type="line" smooth="yes"/>
      <point x="374" y="116"/>
      <point x="313" y="131"/>
      <point x="214" y="197" type="curve" smooth="yes"/>
      <point x="86" y="281"/>
      <point x="3" y="401"/>
      <point x="3" y="490" type="curve" smooth="yes"/>
      <point x="3" y="506"/>
      <point x="6" y="521"/>
      <point x="11" y="534" type="curve" smooth="yes"/>
      <point x="20" y="557"/>
      <point x="28" y="570"/>
      <point x="41" y="570" type="curve" smooth="yes"/>
      <point x="59" y="570"/>
      <point x="88" y="545"/>
      <point x="143" y="492" type="curve" smooth="yes"/>
      <point x="202" y="435"/>
      <point x="276" y="414"/>
      <point x="276" y="413" type="curve" smooth="yes"/>
      <point x="276" y="412"/>
      <point x="337" y="406"/>
      <point x="377" y="369" type="curve" smooth="yes"/>
      <point x="432" y="318"/>
      <point x="531" y="293"/>
      <point x="750" y="274" type="curve" smooth="yes"/>
      <point x="1048" y="248" type="line"/>
      <point x="1073" y="435" type="line" smooth="yes"/>
      <point x="1081" y="496"/>
      <point x="1085" y="561"/>
      <point x="1085" y="625" type="curve" smooth="yes"/>
      <point x="1085" y="844"/>
      <point x="1039" y="1060"/>
      <point x="964" y="1137" type="curve" smooth="yes"/>
      <point x="916" y="1186"/>
      <point x="875" y="1211"/>
      <point x="835" y="1211" type="curve" smooth="yes"/>
      <point x="776" y="1211"/>
      <point x="722" y="1157"/>
      <point x="660" y="1046" type="curve" smooth="yes"/>
      <point x="609" y="954"/>
      <point x="593" y="914"/>
      <point x="529" y="914" type="curve" smooth="yes"/>
      <point x="411" y="914"/>
      <point x="324" y="1006"/>
      <point x="324" y="1130" type="curve" smooth="yes"/>
      <point x="324" y="1238"/>
      <point x="386" y="1309"/>
    </contour>
  </outline>
</glyph>
<glyph name="bn_ai" format="2">
  <advance width="1962"/>
  <unicode hex="0990"/>
  <outline>
    <contour>
      <point x="944" y="1807" type="curve" smooth="yes"/>
      <point x="944" y="1880"/>
      <point x="964" y="1898"/>
      <point x="1041" y="1898" type="curve" smooth="yes"/>
      <point x="1118" y="1898"/>
      <point x="1137" y="1879"/>
      <point x="1137" y="1805" type="curve" smooth="yes"/>
      <point x="1137" y="1700"/>
      <point x="1245" y="1613"/>
      <point x="1543" y="1477" type="curve" smooth="yes"/>
      <point x="1806" y="1357"/>
      <point x="1872" y="1289"/>
      <point x="1872" y="1144" type="curve" smooth="yes"/>
      <point x="1872" y="929"/>
      <point x="1807" y="878"/>
      <point x="1507" y="878" type="curve" smooth="yes"/>
      <point x="1470" y="878" type="line" smooth="yes"/>
      <point x="1422" y="879"/>
      <point x="1381" y="880"/>
      <point x="1347" y="880" type="curve" smooth="yes"/>
      <point x="1196" y="880"/>
      <point x="1170" y="861"/>
      <point x="1170" y="712" type="curve" smooth="yes"/>
      <point x="1170" y="669"/>
      <point x="1172" y="614"/>
      <point x="1174" y="546" type="curve" smooth="yes"/>
      <point x="1177" y="430"/>
      <point x="1209" y="277"/>
      <point x="1244" y="211" type="curve" smooth="yes"/>
      <point x="1273" y="157"/>
      <point x="1286" y="123"/>
      <point x="1286" y="95" type="curve" smooth="yes"/>
      <point x="1286" y="71"/>
      <point x="1276" y="51"/>
      <point x="1257" y="28" type="curve" smooth="yes"/>
      <point x="1224" y="-12"/>
      <point x="1185" y="-32"/>
      <point x="1146" y="-32" type="curve" smooth="yes"/>
      <point x="1097" y="-32"/>
      <point x="1048" y="-1"/>
      <point x="1009" y="59" type="curve" smooth="yes"/>
      <point x="974" y="112"/>
      <point x="955" y="133"/>
      <point x="913" y="133" type="curve" smooth="yes"/>
      <point x="887" y="133"/>
      <point x="852" y="125"/>
      <point x="801" y="111" type="curve" smooth="yes"/>
      <point x="702" y="84"/>
      <point x="605" y="70"/>
      <point x="511" y="70" type="curve" smooth="yes"/>
      <point x="388" y="70"/>
      <point x="273" y="93"/>
      <point x="175" y="140" type="curve" smooth="yes"/>
      <point x="71" y="189"/>
      <point x="17" y="238"/>
      <point x="17" y="279" type="curve" smooth="yes"/>
      <point x="17" y="298"/>
      <point x="29" y="315"/>
      <point x="52" y="329" type="curve" smooth="yes"/>
      <point x="56" y="331"/>
      <point x="63" y="332"/>
      <point x="73" y="332" type="curve" smooth="yes"/>
      <point x="109" y="332"/>
      <point x="180" y="319"/>
      <point x="253" y="298" type="curve" smooth="yes"/>
      <point x="336" y="273"/>
      <point x="500" y="256"/>
      <point x="638" y="256" type="curve" smooth="yes"/>
      <point x="656" y="256"/>
      <point x="672" y="256"/>
      <point x="689" y="257" type="curve" smooth="yes"/>
      <point x="1006" y="267"/>
      <point x="1006" y="267"/>
      <point x="1018" y="727" type="curve" smooth="yes"/>
      <point x="1019" y="752"/>
      <point x="1019" y="776"/>
      <point x="1019" y="799" type="curve" smooth="yes"/>
      <point x="1019" y="1124"/>
      <point x="956" y="1273"/>
      <point x="820" y="1273" type="curve" smooth="yes"/>
      <point x="813" y="1273"/>
      <point x="805" y="1273"/>
      <point x="797" y="1272" type="curve" smooth="yes"/>
      <point x="708" y="1262"/>
      <point x="691" y="1240"/>
      <point x="681" y="1116" type="curve" smooth="yes"/>
      <point x="670" y="985"/>
      <point x="660" y="971"/>
      <point x="558" y="971" type="curve" smooth="yes"/>
      <point x="446" y="971"/>
      <point x="328" y="1056"/>
      <point x="328" y="1136" type="curve" smooth="yes"/>
      <point x="328" y="1353"/>
      <point x="508" y="1469"/>
      <point x="700" y="1469" type="curve" smooth="yes"/>
      <point x="859" y="1469"/>
      <point x="1029" y="1390"/>
      <point x="1119" y="1222" type="curve" smooth="yes"/>
      <point x="1181" y="1106"/>
      <point x="1207" y="1092"/>
      <point x="1404" y="1075" type="curve" smooth="yes"/>
      <point x="1442" y="1072"/>
      <point x="1476" y="1070"/>
      <point x="1507" y="1070" type="curve" smooth="yes"/>
      <point x="1637" y="1070"/>
      <point x="1706" y="1099"/>
      <point x="1706" y="1152" type="curve" smooth="yes"/>
      <point x="1706" y="1177"/>
      <point x="1690" y="1206"/>
      <point x="1659" y="1241" type="curve" smooth="yes"/>
      <point x="1621" y="1284"/>
      <point x="1569" y="1318"/>
      <point x="1543" y="1318" type="curve" smooth="yes"/>
      <point x="1490" y="1318"/>
      <point x="1157" y="1528"/>
      <point x="1029" y="1641" type="curve" smooth="yes"/>
      <point x="982" y="1683"/>
      <point x="944" y="1757"/>
    </contour>
  </outline>
</glyph>
<glyph name="bn_o" format="2">
  <advance width="1370"/>
  <unicode hex="0993"/>
  <outline>
    <contour>
      <point x="620" y="1410" type="curve" smooth="yes"/>
      <point x="643" y="1415"/>
      <point x="672" y="1418"/>
      <point x="703" y="1418" type="curve" smooth="yes"/>
      <point x="811" y="1418"/>
      <point x="950" y="1392"/>
      <point x="1016" y="1383" type="curve" smooth="yes"/>
      <point x="1103" y="1372"/>
      <point x="1123" y="1345"/>
      <point x="1173" y="1174" type="curve" smooth="yes"/>
      <point x="1189" y="1120"/>
      <point x="1196" y="1079"/>
      <point x="1196" y="1039" type="curve" smooth="yes"/>
      <point x="1196" y="1001"/>
      <point x="1190" y="964"/>
      <point x="1176" y="917" type="curve" smooth="yes"/>
      <point x="1163" y="873"/>
      <point x="1156" y="844"/>
      <point x="1156" y="820" type="curve" smooth="yes"/>
      <point x="1156" y="780"/>
      <point x="1178" y="756"/>
      <point x="1233" y="703" type="curve" smooth="yes"/>
      <point x="1316" y="623"/>
      <point x="1352" y="561"/>
      <point x="1352" y="471" type="curve" smooth="yes"/>
      <point x="1352" y="431"/>
      <point x="1345" y="387"/>
      <point x="1332" y="332" type="curve" smooth="yes"/>
      <point x="1278" y="101"/>
      <point x="1064" y="21"/>
      <point x="864" y="21" type="curve" smooth="yes"/>
      <point x="832" y="21"/>
      <point x="801" y="23"/>
      <point x="771" y="27" type="curve" smooth="yes"/>
      <point x="712" y="34"/>
      <point x="628" y="74"/>
      <point x="576" y="97" type="curve" smooth="yes"/>
      <point x="462" y="147"/>
      <point x="358" y="207"/>
      <point x="167" y="432" type="curve" smooth="yes"/>
      <point x="108" y="501"/>
      <point x="83" y="551"/>
      <point x="83" y="579" type="curve" smooth="yes"/>
      <point x="83" y="598"/>
      <point x="95" y="608"/>
      <point x="114" y="608" type="curve" smooth="yes"/>
      <point x="159" y="608"/>
      <point x="247" y="556"/>
      <point x="344" y="449" type="curve" smooth="yes"/>
      <point x="472" y="308"/>
      <point x="725" y="185"/>
      <point x="889" y="185" type="curve" smooth="yes"/>
      <point x="1038" y="185"/>
      <point x="1146" y="300"/>
      <point x="1146" y="457" type="curve" smooth="yes"/>
      <point x="1146" y="559"/>
      <point x="1085" y="641"/>
      <point x="1029" y="641" type="curve" smooth="yes"/>
      <point x="1012" y="641"/>
      <point x="996" y="633"/>
      <point x="982" y="617" type="curve" smooth="yes"/>
      <point x="963" y="595"/>
      <point x="905" y="578"/>
      <point x="849" y="578" type="curve" smooth="yes"/>
      <point x="768" y="578"/>
      <point x="730" y="611"/>
      <point x="730" y="692" type="curve" smooth="yes"/>
      <point x="730" y="720"/>
      <point x="735" y="753"/>
      <point x="743" y="792" type="curve" smooth="yes"/>
      <point x="758" y="859"/>
      <point x="772" y="876"/>
      <point x="846" y="876" type="curve" smooth="yes"/>
      <point x="859" y="876"/>
      <point x="873" y="876"/>
      <point x="889" y="875" type="curve" smooth="yes"/>
      <point x="899" y="874"/>
      <point x="908" y="874"/>
      <point x="917" y="874" type="curve" smooth="yes"/>
      <point x="1003" y="874"/>
      <point x="1042" y="901"/>
      <point x="1042" y="964" type="curve" smooth="yes"/>
      <point x="1042" y="989"/>
      <point x="1036" y="1019"/>
      <point x="1024" y="1056" type="curve" smooth="yes"/>
      <point x="994" y="1145"/>
      <point x="879" y="1256"/>
      <point x="815" y="1256" type="curve" smooth="yes"/>
      <point x="753" y="1256"/>
      <point x="692" y="1166"/>
      <point x="692" y="1086" type="curve" smooth="yes"/>
      <point x="692" y="1076"/>
      <point x="693" y="1066"/>
      <point x="695" y="1056" type="curve" smooth="yes"/>
      <point x="698" y="1042"/>
      <point x="700" y="1029"/>
      <point x="700" y="1017" type="curve" smooth="yes"/>
      <point x="700" y="981"/>
      <point x="685" y="957"/>
      <point x="654" y="938" type="curve" smooth="yes"/>
      <point x="616" y="914"/>
      <point x="581" y="903"/>
      <point x="550" y="903" type="curve" smooth="yes"/>
      <point x="472" y="903"/>
      <point x="422" y="973"/>
      <point x="422" y="1085" type="curve" smooth="yes"/>
      <point x="422" y="1119"/>
      <point x="426" y="1156"/>
      <point x="436" y="1196" type="curve" smooth="yes"/>
      <point x="470" y="1339"/>
      <point x="511" y="1385"/>
    </contour>
  </outline>
</glyph>
<glyph name="bn_au" format="2">
  <advance width="1771"/>
  <unicode hex="0994"/>
  <outline>
    <contour>
      <point x="596" y="1918" type="curve" smooth="yes"/>
      <point x="611" y="1958"/>
      <point x="640" y="1977"/>
      <point x="672" y="1977" type="curve" smooth="yes"/>
      <point x="723" y="1977"/>
      <point x="781" y="1931"/>
      <point x="808" y="1853" type="curve" smooth="yes"/>
      <point x="829" y="1794"/>
      <point x="1145" y="1650"/>
      <point x="1244" y="1650" type="curve" smooth="yes"/>
      <point x="1251" y="1650"/>
      <point x="1256" y="1651"/>
      <point x="1261" y="1652" type="curve" smooth="yes"/>
      <point x="1262" y="1652"/>
      <point x="1263" y="1653"/>
      <point x="1265" y="1653" type="curve" smooth="yes"/>
      <point x="1287" y="1653"/>
      <point x="1352" y="1621"/>
      <point x="1418" y="1577" type="curve" smooth="yes"/>
      <point x="1489" y="1530"/>
      <point x="1578" y="1514" type="line" smooth="yes"/>
      <point x="1579" y="1515"/>
      <point x="1657" y="1444"/>
      <point x="1657" y="1304" type="curve" smooth="yes"/>
      <point x="1657" y="1192"/>
      <point x="1560" y="1056"/>
      <point x="1481" y="1056" type="curve" smooth="yes"/>
      <point x="1451" y="1056"/>
      <point x="1433" y="1012"/>
      <point x="1433" y="940" type="curve" smooth="yes"/>
      <point x="1433" y="876"/>
      <point x="1409" y="803"/>
      <point x="1379" y="776" type="curve" smooth="yes"/>
      <point x="1355" y="755"/>
      <point x="1344" y="739"/>
      <point x="1344" y="716" type="curve" smooth="yes"/>
      <point x="1344" y="693"/>
      <point x="1355" y="663"/>
      <point x="1379" y="613" type="curve" smooth="yes"/>
      <point x="1409" y="550"/>
      <point x="1433" y="427"/>
      <point x="1433" y="339" type="curve" smooth="yes"/>
      <point x="1433" y="109"/>
      <point x="1317" y="34"/>
      <point x="962" y="34" type="curve" smooth="yes"/>
      <point x="734" y="34"/>
      <point x="664" y="53"/>
      <point x="459" y="166" type="curve" smooth="yes"/>
      <point x="171" y="325"/>
      <point x="32" y="440"/>
      <point x="32" y="523" type="curve" smooth="yes"/>
      <point x="32" y="531"/>
      <point x="33" y="539"/>
      <point x="36" y="547" type="curve" smooth="yes"/>
      <point x="51" y="590"/>
      <point x="77" y="612"/>
      <point x="114" y="612" type="curve" smooth="yes"/>
      <point x="158" y="612"/>
      <point x="216" y="582"/>
      <point x="291" y="521" type="curve" smooth="yes"/>
      <point x="354" y="470"/>
      <point x="487" y="377"/>
      <point x="584" y="317" type="curve" smooth="yes"/>
      <point x="694" y="248"/>
      <point x="749" y="223"/>
      <point x="829" y="223" type="curve" smooth="yes"/>
      <point x="862" y="223"/>
      <point x="900" y="228"/>
      <point x="948" y="235" type="curve" smooth="yes"/>
      <point x="1071" y="254"/>
      <point x="1146" y="287"/>
      <point x="1170" y="335" type="curve" smooth="yes"/>
      <point x="1199" y="394"/>
      <point x="1219" y="456"/>
      <point x="1219" y="501" type="curve" smooth="yes"/>
      <point x="1219" y="541"/>
      <point x="1204" y="566"/>
      <point x="1167" y="566" type="curve" smooth="yes"/>
      <point x="1147" y="566"/>
      <point x="1122" y="559"/>
      <point x="1089" y="542" type="curve" smooth="yes"/>
      <point x="1072" y="533"/>
      <point x="1057" y="529"/>
      <point x="1044" y="529" type="curve" smooth="yes"/>
      <point x="987" y="529"/>
      <point x="958" y="600"/>
      <point x="933" y="691" type="curve" smooth="yes"/>
      <point x="920" y="737"/>
      <point x="914" y="769"/>
      <point x="914" y="794" type="curve" smooth="yes"/>
      <point x="914" y="832"/>
      <point x="930" y="854"/>
      <point x="966" y="882" type="curve" smooth="yes"/>
      <point x="1006" y="913"/>
      <point x="1074" y="936"/>
      <point x="1123" y="936" type="curve" smooth="yes"/>
      <point x="1141" y="936"/>
      <point x="1156" y="934"/>
      <point x="1168" y="934" type="curve" smooth="yes"/>
      <point x="1196" y="934"/>
      <point x="1209" y="944"/>
      <point x="1209" y="1003" type="curve" smooth="yes"/>
      <point x="1209" y="1012" type="line" smooth="yes"/>
      <point x="1208" y="1101"/>
      <point x="1074" y="1216"/>
      <point x="970" y="1216" type="curve" smooth="yes"/>
      <point x="884" y="1216"/>
      <point x="761" y="1105"/>
      <point x="761" y="1028" type="curve" smooth="yes"/>
      <point x="761" y="992"/>
      <point x="726" y="975"/>
      <point x="684" y="975" type="curve" smooth="yes"/>
      <point x="630" y="975"/>
      <point x="563" y="1003"/>
      <point x="538" y="1052" type="curve" smooth="yes"/>
      <point x="513" y="1101"/>
      <point x="501" y="1148"/>
      <point x="501" y="1192" type="curve" smooth="yes"/>
      <point x="501" y="1316"/>
      <point x="597" y="1412"/>
      <point x="768" y="1442" type="curve" smooth="yes"/>
      <point x="788" y="1446"/>
      <point x="807" y="1447"/>
      <point x="827" y="1447" type="curve" smooth="yes"/>
      <point x="903" y="1447"/>
      <point x="986" y="1421"/>
      <point x="1104" y="1361" type="curve" smooth="yes"/>
      <point x="1236" y="1294"/>
      <point x="1350" y="1258"/>
      <point x="1414" y="1258" type="curve" smooth="yes"/>
      <point x="1450" y="1258"/>
      <point x="1470" y="1269"/>
      <point x="1470" y="1292" type="curve" smooth="yes"/>
      <point x="1470" y="1348"/>
      <point x="1343" y="1450"/>
      <point x="1239" y="1478" type="curve" smooth="yes"/>
      <point x="1183" y="1493"/>
      <point x="1119" y="1530"/>
      <point x="1095" y="1561" type="curve" smooth="yes"/>
      <point x="1075" y="1586"/>
      <point x="1052" y="1601"/>
      <point x="1035" y="1601" type="curve" smooth="yes"/>
      <point x="1030" y="1601"/>
      <point x="1026" y="1599"/>
      <point x="1022" y="1597" type="curve" smooth="yes"/>
      <point x="1021" y="1597"/>
      <point x="1020" y="1596"/>
      <point x="1019" y="1596" type="curve" smooth="yes"/>
      <point x="988" y="1596"/>
      <point x="739" y="1681"/>
      <point x="653" y="1773" type="curve" smooth="yes"/>
      <point x="616" y="1813"/>
      <point x="593" y="1863"/>
      <point x="593" y="1898" type="curve" smooth="yes"/>
      <point x="593" y="1905"/>
      <point x="594" y="1912"/>
    </contour>
  </outline>
</glyph>
<glyph name="bn_ka" format="2">
  <advance height="1000" width="1755"/>
  <unicode hex="0995"/>
  <outline>
    <contour>
      <point x="-23.56640625" y="1451.38574219" type="curve" smooth="yes"/>
      <point x="-11.4423828125" y="1483.98535156"/>
      <point x="31.29296875" y="1485.3046875"/>
      <point x="609.322265625" y="1470.921875" type="curve" smooth="yes"/>
      <point x="950.16015625" y="1462.44140625"/>
      <point x="1334.18847656" y="1453.64746094"/>
      <point x="1462.4140625" y="1451.38574219" type="curve" smooth="yes"/>
      <point x="1661.734375" y="1447.87011719"/>
      <point x="1701.70019531" y="1441.59179688"/>
      <point x="1737.47558594" y="1408.171875" type="curve" smooth="yes"/>
      <point x="1786.77441406" y="1362.12011719"/>
      <point x="1779.33300781" y="1260.96484375"/>
      <point x="1723.5234375" y="1218.50585938" type="curve" smooth="yes"/>
      <point x="1682.21289062" y="1187.078125"/>
      <point x="1482.34570312" y="1185.21582031"/>
      <point x="1296.97753906" y="1214.53125" type="curve" smooth="yes"/>
      <point x="1141.5078125" y="1239.11914062"/>
      <point x="1099.65039062" y="1223.49121094"/>
      <point x="1099.65039062" y="1140.85839844" type="curve" smooth="yes"/>
      <point x="1099.65039062" y="1095.49609375"/>
      <point x="1106.62695312" y="1093.51757812"/>
      <point x="1270.06933594" y="1092.53222656" type="curve" smooth="yes"/>
      <point x="1415.57324219" y="1091.65429688"/>
      <point x="1448.93945312" y="1084.58886719"/>
      <point x="1498.29101562" y="1044.20507812" type="curve" smooth="yes"/>
      <point x="1530.18261719" y="1018.10839844"/>
      <point x="1580.21875" y="979.390625"/>
      <point x="1609.91113281" y="957.833007812" type="curve" smooth="yes"/>
      <point x="1680.28613281" y="906.737304688"/>
      <point x="1717.54394531" y="805.654296875"/>
      <point x="1717.54394531" y="665.814453125" type="curve" smooth="yes"/>
      <point x="1717.54394531" y="552.708007812"/>
      <point x="1713.87207031" y="544.87890625"/>
      <point x="1612.90039062" y="442.6875" type="curve" smooth="yes"/>
      <point x="1555.09765625" y="384.185546875"/>
      <point x="1483.27539062" y="325.810546875"/>
      <point x="1452.44726562" y="312.276367188" type="curve" smooth="yes"/>
      <point x="1388.66503906" y="284.2734375"/>
      <point x="1318.75292969" y="279.9453125"/>
      <point x="1316.73632812" y="303.875" type="curve" smooth="yes"/>
      <point x="1309.80371094" y="386.133789062"/>
      <point x="1295.85351562" y="460.651367188"/>
      <point x="1282.85742188" y="484.844726562" type="curve" smooth="yes"/>
      <point x="1253.03125" y="540.369140625"/>
      <point x="1280.46289062" y="631.951171875"/>
      <point x="1330.86230469" y="645.11328125" type="curve" smooth="yes"/>
      <point x="1382.68554688" y="658.646484375"/>
      <point x="1399.77050781" y="739.846679688"/>
      <point x="1350.79394531" y="739.846679688" type="curve" smooth="yes"/>
      <point x="1294.57910156" y="739.846679688"/>
      <point x="1274.953125" y="795.372070312"/>
      <point x="1307.90722656" y="861.178710938" type="curve" smooth="yes"/>
      <point x="1367.03320312" y="979.249023438"/>
      <point x="1248.34179688" y="972.228515625"/>
      <point x="1134.07519531" y="850.896484375" type="curve" smooth="yes"/>
      <point x="1064.33007812" y="776.838867188"/>
      <point x="1017.19042969" y="655.532226562"/>
      <point x="1019.0" y="554.764648438" type="curve" smooth="yes"/>
      <point x="1019.50976562" y="526.360351562"/>
      <point x="1014.5703125" y="420.065429688"/>
      <point x="1007.96289062" y="317.2421875" type="curve" smooth="yes"/>
      <point x="997.919921875" y="160.950195312"/>
      <point x="1001.11328125" y="126.848632812"/>
      <point x="1027.89550781" y="104.397460938" type="curve" smooth="yes"/>
      <point x="1045.83398438" y="89.359375"/>
      <point x="1059.78613281" y="66.4169921875"/>
      <point x="1059.78613281" y="51.9580078125" type="curve" smooth="yes"/>
      <point x="1059.78613281" y="37.8193359375"/>
      <point x="1077.72558594" y="9.46484375"/>
      <point x="1099.65039062" y="-11.0517578125" type="curve" smooth="yes"/>
      <point x="1150.39160156" y="-58.533203125"/>
      <point x="1145.49414062" y="-151.235351562"/>
      <point x="1091.67773438" y="-161.961914062" type="curve" smooth="yes"/>
      <point x="1071.03613281" y="-166.076171875"/>
      <point x="1024.90527344" y="-138.984375"/>
      <point x="983.047851562" y="-98.1650390625" type="curve" smooth="yes"/>
      <point x="943.034179688" y="-59.1435546875"/>
      <point x="874.41796875" y="-5.4697265625"/>
      <point x="830.568359375" y="21.1103515625" type="curve" smooth="yes"/>
      <point x="785.919921875" y="48.173828125"/>
      <point x="706.989257812" y="103.822265625"/>
      <point x="651.1796875" y="147.583984375" type="curve" smooth="yes"/>
      <point x="595.370117188" y="191.345703125"/>
      <point x="541.43359375" y="225.729492188"/>
      <point x="528.59765625" y="225.729492188" type="curve" smooth="yes"/>
      <point x="516.094726562" y="225.729492188"/>
      <point x="493.444335938" y="241.153320312"/>
      <point x="478.767578125" y="259.661132812" type="curve" smooth="yes"/>
      <point x="445.113389703" y="302.097205931"/>
      <point x="237.724701762" y="430.031881474"/>
      <point x="206.6953125" y="475.590820312" type="curve" smooth="yes"/>
      <point x="192.688476562" y="496.155273438"/>
      <point x="168.877929688" y="513.635742188"/>
      <point x="154.872070312" y="513.635742188" type="curve" smooth="yes"/>
      <point x="124.973632812" y="513.635742188"/>
      <point x="43.251953125" y="588.916992188"/>
      <point x="43.251953125" y="616.458984375" type="curve" smooth="yes"/>
      <point x="43.251953125" y="627.475585938"/>
      <point x="69.1640625" y="646.852539062"/>
      <point x="99.0625" y="658.193359375" type="curve" smooth="yes"/>
      <point x="177.754882812" y="688.04296875"/>
      <point x="180.783203125" y="689.75"/>
      <point x="332.266601562" y="789.692382812" type="curve" smooth="yes"/>
      <point x="410.001953125" y="840.977539062"/>
      <point x="479.735351562" y="882.122070312"/>
      <point x="489.73046875" y="882.59765625" type="curve" smooth="yes"/>
      <point x="521.62109375" y="884.116210938"/>
      <point x="601.349609375" y="970.171875"/>
      <point x="601.349609375" y="1003.07519531" type="curve" smooth="yes"/>
      <point x="601.349609375" y="1025.28515625"/>
      <point x="617.294921875" y="1028.82910156"/>
      <point x="671.111328125" y="1018.578125" type="curve" smooth="yes"/>
      <point x="772.764648438" y="999.215820312"/>
      <point x="860.465820312" y="1051.08886719"/>
      <point x="860.465820312" y="1130.57617188" type="curve" smooth="yes"/>
      <point x="860.465820312" y="1175.81835938"/>
      <point x="848.772460938" y="1196.74804688"/>
      <point x="816.615234375" y="1209.06152344" type="curve" smooth="yes"/>
      <point x="769.532226562" y="1227.09082031"/>
      <point x="320.307617188" y="1223.36425781"/>
      <point x="160.8515625" y="1203.62207031" type="curve" smooth="yes"/>
      <point x="87.1025390625" y="1194.49121094"/>
      <point x="58.634765625" y="1200.75292969"/>
      <point x="15.34765625" y="1235.62597656" type="curve" smooth="yes"/>
      <point x="-37.8046875" y="1278.4453125"/>
      <point x="-54.1591796875" y="1369.12695312"/>
    </contour>
    <contour>
      <point x="870.431640625" y="721.338867188" type="curve" smooth="yes"/>
      <point x="854.486328125" y="770.694335938"/>
      <point x="854.486328125" y="770.694335938"/>
      <point x="701.009765625" y="687.059570312" type="curve" smooth="yes"/>
      <point x="629.25390625" y="647.958007812"/>
      <point x="557.22265625" y="616.458984375"/>
      <point x="539.560546875" y="616.458984375" type="curve" smooth="yes"/>
      <point x="493.217773438" y="616.458984375"/>
      <point x="461.825195312" y="573.272460938"/>
      <point x="461.825195312" y="509.522460938" type="curve" smooth="yes"/>
      <point x="461.825195312" y="416.981445312"/>
      <point x="494.286132812" y="373.551757812"/>
      <point x="575.4375" y="357.518554688" type="curve" smooth="yes"/>
      <point x="617.294921875" y="349.249023438"/>
      <point x="671.165039062" y="318.493164062"/>
      <point x="700.012695312" y="286.395507812" type="curve" smooth="yes"/>
      <point x="727.736328125" y="255.547851562"/>
      <point x="771.224609375" y="223.766601562"/>
      <point x="795.686523438" y="216.475585938" type="curve" smooth="yes"/>
      <point x="840.036132812" y="203.256835938"/>
      <point x="840.534179688" y="205.165039062"/>
      <point x="840.534179688" y="388.190429688" type="curve" smooth="yes"/>
      <point x="840.534179688" y="491.013671875"/>
      <point x="849.8359375" y="597.950195312"/>
      <point x="861.462890625" y="628.797851562" type="curve" smooth="yes"/>
      <point x="873.08984375" y="659.64453125"/>
      <point x="877.076171875" y="700.774414062"/>
    </contour>
  </outline>
</glyph>
<glyph name="bn_kha" format="2">
  <advance width="1337"/>
  <unicode hex="0996"/>
  <anchor x="900" y="1222" name="abvm"/>
  <anchor x="1261" y="-152" name="blwm"/>
  <outline>
    <contour>
      <point x="1102" y="1516" type="curve" smooth="yes"/>
      <point x="1138" y="1538"/>
      <point x="1157" y="1549"/>
      <point x="1171" y="1549" type="curve" smooth="yes"/>
      <point x="1187" y="1549"/>
      <point x="1196" y="1535"/>
      <point x="1216" y="1504" type="curve" smooth="yes"/>
      <point x="1232" y="1480"/>
      <point x="1239" y="1457"/>
      <point x="1239" y="1430" type="curve" smooth="yes"/>
      <point x="1239" y="1424" type="line"/>
      <point x="1268" y="1436"/>
      <point x="1298" y="1443"/>
      <point x="1328" y="1443" type="curve" smooth="yes"/>
      <point x="1356" y="1443"/>
      <point x="1384" y="1437"/>
      <point x="1414" y="1424" type="curve" smooth="yes"/>
      <point x="1443" y="1411"/>
      <point x="1455" y="1384"/>
      <point x="1455" y="1353" type="curve" smooth="yes"/>
      <point x="1455" y="1323"/>
      <point x="1444" y="1289"/>
      <point x="1429" y="1262" type="curve" smooth="yes"/>
      <point x="1400" y="1212"/>
      <point x="1349" y="1209"/>
      <point x="1291" y="1209" type="curve" smooth="yes"/>
      <point x="1267" y="1209"/>
      <point x="1246" y="1212"/>
      <point x="1228" y="1220" type="curve"/>
      <point x="1225" y="1095"/>
      <point x="1224" y="914"/>
      <point x="1224" y="724" type="curve" smooth="yes"/>
      <point x="1225" y="103"/>
      <point x="1225" y="101"/>
      <point x="1304" y="41" type="curve" smooth="yes"/>
      <point x="1325" y="25"/>
      <point x="1336" y="-4"/>
      <point x="1336" y="-32" type="curve" smooth="yes"/>
      <point x="1336" y="-66"/>
      <point x="1321" y="-99"/>
      <point x="1293" y="-112" type="curve" smooth="yes"/>
      <point x="1283" y="-117"/>
      <point x="1274" y="-119"/>
      <point x="1263" y="-119" type="curve" smooth="yes"/>
      <point x="1234" y="-119"/>
      <point x="1194" y="-101"/>
      <point x="1105" y="-53" type="curve" smooth="yes"/>
      <point x="1024" y="-10"/>
      <point x="923" y="53"/>
      <point x="878" y="87" type="curve" smooth="yes"/>
      <point x="834" y="121"/>
      <point x="791" y="149"/>
      <point x="783" y="149" type="curve" smooth="yes"/>
      <point x="775" y="149"/>
      <point x="737" y="170"/>
      <point x="700" y="195" type="curve" smooth="yes"/>
      <point x="663" y="220"/>
      <point x="580" y="268"/>
      <point x="516" y="300" type="curve" smooth="yes"/>
      <point x="430" y="343"/>
      <point x="399" y="368"/>
      <point x="399" y="395" type="curve" smooth="yes"/>
      <point x="399" y="436"/>
      <point x="467" y="519"/>
      <point x="500" y="519" type="curve" smooth="yes"/>
      <point x="511" y="519"/>
      <point x="551" y="548"/>
      <point x="588" y="582" type="curve" smooth="yes"/>
      <point x="651" y="641"/>
      <point x="656" y="651"/>
      <point x="656" y="753" type="curve" smooth="yes"/>
      <point x="656" y="812"/>
      <point x="665" y="872"/>
      <point x="676" y="883" type="curve" smooth="yes"/>
      <point x="684" y="891"/>
      <point x="688" y="903"/>
      <point x="688" y="918" type="curve" smooth="yes"/>
      <point x="688" y="1006"/>
      <point x="553" y="1183"/>
      <point x="463" y="1189" type="curve" smooth="yes"/>
      <point x="454" y="1190"/>
      <point x="447" y="1190"/>
      <point x="441" y="1190" type="curve" smooth="yes"/>
      <point x="409" y="1190"/>
      <point x="407" y="1177"/>
      <point x="403" y="1104" type="curve" smooth="yes"/>
      <point x="403" y="1098"/>
      <point x="402" y="1090"/>
      <point x="402" y="1083" type="curve" smooth="yes"/>
      <point x="402" y="1035"/>
      <point x="411" y="973"/>
      <point x="424" y="935" type="curve" smooth="yes"/>
      <point x="436" y="900"/>
      <point x="442" y="871"/>
      <point x="442" y="844" type="curve" smooth="yes"/>
      <point x="442" y="799"/>
      <point x="425" y="759"/>
      <point x="386" y="707" type="curve" smooth="yes"/>
      <point x="321" y="620"/>
      <point x="223" y="558"/>
      <point x="150" y="558" type="curve" smooth="yes"/>
      <point x="146" y="558"/>
      <point x="143" y="559"/>
      <point x="139" y="559" type="curve" smooth="yes"/>
      <point x="81" y="565"/>
      <point x="77" y="568"/>
      <point x="72" y="644" type="curve" smooth="yes"/>
      <point x="71" y="655"/>
      <point x="71" y="664"/>
      <point x="71" y="673" type="curve" smooth="yes"/>
      <point x="71" y="722"/>
      <point x="86" y="743"/>
      <point x="148" y="805" type="curve" smooth="yes"/>
      <point x="212" y="869"/>
      <point x="242" y="911"/>
      <point x="242" y="963" type="curve" smooth="yes"/>
      <point x="242" y="1004"/>
      <point x="223" y="1051"/>
      <point x="188" y="1119" type="curve" smooth="yes"/>
      <point x="152" y="1189"/>
      <point x="110" y="1260"/>
      <point x="96" y="1276" type="curve" smooth="yes"/>
      <point x="78" y="1296"/>
      <point x="69" y="1314"/>
      <point x="69" y="1332" type="curve" smooth="yes"/>
      <point x="69" y="1365"/>
      <point x="102" y="1398"/>
      <point x="172" y="1440" type="curve" smooth="yes"/>
      <point x="239" y="1480"/>
      <point x="268" y="1494"/>
      <point x="309" y="1494" type="curve" smooth="yes"/>
      <point x="324" y="1494"/>
      <point x="340" y="1492"/>
      <point x="361" y="1489" type="curve" smooth="yes"/>
      <point x="484" y="1471"/>
      <point x="566" y="1432"/>
      <point x="631" y="1360" type="curve" smooth="yes"/>
      <point x="663" y="1325"/>
      <point x="698" y="1295"/>
      <point x="707" y="1295" type="curve" smooth="yes"/>
      <point x="717" y="1295"/>
      <point x="729" y="1249"/>
      <point x="736" y="1192" type="curve" smooth="yes"/>
      <point x="743" y="1135"/>
      <point x="760" y="1070"/>
      <point x="776" y="1046" type="curve" smooth="yes"/>
      <point x="796" y="1015"/>
      <point x="805" y="949"/>
      <point x="808" y="810" type="curve" smooth="yes"/>
      <point x="809" y="776"/>
      <point x="809" y="748"/>
      <point x="809" y="724" type="curve" smooth="yes"/>
      <point x="809" y="620"/>
      <point x="801" y="600"/>
      <point x="761" y="543" type="curve" smooth="yes"/>
      <point x="729" y="497"/>
      <point x="712" y="458"/>
      <point x="712" y="434" type="curve" smooth="yes"/>
      <point x="712" y="417"/>
      <point x="720" y="408"/>
      <point x="737" y="408" type="curve" smooth="yes"/>
      <point x="751" y="408"/>
      <point x="773" y="395"/>
      <point x="785" y="380" type="curve" smooth="yes"/>
      <point x="800" y="362"/>
      <point x="829" y="353"/>
      <point x="862" y="353" type="curve" smooth="yes"/>
      <point x="899" y="353"/>
      <point x="939" y="364"/>
      <point x="964" y="386" type="curve" smooth="yes"/>
      <point x="994" y="412"/>
      <point x="1005" y="441"/>
      <point x="1005" y="502" type="curve" smooth="yes"/>
      <point x="1005" y="546"/>
      <point x="1014" y="613"/>
      <point x="1025" y="648" type="curve" smooth="yes"/>
      <point x="1037" y="685"/>
      <point x="1042" y="802"/>
      <point x="1042" y="916" type="curve" smooth="yes"/>
      <point x="1042" y="1040"/>
      <point x="1035" y="1160"/>
      <point x="1023" y="1173" type="curve" smooth="yes"/>
      <point x="1011" y="1185"/>
      <point x="1005" y="1207"/>
      <point x="1005" y="1229" type="curve" smooth="yes"/>
      <point x="1005" y="1252"/>
      <point x="1012" y="1276"/>
      <point x="1025" y="1289" type="curve" smooth="yes"/>
      <point x="1037" y="1301"/>
      <point x="1046" y="1350"/>
      <point x="1046" y="1396" type="curve" smooth="yes"/>
      <point x="1046" y="1409" type="line" smooth="yes"/>
      <point x="1046" y="1473"/>
      <point x="1054" y="1487"/>
    </contour>
  </outline>
</glyph>
<glyph name="bn_ga" format="2">
  <advance height="1000" width="1276"/>
  <unicode hex="0997"/>
  <outline>
    <contour>
      <point x="987.395507812" y="1666.015625" type="curve" smooth="yes"/>
      <point x="1048.79785156" y="1682.43652344"/>
      <point x="1090.44335938" y="1675.39941406"/>
      <point x="1119.68261719" y="1643.66308594" type="curve" smooth="yes"/>
      <point x="1144.82870744" y="1616.37078814"/>
      <point x="1149.88837591" y="1595.62837905"/>
      <point x="1146.21673547" y="1457.5675" type="curve"/>
      <point x="1203.43197421" y="1474.36223532"/>
      <point x="1262.88529331" y="1467.06724185"/>
      <point x="1321.0" y="1433.0" type="curve" smooth="yes"/>
      <point x="1379.0" y="1399.0"/>
      <point x="1356.0" y="1323.0"/>
      <point x="1327.0" y="1262.0" type="curve" smooth="yes"/>
      <point x="1312.0" y="1231.0"/>
      <point x="1274.0" y="1259.0"/>
      <point x="1240.0" y="1262.0" type="curve" smooth="yes"/>
      <point x="1202.80006972" y="1265.036729"/>
      <point x="1170.78735865" y="1255.39358884"/>
      <point x="1141.33650362" y="1264.5749375" type="curve"/>
      <point x="1140.87232547" y="1107.93381233"/>
      <point x="1154.7757399" y="964.96091414"/>
      <point x="1202.29492188" y="568.4296875" type="curve" smooth="yes"/>
      <point x="1235.00390625" y="295.486328125"/>
      <point x="1237.16601562" y="126.341796875"/>
      <point x="1208.80761719" y="58.9345703125" type="curve" smooth="yes"/>
      <point x="1189.54785156" y="13.1533203125"/>
      <point x="1178.24023438" y="6.0"/>
      <point x="1125.13574219" y="6.0" type="curve" smooth="yes"/>
      <point x="1065.48730469" y="6.0"/>
      <point x="1062.92773438" y="8.4814453125"/>
      <point x="1035.52148438" y="92.845703125" type="curve" smooth="yes"/>
      <point x="1013.07226562" y="161.953125"/>
      <point x="1006.46191406" y="259.09375"/>
      <point x="1003.16113281" y="568.4296875" type="curve" smooth="yes"/>
      <point x="999.241210938" y="935.663085938"/>
      <point x="996.984375" y="960.37109375"/>
      <point x="962.352539062" y="1015.06542969" type="curve" smooth="yes"/>
      <point x="895.458007812" y="1120.71484375"/>
      <point x="794.890625" y="1161.16796875"/>
      <point x="584.130859375" y="1167.20507812" type="curve" smooth="yes"/>
      <point x="409.880859375" y="1172.19628906"/>
      <point x="293.713867188" y="1134.49902344"/>
      <point x="293.713867188" y="1072.96289062" type="curve" smooth="yes"/>
      <point x="293.713867188" y="1032.34277344"/>
      <point x="399.923828125" y="932.35546875"/>
      <point x="443.071289062" y="932.35546875" type="curve" smooth="yes"/>
      <point x="481.120117188" y="932.35546875"/>
      <point x="488.084960938" y="910.850585938"/>
      <point x="502.006835938" y="750.392578125" type="curve" smooth="yes"/>
      <point x="511.192382812" y="644.5234375"/>
      <point x="507.538085938" y="614.196289062"/>
      <point x="477.091796875" y="543.6171875" type="curve" smooth="yes"/>
      <point x="457.111328125" y="497.298828125"/>
      <point x="421.920898438" y="440.526367188"/>
      <point x="397.11328125" y="414.588867188" type="curve" smooth="yes"/>
      <point x="314.715820312" y="328.434570312"/>
      <point x="204.099609375" y="374.887695312"/>
      <point x="204.099609375" y="495.64453125" type="curve" smooth="yes"/>
      <point x="204.099609375" y="545.059570312"/>
      <point x="217.375976562" y="567.444335938"/>
      <point x="282.09765625" y="627.154296875" type="curve" smooth="yes"/>
      <point x="325.245117188" y="666.9609375"/>
      <point x="360.095703125" y="710.19921875"/>
      <point x="360.095703125" y="723.924804688" type="curve" smooth="yes"/>
      <point x="360.095703125" y="748.73828125"/>
      <point x="279.306640625" y="833.102539062"/>
      <point x="255.544921875" y="833.102539062" type="curve" smooth="yes"/>
      <point x="238.396484375" y="833.102539062"/>
      <point x="111.166992188" y="914.590820312"/>
      <point x="64.7001953125" y="955.3359375" type="curve" smooth="yes"/>
      <point x="-25.1044921875" y="1034.08105469"/>
      <point x="59.7216796875" y="1269.65332031"/>
      <point x="194.142578125" y="1314.81347656" type="curve" smooth="yes"/>
      <point x="225.673828125" y="1325.40625"/>
      <point x="268.157226562" y="1344.9140625"/>
      <point x="287.076171875" y="1357.48632812" type="curve" smooth="yes"/>
      <point x="306.084960938" y="1370.11816406"/>
      <point x="388.307617188" y="1388.1484375"/>
      <point x="467.963867188" y="1397.15234375" type="curve" smooth="yes"/>
      <point x="632.375976562" y="1415.73730469"/>
      <point x="660.46875" y="1409.02441406"/>
      <point x="897.78125" y="1294.4453125" type="curve" smooth="yes"/>
      <point x="932.630859375" y="1277.61914062"/>
      <point x="965.56640625" y="1266.25"/>
      <point x="969.140625" y="1269.81347656" type="curve" smooth="yes"/>
      <point x="972.814453125" y="1273.47460938"/>
      <point x="968.747070312" y="1352.5234375"/>
      <point x="960.03515625" y="1446.81347656" type="curve" smooth="yes"/>
      <point x="942.762695312" y="1633.73828125"/>
      <point x="945.389648438" y="1654.78222656"/>
    </contour>
  </outline>
</glyph>
<glyph name="bn_gha" format="2">
  <advance height="1000" width="1546"/>
  <unicode hex="0998"/>
  <outline>
    <contour>
      <point x="849.911132812" y="1219.26464844" type="curve" smooth="yes"/>
      <point x="808.189453125" y="1218.04785156"/>
      <point x="748.452069245" y="1222.21933426"/>
      <point x="717.161132812" y="1228.53613281" type="curve" smooth="yes"/>
      <point x="682.021484375" y="1235.62988281"/>
      <point x="635.613934273" y="1229.04369537"/>
      <point x="595.7890625" y="1211.31054688" type="curve" smooth="yes"/>
      <point x="531.891601562" y="1182.85839844"/>
      <point x="531.413742164" y="1181.64264842"/>
      <point x="542.689453125" y="1076.37207031" type="curve" smooth="yes"/>
      <point x="549.044921875" y="1017.03710938"/>
      <point x="558.671795132" y="965.496991173"/>
      <point x="564.498046875" y="959.6171875" type="curve" smooth="yes"/>
      <point x="570.235351562" y="953.827148438"/>
      <point x="609.064280191" y="971.91432113"/>
      <point x="650.786132812" y="999.811523438" type="curve" smooth="yes"/>
      <point x="700.092773438" y="1032.78027344"/>
      <point x="752.529296875" y="1050.53222656"/>
      <point x="800.603515625" y="1050.53222656" type="curve" smooth="yes"/>
      <point x="873.33203125" y="1050.53222656"/>
      <point x="875.275504918" y="1048.61918309"/>
      <point x="917.234375" y="935.69140625" type="curve" smooth="yes"/>
      <point x="957.770507812" y="826.592773438"/>
      <point x="958.432893055" y="816.78345632"/>
      <point x="930.508789062" y="739.504882812" type="curve" smooth="yes"/>
      <point x="914.6015625" y="695.482421875"/>
      <point x="895.457683991" y="633.129955986"/>
      <point x="888.787109375" y="603.609375" type="curve" smooth="yes"/>
      <point x="881.853515625" y="572.924804688"/>
      <point x="849.911201868" y="524.496019108"/>
      <point x="815.775390625" y="492.915039062" type="curve" smooth="yes"/>
      <point x="744.336914062" y="426.823242188"/>
      <point x="751.296619762" y="416.447780211"/>
      <point x="935.25" y="314.815429688" type="curve" smooth="yes"/>
      <point x="1117.30761719" y="214.23046875"/>
      <point x="1185.42080324" y="185.529443833"/>
      <point x="1201.50878906" y="202.622070312" type="curve" smooth="yes"/>
      <point x="1209.515625" y="211.12890625"/>
      <point x="1208.33562709" y="294.495086431"/>
      <point x="1198.85351562" y="390.196289062" type="curve" smooth="yes"/>
      <point x="1189.44726562" y="485.131835938"/>
      <point x="1182.21231193" y="659.116204883"/>
      <point x="1182.734375" y="777.78515625" type="curve" smooth="yes"/>
      <point x="1184.13824776" y="1096.89623474"/>
      <point x="1109.23430193" y="893.632272937"/>
      <point x="1133.42675781" y="1096.46875" type="curve" smooth="yes"/>
      <point x="1140.27539062" y="1153.88964844"/>
      <point x="1138.1678575" y="1204.48614703"/>
      <point x="1128.68554688" y="1210.31152344" type="curve" smooth="yes"/>
      <point x="1112.91503906" y="1220.0"/>
      <point x="999.728537492" y="1223.6340159"/>
    </contour>
    <contour>
      <point x="396.0" y="532.0" type="move"/>
    </contour>
    <contour>
      <point x="555.963867188" y="546.890625" type="curve" smooth="yes"/>
      <point x="619.0" y="588.0"/>
      <point x="688.713867188" y="606.09765625"/>
      <point x="688.713867188" y="688.783203125" type="curve" smooth="yes"/>
      <point x="688.713867188" y="755.7734375"/>
      <point x="683.8515625" y="763.4296875"/>
      <point x="641.303710938" y="763.4296875" type="curve" smooth="yes"/>
      <point x="611.502929688" y="763.4296875"/>
      <point x="571.704725252" y="738.548166231"/>
      <point x="534.155273438" y="696.439453125" type="curve" smooth="yes"/>
      <point x="501.7265625" y="660.073242188"/>
      <point x="458.379882812" y="629.448242188"/>
      <point x="439.333984375" y="629.448242188" type="curve" smooth="yes"/>
      <point x="337.0" y="590.0" type="line" smooth="yes"/>
      <point x="338.805412562" y="607.929425723"/>
      <point x="296.714315159" y="618.830194446"/>
      <point x="323.651367188" y="639.975585938" type="curve" smooth="yes"/>
      <point x="345.307617188" y="656.975585937"/>
      <point x="345.453237993" y="701.224529639"/>
      <point x="324.599609375" y="927.078125" type="curve" smooth="yes"/>
      <point x="299.946289062" y="1194.08398438" type="line"/>
      <point x="205.125" y="1203.96289062" type="line" smooth="yes"/>
      <point x="83.7539528843" y="1216.60786949"/>
      <point x="6.0" y="1268.05664062"/>
      <point x="6.0" y="1335.72167969" type="curve" smooth="yes"/>
      <point x="6.0" y="1393.14160156"/>
      <point x="21.1717285033" y="1420.40750012"/>
      <point x="66.685546875" y="1444.78125" type="curve" smooth="yes"/>
      <point x="84.6640625" y="1454.40917969"/>
      <point x="411.835938144" y="1461.62352299"/>
      <point x="806.29296875" y="1461.08984375" type="curve" smooth="yes"/>
      <point x="1513.66113281" y="1460.1328125" type="line"/>
      <point x="1539.26269531" y="1405.58300781" type="line" smooth="yes"/>
      <point x="1561.66382775" y="1357.85242889"/>
      <point x="1561.30862251" y="1343.37791633"/>
      <point x="1536.41796875" y="1289.78515625" type="curve" smooth="yes"/>
      <point x="1520.41699219" y="1255.33300781"/>
      <point x="1483.91021702" y="1218.5057136"/>
      <point x="1452.97460938" y="1205.609375" type="curve" smooth="yes"/>
      <point x="1394.50878906" y="1181.23632812"/>
      <point x="1331.98309908" y="1063.93065288"/>
      <point x="1330.52929688" y="975.885742188" type="curve" smooth="yes"/>
      <point x="1330.07910156" y="948.62109375"/>
      <point x="1331.19645782" y="763.429689045"/>
      <point x="1333.00097656" y="566.286132812" type="curve" smooth="yes"/>
      <point x="1336.80273438" y="150.944335938"/>
      <point x="1350.9466497" y="91.584478798"/>
      <point x="1456.76757812" y="46.9033203125" type="curve" smooth="yes"/>
      <point x="1506.07519531" y="26.083984375"/>
      <point x="1523.14257812" y="7.064453125"/>
      <point x="1523.14257812" y="-27.0595703125" type="curve" smooth="yes"/>
      <point x="1523.14257812" y="-124.811523438"/>
      <point x="1432.11404039" y="-107.33150308"/>
      <point x="1098.34277344" y="54.515625" type="curve" smooth="yes"/>
      <point x="806.29296875" y="196.131835938"/>
      <point x="475.860351562" y="342.345703125"/>
      <point x="447.868164062" y="342.345703125" type="curve" smooth="yes"/>
      <point x="439.372070312" y="342.345703125"/>
      <point x="401.405474558" y="351.189188249"/>
      <point x="361.580078125" y="362.443359375" type="curve" smooth="yes"/>
      <point x="304.6875" y="378.520507812"/>
      <point x="290.463867188" y="391.536132812"/>
      <point x="290.463867188" y="427.51953125" type="curve" smooth="yes"/>
      <point x="290.463867188" y="480.615953789"/>
      <point x="461.0" y="485.0"/>
    </contour>
  </outline>
</glyph>
<glyph name="bn_nga" format="2">
  <advance width="1108"/>
  <unicode hex="0999"/>
  <anchor x="716" y="1226" name="abvm"/>
  <anchor x="765" y="-24" name="blwm"/>
  <outline>
    <contour>
      <point x="555" y="1446" type="curve" smooth="yes"/>
      <point x="576" y="1451"/>
      <point x="597" y="1454"/>
      <point x="620" y="1454" type="curve" smooth="yes"/>
      <point x="677" y="1454"/>
      <point x="743" y="1438"/>
      <point x="823" y="1405" type="curve" smooth="yes"/>
      <point x="943" y="1355" type="line"/>
      <point x="989" y="1251" type="line" smooth="yes"/>
      <point x="1016" y="1190"/>
      <point x="1026" y="1163"/>
      <point x="1026" y="1140" type="curve" smooth="yes"/>
      <point x="1026" y="1128"/>
      <point x="1023" y="1117"/>
      <point x="1018" y="1103" type="curve" smooth="yes"/>
      <point x="992" y="1031"/>
      <point x="923" y="968"/>
      <point x="848" y="947" type="curve" smooth="yes"/>
      <point x="780" y="927" type="line"/>
      <point x="779" y="855" type="line"/>
      <point x="779" y="840" type="line" smooth="yes"/>
      <point x="779" y="790"/>
      <point x="785" y="781"/>
      <point x="814" y="766" type="curve" smooth="yes"/>
      <point x="834" y="756"/>
      <point x="878" y="745"/>
      <point x="913" y="742" type="curve" smooth="yes"/>
      <point x="928" y="740"/>
      <point x="939" y="740"/>
      <point x="948" y="740" type="curve" smooth="yes"/>
      <point x="975" y="740"/>
      <point x="980" y="748"/>
      <point x="986" y="775" type="curve"/>
      <point x="1030" y="798" type="line"/>
      <point x="1046" y="793"/>
      <point x="1051" y="787"/>
      <point x="1051" y="766" type="curve" smooth="yes"/>
      <point x="1051" y="756"/>
      <point x="1050" y="742"/>
      <point x="1048" y="724" type="curve" smooth="yes"/>
      <point x="1047" y="712"/>
      <point x="1046" y="700"/>
      <point x="1046" y="689" type="curve" smooth="yes"/>
      <point x="1046" y="658"/>
      <point x="1051" y="631"/>
      <point x="1064" y="601" type="curve" smooth="yes"/>
      <point x="1077" y="568"/>
      <point x="1083" y="542"/>
      <point x="1083" y="491" type="curve" smooth="yes"/>
      <point x="1083" y="469"/>
      <point x="1082" y="443"/>
      <point x="1080" y="410" type="curve" smooth="yes"/>
      <point x="1070" y="222"/>
      <point x="1060" y="194"/>
      <point x="953" y="75" type="curve" smooth="yes"/>
      <point x="901" y="17"/>
      <point x="885" y="3"/>
      <point x="811" y="0" type="curve" smooth="yes"/>
      <point x="802" y="0"/>
      <point x="793" y="-1"/>
      <point x="784" y="-1" type="curve" smooth="yes"/>
      <point x="709" y="-1"/>
      <point x="645" y="12"/>
      <point x="549" y="65" type="curve" smooth="yes"/>
      <point x="480" y="103"/>
      <point x="228" y="301"/>
      <point x="108" y="413" type="curve" smooth="yes"/>
      <point x="43" y="473"/>
      <point x="29" y="492"/>
      <point x="29" y="525" type="curve" smooth="yes"/>
      <point x="29" y="536" type="line" smooth="yes"/>
      <point x="32" y="570"/>
      <point x="43" y="585"/>
      <point x="70" y="596" type="curve" smooth="yes"/>
      <point x="79" y="600"/>
      <point x="87" y="602"/>
      <point x="94" y="602" type="curve" smooth="yes"/>
      <point x="113" y="602"/>
      <point x="130" y="587"/>
      <point x="171" y="545" type="curve" smooth="yes"/>
      <point x="206" y="509"/>
      <point x="253" y="470"/>
      <point x="276" y="459" type="curve" smooth="yes"/>
      <point x="299" y="448"/>
      <point x="351" y="408"/>
      <point x="392" y="369" type="curve" smooth="yes"/>
      <point x="504" y="265"/>
      <point x="613" y="211"/>
      <point x="710" y="211" type="curve" smooth="yes"/>
      <point x="777" y="211"/>
      <point x="838" y="237"/>
      <point x="890" y="289" type="curve" smooth="yes"/>
      <point x="938" y="337" type="line"/>
      <point x="921" y="453" type="line" smooth="yes"/>
      <point x="909" y="535"/>
      <point x="896" y="577"/>
      <point x="876" y="596" type="curve" smooth="yes"/>
      <point x="858" y="613"/>
      <point x="839" y="622"/>
      <point x="820" y="622" type="curve" smooth="yes"/>
      <point x="794" y="622"/>
      <point x="768" y="607"/>
      <point x="743" y="577" type="curve" smooth="yes"/>
      <point x="721" y="551"/>
      <point x="696" y="530"/>
      <point x="686" y="530" type="curve" smooth="yes"/>
      <point x="676" y="530"/>
      <point x="651" y="559"/>
      <point x="629" y="595" type="curve" smooth="yes"/>
      <point x="595" y="648"/>
      <point x="589" y="673"/>
      <point x="589" y="747" type="curve" smooth="yes"/>
      <point x="589" y="796"/>
      <point x="585" y="848"/>
      <point x="580" y="862" type="curve" smooth="yes"/>
      <point x="575" y="876"/>
      <point x="522" y="914"/>
      <point x="460" y="948" type="curve" smooth="yes"/>
      <point x="332" y="1019"/>
      <point x="297" y="1065"/>
      <point x="285" y="1179" type="curve" smooth="yes"/>
      <point x="281" y="1222"/>
      <point x="272" y="1256"/>
      <point x="266" y="1256" type="curve" smooth="yes"/>
      <point x="260" y="1256"/>
      <point x="254" y="1267"/>
      <point x="254" y="1279" type="curve" smooth="yes"/>
      <point x="254" y="1295"/>
      <point x="268" y="1302"/>
      <point x="296" y="1302" type="curve" smooth="yes"/>
      <point x="323" y="1302"/>
      <point x="357" y="1321"/>
      <point x="393" y="1354" type="curve" smooth="yes"/>
      <point x="445" y="1402"/>
      <point x="496" y="1431"/>
    </contour>
    <contour>
      <point x="780" y="1263" type="curve" smooth="yes"/>
      <point x="755" y="1283"/>
      <point x="696" y="1295"/>
      <point x="642" y="1295" type="curve" smooth="yes"/>
      <point x="611" y="1295"/>
      <point x="582" y="1291"/>
      <point x="562" y="1283" type="curve" smooth="yes"/>
      <point x="515" y="1263"/>
      <point x="477" y="1205"/>
      <point x="477" y="1158" type="curve" smooth="yes"/>
      <point x="477" y="1148"/>
      <point x="479" y="1138"/>
      <point x="483" y="1129" type="curve" smooth="yes"/>
      <point x="506" y="1078"/>
      <point x="621" y="1038"/>
      <point x="709" y="1038" type="curve" smooth="yes"/>
      <point x="741" y="1038"/>
      <point x="770" y="1043"/>
      <point x="789" y="1055" type="curve" smooth="yes"/>
      <point x="826" y="1078"/>
      <point x="854" y="1155"/>
      <point x="854" y="1202" type="curve" smooth="yes"/>
      <point x="854" y="1225"/>
      <point x="847" y="1241"/>
      <point x="832" y="1241" type="curve" smooth="yes"/>
      <point x="818" y="1241"/>
      <point x="796" y="1250"/>
    </contour>
  </outline>
</glyph>
<glyph name="bn_cha" format="2">
  <advance width="1254"/>
  <unicode hex="099A"/>
  <anchor x="551" y="1473" name="Anchor-1"/>
  <anchor x="410" y="-40" name="Anchor-0"/>
  <outline>
    <contour>
      <point x="1122" y="1465" type="curve" smooth="yes"/>
      <point x="1147" y="1475"/>
      <point x="1168" y="1480"/>
      <point x="1186" y="1480" type="curve" smooth="yes"/>
      <point x="1224" y="1480"/>
      <point x="1249" y="1457"/>
      <point x="1267" y="1409" type="curve" smooth="yes"/>
      <point x="1272" y="1395"/>
      <point x="1274" y="1380"/>
      <point x="1274" y="1364" type="curve" smooth="yes"/>
      <point x="1274" y="1314"/>
      <point x="1252" y="1261"/>
      <point x="1221" y="1252" type="curve" smooth="yes"/>
      <point x="1201" y="1246"/>
      <point x="1095" y="1243"/>
      <point x="975" y="1243" type="curve" smooth="yes"/>
      <point x="923" y="1243"/>
      <point x="868" y="1243"/>
      <point x="817" y="1245" type="curve" smooth="yes"/>
      <point x="799" y="1245"/>
      <point x="779" y="1246"/>
      <point x="758" y="1246" type="curve" smooth="yes"/>
      <point x="648" y="1246"/>
      <point x="511" y="1239"/>
      <point x="479" y="1231" type="curve" smooth="yes"/>
      <point x="464" y="1227"/>
      <point x="450" y="1210"/>
      <point x="450" y="1196" type="curve" smooth="yes"/>
      <point x="450" y="1141"/>
      <point x="559" y="949"/>
      <point x="603" y="926" type="curve" smooth="yes"/>
      <point x="627" y="914"/>
      <point x="728" y="823"/>
      <point x="829" y="724" type="curve" smooth="yes"/>
      <point x="984" y="571"/>
      <point x="1040" y="501"/>
      <point x="1040" y="433" type="curve" smooth="yes"/>
      <point x="1040" y="410"/>
      <point x="1033" y="388"/>
      <point x="1023" y="363" type="curve" smooth="yes"/>
      <point x="955" y="201"/>
      <point x="895" y="128"/>
      <point x="895" y="113" type="curve" smooth="yes"/>
      <point x="895" y="111"/>
      <point x="896" y="110"/>
      <point x="898" y="110" type="curve" smooth="yes"/>
      <point x="899" y="110" type="line" smooth="yes"/>
      <point x="907" y="111"/>
      <point x="913" y="111"/>
      <point x="915" y="111" type="curve" smooth="yes"/>
      <point x="917" y="111" type="line"/>
      <point x="917" y="109"/>
      <point x="762" y="88"/>
      <point x="748" y="74" type="curve" smooth="yes"/>
      <point x="733" y="59"/>
      <point x="708" y="47"/>
      <point x="691" y="47" type="curve" smooth="yes"/>
      <point x="674" y="47"/>
      <point x="653" y="39"/>
      <point x="641" y="27" type="curve" smooth="yes"/>
      <point x="622" y="8"/>
      <point x="546" y="-2"/>
      <point x="467" y="-2" type="curve" smooth="yes"/>
      <point x="398" y="-2"/>
      <point x="327" y="6"/>
      <point x="288" y="21" type="curve" smooth="yes"/>
      <point x="224" y="46"/>
      <point x="205" y="63"/>
      <point x="175" y="130" type="curve" smooth="yes"/>
      <point x="156" y="172"/>
      <point x="148" y="196"/>
      <point x="148" y="224" type="curve" smooth="yes"/>
      <point x="148" y="242"/>
      <point x="151" y="260"/>
      <point x="157" y="286" type="curve" smooth="yes"/>
      <point x="167" y="328"/>
      <point x="184" y="490"/>
      <point x="195" y="645" type="curve" smooth="yes"/>
      <point x="206" y="802"/>
      <point x="225" y="952"/>
      <point x="238" y="984" type="curve" smooth="yes"/>
      <point x="254" y="1023"/>
      <point x="262" y="1086"/>
      <point x="262" y="1139" type="curve" smooth="yes"/>
      <point x="262" y="1186"/>
      <point x="256" y="1225"/>
      <point x="242" y="1230" type="curve" smooth="yes"/>
      <point x="237" y="1232"/>
      <point x="222" y="1233"/>
      <point x="202" y="1233" type="curve" smooth="yes"/>
      <point x="178" y="1233"/>
      <point x="147" y="1232"/>
      <point x="115" y="1229" type="curve" smooth="yes"/>
      <point x="84" y="1226"/>
      <point x="63" y="1224"/>
      <point x="47" y="1224" type="curve" smooth="yes"/>
      <point x="11" y="1224"/>
      <point x="8" y="1234"/>
      <point x="0" y="1264" type="curve" smooth="yes"/>
      <point x="-3" y="1277"/>
      <point x="-5" y="1291"/>
      <point x="-5" y="1306" type="curve" smooth="yes"/>
      <point x="-5" y="1353"/>
      <point x="11" y="1403"/>
      <point x="36" y="1433" type="curve" smooth="yes"/>
      <point x="51" y="1450"/>
      <point x="71" y="1457"/>
      <point x="165" y="1457" type="curve" smooth="yes"/>
      <point x="214" y="1457"/>
      <point x="282" y="1455"/>
      <point x="379" y="1452" type="curve" smooth="yes"/>
      <point x="537" y="1447"/>
      <point x="687" y="1443"/>
      <point x="736" y="1443" type="curve" smooth="yes"/>
      <point x="749" y="1443" type="line" smooth="yes"/>
      <point x="777" y="1444"/>
      <point x="864" y="1447"/>
      <point x="943" y="1448" type="curve" smooth="yes"/>
      <point x="1022" y="1449"/>
      <point x="1102" y="1457"/>
    </contour>
    <contour>
      <point x="465" y="856" type="curve" smooth="yes"/>
      <point x="427" y="875"/>
      <point x="410" y="883"/>
      <point x="403" y="883" type="curve" smooth="yes"/>
      <point x="400" y="883"/>
      <point x="399" y="881"/>
      <point x="398" y="879" type="curve" smooth="yes"/>
      <point x="397" y="877"/>
      <point x="393" y="776"/>
      <point x="388" y="653" type="curve" smooth="yes"/>
      <point x="383" y="530"/>
      <point x="372" y="418"/>
      <point x="363" y="402" type="curve" smooth="yes"/>
      <point x="353" y="383"/>
      <point x="348" y="360"/>
      <point x="348" y="339" type="curve" smooth="yes"/>
      <point x="348" y="310"/>
      <point x="357" y="286"/>
      <point x="373" y="280" type="curve" smooth="yes"/>
      <point x="379" y="278"/>
      <point x="396" y="277"/>
      <point x="418" y="277" type="curve" smooth="yes"/>
      <point x="445" y="277"/>
      <point x="480" y="278"/>
      <point x="515" y="281" type="curve" smooth="yes"/>
      <point x="669" y="294"/>
      <point x="770" y="367"/>
      <point x="770" y="450" type="curve" smooth="yes"/>
      <point x="770" y="473"/>
      <point x="762" y="498"/>
      <point x="745" y="522" type="curve" smooth="yes"/>
      <point x="728" y="546"/>
      <point x="707" y="577"/>
      <point x="697" y="592" type="curve" smooth="yes"/>
      <point x="687" y="607"/>
      <point x="653" y="650"/>
      <point x="618" y="689" type="curve" smooth="yes"/>
      <point x="583" y="728"/>
      <point x="548" y="774"/>
      <point x="537" y="794" type="curve" smooth="yes"/>
      <point x="527" y="813"/>
      <point x="494" y="841"/>
    </contour>
  </outline>
</glyph>
<glyph name="bn_ja" format="2">
  <advance height="1000" width="1566"/>
  <unicode hex="099C"/>
  <outline>
    <contour>
      <point x="-18.1181640625" y="1384.29589844" type="curve" smooth="yes"/>
      <point x="5.0615234375" y="1463.38964844" type="line"/>
      <point x="167.5234375" y="1454.19824219" type="line" smooth="yes"/>
      <point x="588.852478347" y="1430.36123152"/>
      <point x="1398.10653368" y="1406.22490161"/>
      <point x="1469.00292969" y="1415.37988281" type="curve" smooth="yes"/>
      <point x="1568.97949219" y="1428.29003906"/>
      <point x="1595.69737069" y="1404.41757065"/>
      <point x="1578.83398438" y="1317.23925781" type="curve" smooth="yes"/>
      <point x="1572.51464844" y="1284.5703125"/>
      <point x="1558.21643459" y="1250.18211352"/>
      <point x="1547.55566406" y="1242.01464844" type="curve" smooth="yes"/>
      <point x="1511.60839844" y="1214.47460938"/>
      <point x="1406.51755273" y="1205.29369748"/>
      <point x="1277.9765625" y="1218.46386719" type="curve" smooth="yes"/>
      <point x="1202.99414062" y="1226.14648438"/>
      <point x="1106.23157581" y="1224.0460298"/>
      <point x="1036.06933594" y="1213.21386719" type="curve" smooth="yes"/>
      <point x="932.522460938" y="1197.22753906"/>
      <point x="918.417385788" y="1190.53314225"/>
      <point x="912.883789062" y="1154.75390625" type="curve" smooth="yes"/>
      <point x="909.426757812" y="1132.40136719"/>
      <point x="914.21336057" y="1107.04931607"/>
      <point x="923.595703125" y="1098.01269531" type="curve" smooth="yes"/>
      <point x="932.977539062" y="1088.9765625"/>
      <point x="1015.53810239" y="1078.68107574"/>
      <point x="1108.37304688" y="1074.96972656" type="curve" smooth="yes"/>
      <point x="1317.25292969" y="1066.61914062"/>
      <point x="1427.62088327" y="1044.30355175"/>
      <point x="1457.87207031" y="1004.3046875" type="curve" smooth="yes"/>
      <point x="1485.03613281" y="968.387695312"/>
      <point x="1488.67505708" y="846.118065171"/>
      <point x="1464.421875" y="784.219726562" type="curve" smooth="yes"/>
      <point x="1455.21289062" y="760.716796875"/>
      <point x="1437.38692465" y="633.069358103"/>
      <point x="1435.08203125" y="502.235351562" type="curve" smooth="yes"/>
      <point x="1431.77480604" y="314.505400965"/>
      <point x="1443.23288942" y="196.374602659"/>
      <point x="1436.23301208" y="142.083696352" type="curve"/>
      <point x="1501.81057224" y="139.897485557"/>
      <point x="1575.85434075" y="127.334703222"/>
      <point x="1582.71972656" y="110.208007812" type="curve" smooth="yes"/>
      <point x="1597.48925781" y="73.36328125"/>
      <point x="1552.91209451" y="-16.1513435371"/>
      <point x="1504.70898438" y="-46.4423828125" type="curve" smooth="yes"/>
      <point x="1445.79394531" y="-83.46484375"/>
      <point x="1345.66239051" y="-63.5194522374"/>
      <point x="1331.14648438" y="-11.87109375" type="curve" smooth="yes"/>
      <point x="1317.9516239" y="35.0769147246"/>
      <point x="1317.41669738" y="88.3278803247"/>
      <point x="1328.29775244" y="115.678563877" type="curve"/>
      <point x="1311.71046509" y="136.097481758"/>
      <point x="1312.59074369" y="193.705756579"/>
      <point x="1310.21679688" y="349.20703125" type="curve" smooth="yes"/>
      <point x="1309.17089844" y="417.716796875"/>
      <point x="1307.13028633" y="552.097647586"/>
      <point x="1305.6484375" y="650.104492188" type="curve" smooth="yes"/>
      <point x="1302.97070312" y="827.205078125" type="line"/>
      <point x="1227.98828125" y="859.990234375" type="line" smooth="yes"/>
      <point x="1131.58243449" y="902.14252381"/>
      <point x="960.563195537" y="905.409427064"/>
      <point x="919.1328125" y="865.891601562" type="curve" smooth="yes"/>
      <point x="869.14453125" y="818.2109375"/>
      <point x="890.567372892" y="767.425716951"/>
      <point x="965.549804688" y="755.857421875" type="curve" smooth="yes"/>
      <point x="1117.89550781" y="732.353515625"/>
      <point x="1178.32183476" y="641.507898275"/>
      <point x="1146.83105469" y="483.321289062" type="curve" smooth="yes"/>
      <point x="1111.57519531" y="306.221679688"/>
      <point x="1095.70090602" y="249.802879183"/>
      <point x="1065.55566406" y="194.458984375" type="curve" smooth="yes"/>
      <point x="1029.96679688" y="129.12109375"/>
      <point x="917.868954442" y="36.9168130328"/>
      <point x="856.647460938" y="22.6220703125" type="curve" smooth="yes"/>
      <point x="831.653320312" y="16.7861328125"/>
      <point x="796.303585465" y="1.89472251131"/>
      <point x="776.30859375" y="-11.22265625" type="curve" smooth="yes"/>
      <point x="737.032226562" y="-36.9892578125"/>
      <point x="658.333850929" y="-41.3907744959"/>
      <point x="633.485351562" y="-19.2099609375" type="curve" smooth="yes"/>
      <point x="623.59765625" y="-10.3837890625"/>
      <point x="563.858214693" y="17.5259098257"/>
      <point x="499.587890625" y="43.3466796875" type="curve" smooth="yes"/>
      <point x="321.05859375" y="115.071289063"/>
      <point x="303.206054688" y="124.431640625"/>
      <point x="303.206054688" y="146.315429688" type="curve" smooth="yes"/>
      <point x="303.206054688" y="157.678710938"/>
      <point x="248.151588486" y="220.250228573"/>
      <point x="180.666015625" y="285.587890625" type="curve" smooth="yes"/>
      <point x="31.486328125" y="430.01953125"/>
      <point x="-36.0" y="522.670898438"/>
      <point x="-36.0" y="583.047851562" type="curve" smooth="yes"/>
      <point x="-36.0" y="634.629882812"/>
      <point x="8.3310546875" y="705.125976562"/>
      <point x="40.767578125" y="705.125976562" type="curve" smooth="yes"/>
      <point x="68.0107421875" y="705.125976562"/>
      <point x="124.676757812" y="615.716796875"/>
      <point x="124.676757812" y="572.731445312" type="curve" smooth="yes"/>
      <point x="124.676757812" y="511.389648438"/>
      <point x="403.181894996" y="289.308914264"/>
      <point x="521.01171875" y="256.696289062" type="curve" smooth="yes"/>
      <point x="552.248046875" y="248.05078125"/>
      <point x="634.377973339" y="245.948734121"/>
      <point x="702.21875" y="252.059570312" type="curve" smooth="yes"/>
      <point x="816.477539062" y="262.3515625"/>
      <point x="831.735947348" y="268.61073692"/>
      <point x="895.03125" y="331.153320312" type="curve" smooth="yes"/>
      <point x="953.252929688" y="388.682617188"/>
      <point x="963.764648438" y="410.24609375"/>
      <point x="963.764648438" y="472.145507812" type="curve" smooth="yes"/>
      <point x="963.764648438" y="523.727539062"/>
      <point x="952.999834868" y="554.57598188"/>
      <point x="927.166015625" y="577.029296875" type="curve" smooth="yes"/>
      <point x="892.26953125" y="607.359375"/>
      <point x="886.99709874" y="607.559490986"/>
      <point x="813.799804688" y="581.328125" type="curve" smooth="yes"/>
      <point x="751.314453125" y="558.935546875"/>
      <point x="729.06064513" y="557.581262809"/>
      <point x="694.185546875" y="574.045898438" type="curve" smooth="yes"/>
      <point x="645.982421875" y="596.802734375"/>
      <point x="645.983074231" y="596.802692292"/>
      <point x="669.608398438" y="963.0390625" type="curve" smooth="yes"/>
      <point x="680.921875" y="1138.41894531"/>
      <point x="678.874950588" y="1181.60442973"/>
      <point x="658.479492188" y="1197.73925781" type="curve" smooth="yes"/>
      <point x="644.787109375" y="1208.57128906"/>
      <point x="540.650406403" y="1221.90267743"/>
      <point x="428.176757812" y="1227.22070312" type="curve" smooth="yes"/>
      <point x="-39.5703125" y="1249.33691406"/>
      <point x="-55.9775626494" y="1255.1120254"/>
    </contour>
  </outline>
</glyph>
<glyph name="bn_jha" format="2">
  <advance width="1757"/>
  <unicode hex="099D"/>
  <anchor x="1053" y="1490" name="Anchor-1"/>
  <anchor x="1340" y="-242" name="Anchor-0"/>
  <outline>
    <contour>
      <point x="42" y="1457" type="curve" smooth="yes"/>
      <point x="68" y="1469"/>
      <point x="335" y="1476"/>
      <point x="806" y="1476" type="curve" smooth="yes"/>
      <point x="904" y="1476" type="line" smooth="yes"/>
      <point x="1728" y="1475"/>
      <point x="1770" y="1480"/>
      <point x="1770" y="1381" type="curve" smooth="yes"/>
      <point x="1770" y="1371"/>
      <point x="1769" y="1360"/>
      <point x="1769" y="1348" type="curve" smooth="yes"/>
      <point x="1769" y="1299"/>
      <point x="1754" y="1270"/>
      <point x="1714" y="1239" type="curve" smooth="yes"/>
      <point x="1685" y="1217"/>
      <point x="1668" y="1208"/>
      <point x="1645" y="1208" type="curve" smooth="yes"/>
      <point x="1630" y="1208"/>
      <point x="1613" y="1212"/>
      <point x="1588" y="1219" type="curve" smooth="yes"/>
      <point x="1560" y="1227"/>
      <point x="1533" y="1232"/>
      <point x="1518" y="1232" type="curve" smooth="yes"/>
      <point x="1512" y="1232"/>
      <point x="1508" y="1231"/>
      <point x="1506" y="1229" type="curve" smooth="yes"/>
      <point x="1504" y="1227"/>
      <point x="1504" y="1216"/>
      <point x="1504" y="1197" type="curve" smooth="yes"/>
      <point x="1504" y="1146"/>
      <point x="1509" y="1039"/>
      <point x="1518" y="918" type="curve" smooth="yes"/>
      <point x="1556" y="412"/>
      <point x="1557" y="411"/>
      <point x="1598" y="367" type="curve" smooth="yes"/>
      <point x="1622" y="342"/>
      <point x="1633" y="299"/>
      <point x="1633" y="259" type="curve" smooth="yes"/>
      <point x="1633" y="207"/>
      <point x="1615" y="158"/>
      <point x="1581" y="154" type="curve" smooth="yes"/>
      <point x="1578" y="154"/>
      <point x="1574" y="153"/>
      <point x="1571" y="153" type="curve" smooth="yes"/>
      <point x="1550" y="153"/>
      <point x="1527" y="161"/>
      <point x="1513" y="174" type="curve" smooth="yes"/>
      <point x="1441" y="241"/>
      <point x="1228" y="413"/>
      <point x="1182" y="441" type="curve" smooth="yes"/>
      <point x="1160" y="455"/>
      <point x="1140" y="463"/>
      <point x="1129" y="463" type="curve" smooth="yes"/>
      <point x="1126" y="463"/>
      <point x="1123" y="462"/>
      <point x="1122" y="460" type="curve" smooth="yes"/>
      <point x="1105" y="431"/>
      <point x="1098" y="390"/>
      <point x="1098" y="343" type="curve" smooth="yes"/>
      <point x="1098" y="190"/>
      <point x="1177" y="-22"/>
      <point x="1266" y="-50" type="curve" smooth="yes"/>
      <point x="1304" y="-62"/>
      <point x="1333" y="-105"/>
      <point x="1333" y="-141" type="curve" smooth="yes"/>
      <point x="1333" y="-148"/>
      <point x="1331" y="-156"/>
      <point x="1329" y="-162" type="curve" smooth="yes"/>
      <point x="1322" y="-181"/>
      <point x="1302" y="-190"/>
      <point x="1274" y="-190" type="curve" smooth="yes"/>
      <point x="1242" y="-190"/>
      <point x="1201" y="-178"/>
      <point x="1157" y="-154" type="curve" smooth="yes"/>
      <point x="1118" y="-133"/>
      <point x="1076" y="-116"/>
      <point x="1062" y="-116" type="curve" smooth="yes"/>
      <point x="1048" y="-116"/>
      <point x="1015" y="-99"/>
      <point x="990" y="-77" type="curve" smooth="yes"/>
      <point x="964" y="-55"/>
      <point x="919" y="-27"/>
      <point x="886" y="-13" type="curve" smooth="yes"/>
      <point x="656" y="87"/>
      <point x="490" y="174"/>
      <point x="327" y="279" type="curve" smooth="yes"/>
      <point x="290" y="303"/>
      <point x="251" y="321"/>
      <point x="237" y="321" type="curve" smooth="yes"/>
      <point x="223" y="321"/>
      <point x="213" y="328"/>
      <point x="213" y="338" type="curve" smooth="yes"/>
      <point x="213" y="347"/>
      <point x="178" y="369"/>
      <point x="135" y="386" type="curve" smooth="yes"/>
      <point x="70" y="412"/>
      <point x="36" y="438"/>
      <point x="36" y="467" type="curve" smooth="yes"/>
      <point x="36" y="504"/>
      <point x="88" y="546"/>
      <point x="193" y="599" type="curve" smooth="yes"/>
      <point x="263" y="635"/>
      <point x="358" y="696"/>
      <point x="407" y="737" type="curve" smooth="yes"/>
      <point x="455" y="777"/>
      <point x="553" y="838"/>
      <point x="625" y="872" type="curve" smooth="yes"/>
      <point x="791" y="951"/>
      <point x="885" y="1038"/>
      <point x="902" y="1127" type="curve" smooth="yes"/>
      <point x="906" y="1149"/>
      <point x="908" y="1171"/>
      <point x="908" y="1188" type="curve" smooth="yes"/>
      <point x="908" y="1201"/>
      <point x="907" y="1210"/>
      <point x="904" y="1215" type="curve" smooth="yes"/>
      <point x="899" y="1223"/>
      <point x="797" y="1226"/>
      <point x="667" y="1226" type="curve" smooth="yes"/>
      <point x="453" y="1226"/>
      <point x="164" y="1217"/>
      <point x="109" y="1204" type="curve" smooth="yes"/>
      <point x="95" y="1201"/>
      <point x="83" y="1199"/>
      <point x="72" y="1199" type="curve" smooth="yes"/>
      <point x="19" y="1199"/>
      <point x="-2" y="1240"/>
      <point x="-2" y="1338" type="curve" smooth="yes"/>
      <point x="-2" y="1422"/>
      <point x="5" y="1440"/>
    </contour>
    <contour>
      <point x="1299" y="1229" type="curve" smooth="yes"/>
      <point x="1288" y="1262"/>
      <point x="1275" y="1288"/>
      <point x="1268" y="1288" type="curve" smooth="yes"/>
      <point x="1267" y="1288" type="line" smooth="yes"/>
      <point x="1260" y="1286"/>
      <point x="1221" y="1282"/>
      <point x="1182" y="1278" type="curve" smooth="yes"/>
      <point x="1110" y="1270" type="line"/>
      <point x="1120" y="1105" type="line" smooth="yes"/>
      <point x="1140" y="759"/>
      <point x="1141" y="754"/>
      <point x="1235" y="663" type="curve" smooth="yes"/>
      <point x="1279" y="621"/>
      <point x="1308" y="596"/>
      <point x="1327" y="596" type="curve" smooth="yes"/>
      <point x="1346" y="596"/>
      <point x="1354" y="621"/>
      <point x="1354" y="681" type="curve" smooth="yes"/>
      <point x="1354" y="729"/>
      <point x="1349" y="799"/>
      <point x="1341" y="894" type="curve" smooth="yes"/>
      <point x="1329" y="1044"/>
      <point x="1310" y="1195"/>
    </contour>
    <contour>
      <point x="882" y="582" type="curve" smooth="yes"/>
      <point x="876" y="668"/>
      <point x="865" y="739"/>
      <point x="858" y="739" type="curve" smooth="yes"/>
      <point x="851" y="739"/>
      <point x="809" y="713"/>
      <point x="762" y="682" type="curve" smooth="yes"/>
      <point x="715" y="651"/>
      <point x="669" y="625"/>
      <point x="659" y="625" type="curve" smooth="yes"/>
      <point x="648" y="625"/>
      <point x="641" y="617"/>
      <point x="641" y="606" type="curve" smooth="yes"/>
      <point x="641" y="595"/>
      <point x="633" y="587"/>
      <point x="621" y="587" type="curve" smooth="yes"/>
      <point x="610" y="587"/>
      <point x="567" y="565"/>
      <point x="524" y="537" type="curve" smooth="yes"/>
      <point x="464" y="498"/>
      <point x="446" y="475"/>
      <point x="446" y="434" type="curve" smooth="yes"/>
      <point x="446" y="394"/>
      <point x="458" y="379"/>
      <point x="497" y="370" type="curve" smooth="yes"/>
      <point x="525" y="363"/>
      <point x="571" y="342"/>
      <point x="600" y="322" type="curve" smooth="yes"/>
      <point x="745" y="224"/>
      <point x="839" y="173"/>
      <point x="871" y="173" type="curve" smooth="yes"/>
      <point x="875" y="173" type="line" smooth="yes"/>
      <point x="892" y="176"/>
      <point x="900" y="196"/>
      <point x="900" y="266" type="curve" smooth="yes"/>
      <point x="900" y="326"/>
      <point x="894" y="424"/>
    </contour>
  </outline>
</glyph>
<glyph name="bn_Ta" format="2">
  <advance height="1000" width="1315"/>
  <unicode hex="099F"/>
  <outline>
    <contour>
      <point x="812.947265625" y="1218.16308594" type="curve" smooth="yes"/>
      <point x="780.704101562" y="1250.40625"/>
      <point x="587.249223797" y="1269.98894634"/>
      <point x="474.400390625" y="1252.43554688" type="curve" smooth="yes"/>
      <point x="394.987304688" y="1240.08300781"/>
      <point x="361.55078125" y="1210.73242188"/>
      <point x="361.55078125" y="1153.37988281" type="curve" smooth="yes"/>
      <point x="361.55078125" y="1083.98144531"/>
      <point x="392.8984375" y="1071.87792969"/>
      <point x="572.620117188" y="1071.87792969" type="curve" smooth="yes"/>
      <point x="723.0859375" y="1071.87792969"/>
      <point x="790.290353205" y="1090.47840415"/>
      <point x="806.677734375" y="1136.66113281" type="curve" smooth="yes"/>
      <point x="820.025390625" y="1174.27734375"/>
      <point x="822.654296875" y="1208.45605469"/>
    </contour>
    <contour>
      <point x="443.0" y="358.0" type="line"/>
      <point x="415.517966394" y="393.855968896"/>
      <point x="325.78591022" y="500.890656879"/>
      <point x="353.853515625" y="507.6328125" type="curve" smooth="yes"/>
      <point x="309.381862474" y="582.278701052"/>
      <point x="595.609034247" y="803.810049691"/>
      <point x="804.587890625" y="615.904296875" type="curve" smooth="yes"/>
      <point x="934.330510845" y="499.24472113"/>
      <point x="1002.03034013" y="369.7056891"/>
      <point x="937.584960938" y="185.803710938" type="curve" smooth="yes"/>
      <point x="888.026367188" y="44.3828125"/>
      <point x="792.048828125" y="-14.81640625"/>
      <point x="612.326171875" y="-14.81640625" type="curve" smooth="yes"/>
      <point x="305.96484375" y="-14.81640625"/>
      <point x="217.790309095" y="173.265621376"/>
      <point x="226.317382812" y="808.563476562" type="curve" smooth="yes"/>
      <point x="231.983398438" y="1230.70214844" type="line"/>
      <point x="110.775390625" y="1254.94335938" type="line" smooth="yes"/>
      <point x="-93.0784015771" y="1295.71346084"/>
      <point x="-43.8691986321" y="1400.50286358"/>
      <point x="186.0078125" y="1415.1484375" type="curve" smooth="yes"/>
      <point x="532.9140625" y="1437.25"/>
      <point x="1170.63239505" y="1423.32488741"/>
      <point x="1268.52246094" y="1391.51171875" type="curve" smooth="yes"/>
      <point x="1327.03710938" y="1372.49511719"/>
      <point x="1364.65332031" y="1327.55957031"/>
      <point x="1364.65332031" y="1276.67773438" type="curve" smooth="yes"/>
      <point x="1364.65332031" y="1226.52246094"/>
      <point x="1346.26264235" y="1204.48233641"/>
      <point x="1318.67773438" y="1221.57714844" type="curve" smooth="yes"/>
      <point x="1268.52246094" y="1252.65917969"/>
      <point x="950.464645836" y="1256.61638018"/>
      <point x="921.106445312" y="1226.52246094" type="curve" smooth="yes"/>
      <point x="909.727539062" y="1214.85839844"/>
      <point x="924.727078917" y="1165.918281"/>
      <point x="955.052734375" y="1115.76367188" type="curve" smooth="yes"/>
      <point x="1003.06933594" y="1036.35058594"/>
      <point x="999.911447566" y="1018.85504546"/>
      <point x="927.885742188" y="965.297851562" type="curve" smooth="yes"/>
      <point x="880.66015625" y="930.181640625"/>
      <point x="752.342773438" y="904.694335938"/>
      <point x="622.775390625" y="904.694335938" type="curve" smooth="yes"/>
      <point x="413.795898438" y="904.694335938"/>
      <point x="395.613149158" y="896.217419306"/>
      <point x="344.833007812" y="775.126953125" type="curve" smooth="yes"/>
      <point x="315.036132812" y="704.073242188"/>
      <point x="309.850297231" y="596.726710488"/>
      <point x="313.485351562" y="534.799804688" type="curve" smooth="yes"/>
      <point x="361.55078125" y="319.55078125" type="line"/>
      <point x="445.142578125" y="235.958984375" type="line" smooth="yes"/>
      <point x="556.200195312" y="124.901367187"/>
      <point x="632.118133469" y="131.469750857"/>
      <point x="735.009765625" y="261.037109375" type="curve" smooth="yes"/>
      <point x="798.072265625" y="340.44921875"/>
      <point x="810.130996883" y="389.961013366"/>
      <point x="779.798828125" y="444.938476562" type="curve" smooth="yes"/>
      <point x="711.622070312" y="568.509765625"/>
      <point x="594.070258387" y="593.656401045"/>
      <point x="495.297851562" y="439.580078125" type="curve" smooth="yes"/>
    </contour>
  </outline>
</glyph>
<glyph name="bn_Tha" format="2">
  <advance height="1000" width="1103"/>
  <unicode hex="09A0"/>
  <outline>
    <contour>
      <point x="531.502929688" y="806.473632812" type="curve" smooth="yes"/>
      <point x="425.466796875" y="900.19140625"/>
      <point x="331.08984375" y="977.75"/>
      <point x="323.086914062" y="977.75" type="curve" smooth="yes"/>
      <point x="315.08203125" y="977.75"/>
      <point x="308.461914062" y="941.737304688"/>
      <point x="308.461914062" y="898.1875" type="curve" smooth="yes"/>
      <point x="308.461914062" y="854.905273438"/>
      <point x="300.958984375" y="770.887695312"/>
      <point x="292.0078125" y="713.9375" type="curve" smooth="yes"/>
      <point x="282.530273438" y="653.637695312"/>
      <point x="282.142578125" y="589.719726562"/>
      <point x="291.09375" y="563.1875" type="curve" smooth="yes"/>
      <point x="299.696289062" y="537.688476562"/>
      <point x="315.458984375" y="475.25"/>
      <point x="326.403320312" y="423.325195312" type="curve" smooth="yes"/>
      <point x="352.880859375" y="297.700195312"/>
      <point x="376.228515625" y="272.36328125"/>
      <point x="474.828125" y="262.255859375" type="curve" smooth="yes"/>
      <point x="579.036132812" y="251.573242188"/>
      <point x="649.475585938" y="282.434570312"/>
      <point x="727.771484375" y="373.075195312" type="curve" smooth="yes"/>
      <point x="834.234375" y="496.325195312"/>
      <point x="802.077148438" y="567.333984375"/>
    </contour>
    <contour>
      <point x="-8.9091796875" y="1806.875" type="curve" smooth="yes"/>
      <point x="0.427734375" y="1828.91992188"/>
      <point x="15.9482421875" y="1832.94824219"/>
      <point x="59.8251953125" y="1824.71484375" type="curve" smooth="yes"/>
      <point x="131.125976562" y="1811.33496094"/>
      <point x="161.485351562" y="1783.42480469"/>
      <point x="181.262695312" y="1713.07519531" type="curve" smooth="yes"/>
      <point x="217.522460938" y="1584.09960938"/>
      <point x="276.583984375" y="1453.09082031"/>
      <point x="310.290039062" y="1426.87109375" type="curve" smooth="yes"/>
      <point x="340.293945312" y="1403.53125"/>
      <point x="387.98828125" y="1400.6484375"/>
      <point x="660.390625" y="1405.71289062" type="curve" smooth="yes"/>
      <point x="834.0703125" y="1408.94140625"/>
      <point x="1008.61132812" y="1413.83300781"/>
      <point x="1048.88476562" y="1416.59960938" type="curve" smooth="yes"/>
      <point x="1122.01269531" y="1421.625" type="line"/>
      <point x="1120.56835938" y="1339.54980469" type="line" smooth="yes"/>
      <point x="1118.94628906" y="1247.42480469"/>
      <point x="1085.69238281" y="1213.69042969"/>
      <point x="995.866210938" y="1213.04589844" type="curve" smooth="yes"/>
      <point x="738.08984375" y="1211.19628906"/>
      <point x="418.154296875" y="1190.34765625"/>
      <point x="418.154296875" y="1175.40039062" type="curve" smooth="yes"/>
      <point x="418.154296875" y="1119.39941406"/>
      <point x="551.61328125" y="985.901367188"/>
      <point x="937.364257812" y="656.038085938" type="curve" smooth="yes"/>
      <point x="1047.05664062" y="562.23828125"/>
      <point x="1048.87011719" y="559.206054688"/>
      <point x="1047.97070312" y="471.0625" type="curve" smooth="yes"/>
      <point x="1047.28710938" y="404.0625"/>
      <point x="1036.15332031" y="367.079101562"/>
      <point x="1003.84863281" y="324.5" type="curve" smooth="yes"/>
      <point x="922.515625" y="217.299804688"/>
      <point x="815.436523438" y="106.75"/>
      <point x="792.935546875" y="106.75" type="curve" smooth="yes"/>
      <point x="781.389648438" y="106.75"/>
      <point x="756.170898438" y="91.6748046875"/>
      <point x="739.697265625" y="74.9248046875" type="curve" smooth="yes"/>
      <point x="690.341796875" y="24.7421875"/>
      <point x="462.03125" y="-6.0009765625"/>
      <point x="348.681640625" y="22.2724609375" type="curve" smooth="yes"/>
      <point x="286.5234375" y="37.7763671875"/>
      <point x="264.395507812" y="54.8251953125"/>
      <point x="232.510742188" y="111.775390625" type="curve" smooth="yes"/>
      <point x="149.453125" y="260.125"/>
      <point x="116.807617188" y="652.799804688"/>
      <point x="153.551757812" y="1061.5" type="curve" smooth="yes"/>
      <point x="158.328134798" y="1114.62646252"/>
      <point x="162.193921943" y="1159.12232893"/>
      <point x="164.783771302" y="1197.19439245" type="curve"/>
      <point x="136.170986906" y="1200.69363922"/>
      <point x="106.145746192" y="1215.78938893"/>
      <point x="71.0" y="1210.0" type="curve" smooth="yes"/>
      <point x="32.5186085987" y="1203.66113281"/>
      <point x="-3.58578443191" y="1180.34960938"/>
      <point x="-29.0" y="1210.0" type="curve" smooth="yes"/>
      <point x="-65.0" y="1252.0"/>
      <point x="-55.0" y="1296.0"/>
      <point x="-49.0" y="1351.0" type="curve"/>
      <point x="-48.693877551" y="1391.71428571"/>
      <point x="-48.7405190391" y="1428.78219117"/>
      <point x="-46.0" y="1446.0" type="curve"/>
      <point x="8.53756588507" y="1469.18652344"/>
      <point x="35.1610446183" y="1392.55761719"/>
      <point x="125.0" y="1446.0" type="curve" smooth="yes"/>
      <point x="127.82356903" y="1446.89648941"/>
      <point x="130.565411381" y="1447.64487632"/>
      <point x="133.228521746" y="1448.25245072" type="curve"/>
      <point x="118.716202921" y="1476.48845843"/>
      <point x="99.1275507369" y="1506.81436776"/>
      <point x="73.412109375" y="1545.57519531" type="curve" smooth="yes"/>
      <point x="-16.6005859375" y="1681.25"/>
      <point x="-36.015625" y="1742.87695312"/>
    </contour>
  </outline>
</glyph>
<glyph name="bn_Da" format="2">
  <advance width="1372"/>
  <unicode hex="09A1"/>
  <outline>
    <contour>
      <point x="26" y="1429" type="curve" smooth="yes"/>
      <point x="34" y="1442"/>
      <point x="107" y="1447"/>
      <point x="341" y="1447" type="curve" smooth="yes"/>
      <point x="431" y="1447"/>
      <point x="546" y="1446"/>
      <point x="689" y="1445" type="curve" smooth="yes"/>
      <point x="1046" y="1442"/>
      <point x="1347" y="1433"/>
      <point x="1359" y="1426" type="curve" smooth="yes"/>
      <point x="1373" y="1417"/>
      <point x="1381" y="1380"/>
      <point x="1381" y="1343" type="curve" smooth="yes"/>
      <point x="1381" y="1308"/>
      <point x="1375" y="1274"/>
      <point x="1361" y="1260" type="curve" smooth="yes"/>
      <point x="1347" y="1246"/>
      <point x="1263" y="1239"/>
      <point x="1106" y="1239" type="curve" smooth="yes"/>
      <point x="941" y="1239"/>
      <point x="867" y="1233"/>
      <point x="855" y="1218" type="curve" smooth="yes"/>
      <point x="849" y="1211"/>
      <point x="847" y="1178"/>
      <point x="847" y="1131" type="curve" smooth="yes"/>
      <point x="847" y="998"/>
      <point x="866" y="760"/>
      <point x="885" y="741" type="curve" smooth="yes"/>
      <point x="887" y="739"/>
      <point x="891" y="738"/>
      <point x="897" y="738" type="curve" smooth="yes"/>
      <point x="913" y="738"/>
      <point x="941" y="746"/>
      <point x="970" y="761" type="curve" smooth="yes"/>
      <point x="1005" y="779"/>
      <point x="1025" y="787"/>
      <point x="1047" y="787" type="curve" smooth="yes"/>
      <point x="1064" y="787"/>
      <point x="1082" y="783"/>
      <point x="1107" y="774" type="curve" smooth="yes"/>
      <point x="1143" y="762"/>
      <point x="1206" y="717"/>
      <point x="1246" y="677" type="curve" smooth="yes"/>
      <point x="1320" y="602" type="line"/>
      <point x="1326" y="423" type="line"/>
      <point x="1332" y="245" type="line"/>
      <point x="1276" y="183" type="line" smooth="yes"/>
      <point x="1245" y="150"/>
      <point x="1193" y="93"/>
      <point x="1162" y="60" type="curve" smooth="yes"/>
      <point x="1088" y="-19"/>
      <point x="983" y="-75"/>
      <point x="916" y="-75" type="curve" smooth="yes"/>
      <point x="908" y="-75"/>
      <point x="901" y="-75"/>
      <point x="894" y="-73" type="curve" smooth="yes"/>
      <point x="868" y="-67"/>
      <point x="834" y="-62"/>
      <point x="813" y="-62" type="curve" smooth="yes"/>
      <point x="807" y="-62" type="line" smooth="yes"/>
      <point x="780" y="-63"/>
      <point x="757" y="-63"/>
      <point x="737" y="-63" type="curve" smooth="yes"/>
      <point x="648" y="-63"/>
      <point x="619" y="-54"/>
      <point x="556" y="-18" type="curve" smooth="yes"/>
      <point x="510" y="8"/>
      <point x="450" y="48"/>
      <point x="426" y="69" type="curve" smooth="yes"/>
      <point x="401" y="91"/>
      <point x="353" y="125"/>
      <point x="316" y="147" type="curve" smooth="yes"/>
      <point x="279" y="169"/>
      <point x="249" y="192"/>
      <point x="249" y="198" type="curve" smooth="yes"/>
      <point x="249" y="204"/>
      <point x="205" y="257"/>
      <point x="151" y="315" type="curve" smooth="yes"/>
      <point x="43" y="430"/>
      <point x="-9" y="515"/>
      <point x="-9" y="579" type="curve" smooth="yes"/>
      <point x="-9" y="609"/>
      <point x="2" y="634"/>
      <point x="25" y="655" type="curve" smooth="yes"/>
      <point x="46" y="674"/>
      <point x="64" y="684"/>
      <point x="81" y="684" type="curve" smooth="yes"/>
      <point x="107" y="684"/>
      <point x="129" y="662"/>
      <point x="151" y="616" type="curve" smooth="yes"/>
      <point x="166" y="584"/>
      <point x="191" y="548"/>
      <point x="205" y="536" type="curve" smooth="yes"/>
      <point x="219" y="524"/>
      <point x="232" y="504"/>
      <point x="232" y="493" type="curve" smooth="yes"/>
      <point x="232" y="465"/>
      <point x="318" y="376"/>
      <point x="396" y="324" type="curve" smooth="yes"/>
      <point x="431" y="300"/>
      <point x="462" y="274"/>
      <point x="462" y="267" type="curve" smooth="yes"/>
      <point x="462" y="260"/>
      <point x="474" y="254"/>
      <point x="486" y="254" type="curve" smooth="yes"/>
      <point x="499" y="254"/>
      <point x="547" y="234"/>
      <point x="591" y="210" type="curve" smooth="yes"/>
      <point x="662" y="172"/>
      <point x="728" y="153"/>
      <point x="797" y="153" type="curve" smooth="yes"/>
      <point x="838" y="153"/>
      <point x="880" y="160"/>
      <point x="925" y="173" type="curve" smooth="yes"/>
      <point x="1065" y="214"/>
      <point x="1150" y="306"/>
      <point x="1150" y="414" type="curve" smooth="yes"/>
      <point x="1150" y="430"/>
      <point x="1148" y="446"/>
      <point x="1144" y="463" type="curve" smooth="yes"/>
      <point x="1128" y="534"/>
      <point x="1075" y="576"/>
      <point x="1012" y="576" type="curve" smooth="yes"/>
      <point x="988" y="576"/>
      <point x="963" y="571"/>
      <point x="938" y="558" type="curve" smooth="yes"/>
      <point x="905" y="541"/>
      <point x="833" y="525"/>
      <point x="776" y="521" type="curve" smooth="yes"/>
      <point x="674" y="514" type="line"/>
      <point x="671" y="617" type="line" smooth="yes"/>
      <point x="670" y="645"/>
      <point x="670" y="677"/>
      <point x="670" y="705" type="curve" smooth="yes"/>
      <point x="670" y="733"/>
      <point x="670" y="759"/>
      <point x="671" y="773" type="curve" smooth="yes"/>
      <point x="672" y="781"/>
      <point x="672" y="790"/>
      <point x="672" y="799" type="curve" smooth="yes"/>
      <point x="672" y="824"/>
      <point x="669" y="850"/>
      <point x="665" y="868" type="curve" smooth="yes"/>
      <point x="656" y="978" type="line"/>
      <point x="646" y="1069" type="line" smooth="yes"/>
      <point x="640" y="1118"/>
      <point x="626" y="1169"/>
      <point x="615" y="1181" type="curve" smooth="yes"/>
      <point x="604" y="1193"/>
      <point x="533" y="1213"/>
      <point x="459" y="1224" type="curve" smooth="yes"/>
      <point x="409" y="1231"/>
      <point x="374" y="1235"/>
      <point x="341" y="1235" type="curve" smooth="yes"/>
      <point x="298" y="1235"/>
      <point x="261" y="1229"/>
      <point x="203" y="1215" type="curve" smooth="yes"/>
      <point x="129" y="1197"/>
      <point x="85" y="1189"/>
      <point x="57" y="1189" type="curve" smooth="yes"/>
      <point x="27" y="1189"/>
      <point x="15" y="1198"/>
      <point x="5" y="1218" type="curve" smooth="yes"/>
      <point x="0" y="1228"/>
      <point x="-2" y="1248"/>
      <point x="-2" y="1272" type="curve" smooth="yes"/>
      <point x="-2" y="1326"/>
      <point x="9" y="1402"/>
    </contour>
  </outline>
</glyph>
